<?xml version="1.0" encoding="UTF-8"?>
<svg xmlns="http://www.w3.org/2000/svg" version="1.1" viewBox="0 0 316 630.9">
  <!-- Generator: Adobe Illustrator 28.6.0, SVG Export Plug-In . SVG Version: 1.2.0 Build 709)  -->
  <g>
    <g id="Layer_1">
      <g>
        <g id="torso">
          <g id="chest">
            <path d="M124,111.9c-7,1.4-15,6.7-18.3,12.1-1.9,3.1-2.2,4.9-2.2,15.5s.2,12.4,2.8,17.8c1.6,3.1,4.3,6.8,6,8.1,8.8,6.5,24.6,7.5,33.3,2,7.9-4.9,8.9-8,8.9-26.9s-.8-20.5-5.9-25.7c-3.7-3.6-14.6-4.9-24.6-2.9h0Z"/>
            <path d="M173.6,111.9c-5.2,1.1-9.1,5.5-11.2,12.8-2.4,8.3-1.5,30.3,1.5,35.9,3.5,6.7,11,10.4,21,10.4,18.2,0,28.2-10.8,28.2-30.5.1-14.7-2.6-19.8-13-25.4-5.1-2.7-7.4-3.3-14.3-3.6s-10.1,0-12.2.4Z"/>
          </g>
          <g id="side-abs">
            <path d="M104.9,162.4c-1.1,5.3.8,8.5,6.5,11.2,5.3,2.5,9.6,3.1,9.6,1.4s-2-3-7.9-7.3c-2.4-1.8-5.2-3.8-6.2-4.6-1.1-.7-2-1.1-2-.7h0Z"/>
            <path d="M207.4,164.5c-1.6,1.4-4.8,3.7-7.1,5.1-4.5,2.6-5.9,6.3-2.5,6.3s11.7-4.4,12.5-5.7c1.1-1.8,1.9-8.3,1-8.3s-2.3,1.2-3.9,2.6h0Z"/>
            <path d="M103,172.4c0,3.3,3.5,10.8,6.1,13.2,1.8,1.7,2.1,1.6,5.6-1.2,2-1.7,3.8-3.5,4-4.1s-1.9-1.9-4.7-2.8c-2.7-.9-6.4-3-8-4.7l-3-3v2.6h0Z"/>
            <path d="M209.9,172.9c-1.4,1.4-4.9,3.4-7.7,4.5-2.9,1-5.2,2.1-5.2,2.5.1,1.4,8.2,7.2,9.4,6.8,2.1-.8,6.8-11.2,6.4-14l-.3-2.4-2.6,2.6h0Z"/>
            <path d="M118.9,183.7c-3.4,3.2-4.8,5.2-4.4,6.3.7,1.8,8.7,7.9,10.4,7.9s1.1-3.3,1.1-9.5-.4-9.5-1.1-9.5-3.3,2.1-6,4.8Z"/>
            <path d="M190.8,185c-.4,11.3-.3,12.3.8,12.7,1.6.5,10.4-6.6,10.4-8.4s-8.6-10.2-10.2-10.3c-.5,0-.9,2.7-1,6Z"/>
            <path d="M103.6,186.5c.5,5.5,4.2,14.1,5.5,12.8s1.1-2.6,1.4-4.8c.5-3.6.2-4.4-3.4-8.5l-4-4.5.5,5Z"/>
            <path d="M208.6,186.4c-3.9,4.6-4.2,6.4-2.2,11.1l1.3,3,2.2-4.3c2.1-4.1,4.1-14.2,2.8-14.2s-2.2,2-4.1,4.4Z"/>
            <path d="M112.7,193.7c-.3.4-.8,2.2-1.1,3.8-.7,3.5.4,4.9,8.6,10.4,5.3,3.6,6.3,3,5.4-3.2-.5-3.3-1.4-4.7-3.9-6.3-1.8-1.1-4.4-2.8-5.9-3.8-1.4-.9-2.8-1.3-3.1-.9Z"/>
            <path d="M200,194.5c-.7.8-3,2.5-5.1,3.7-2.9,1.6-3.9,2.8-4,4.7,0,1.4-.2,3.3-.4,4.2-.9,4.7,2.7,3.5,12-3.9,2.6-2.1,2.8-2.6,1.9-5.9-1-4.1-2.5-5.1-4.4-2.8h0Z"/>
            <path d="M110.2,208.5c.5,5.4.8,6.1,5.2,10.1,2.7,2.4,6.1,5.2,7.7,6.4l2.9,2v-12.7l-7.2-5.4c-4-3-7.7-5.7-8.2-5.9s-.7,2.3-.4,5.5h0Z"/>
            <path d="M197.3,208.7l-7.3,5.7v6.3c0,5.9.1,6.2,1.9,5.2,1.1-.5,4.7-3.6,8-6.8,5.9-5.6,6.1-5.9,6.1-11s-.3-5.2-.7-5.1c-.5,0-4.1,2.6-8,5.7h0Z"/>
            <path d="M111,224.2c0,4.9,1.4,8.7,4.3,11.4,3.8,3.7,9.6,7.9,9.8,7.2.7-2,.8-12.1.2-13.1-.4-.8-3.8-4-7.5-7.1l-6.8-5.7v7.3h0Z"/>
            <path d="M201.5,219.7c-1.7,1.5-4.8,4.2-7,6.1-3.8,3.3-3.9,3.6-3.8,9.4.1,3.3.4,6.1.7,6.4.7.8,6.3-2.5,9.9-6,4-3.8,5.4-8.8,4.1-14.7l-.9-3.9-3,2.7Z"/>
            <path d="M110.4,236c-.3.6-1,7.3-1.4,14.8-.5,10-.3,14.1.6,15.6.6,1.1,4.5,5.5,8.5,9.8,5.9,6.1,8,7.7,10.3,7.7s2.7-.4,2.2-1.7c-1.5-3.7-2.4-10.4-3.1-21.2-.8-13.5-1.1-14.4-5.2-17.3-1.7-1.3-4.9-3.8-7.1-5.6-2.7-2.2-4.3-2.9-4.8-2.1h0Z"/>
            <path d="M203.1,236.4c-.6.7-3.8,3.3-7.1,5.7-6.7,4.9-6.1,3-8,24.4-.5,6.6-1.3,13.2-1.6,14.7-.6,2.4-.3,2.8,1.7,2.8s4.9-2.6,11.2-9.1l8.7-9.2-.5-9.1c-1.4-21.8-1.7-23.5-4.4-20.2h0Z"/>
          </g>
          <g id="abs">
            <path d="M140.8,172.2c-10.3,5-10.7,5.3-11.8,10.3-1,4.3.5,18.2,2.1,19.9,1.8,1.9,23.7-11.7,24.6-15.3s-.3-16-1.7-17.7c-1.8-2.2-3.5-1.8-13.2,2.8h0Z"/>
            <path d="M162.1,169.2c-.6.8-1.4,5.2-1.7,9.9-.6,7.6-.5,8.7,1.2,10.4,3.3,3.3,21.4,13.6,22.9,13.1,2.9-1.2,4.1-21.1,1.4-24.3-1.5-1.8-19.1-10.4-21.3-10.4s-1.9.6-2.5,1.3h0Z"/>
            <path d="M145,199.5c-12,6.4-13.4,8-13.5,15.1v5.8l10,.3c15.4.4,14.5,1.2,14.5-12.2s-.4-11.7-1.3-12.4c-.9-.8-3.5.1-9.7,3.4h0Z"/>
            <path d="M161.1,196.2c-1.5,1.5-1.5,21.9.1,23.5s5,1.2,12.5,1.2h11.3v-4.4c0-5.2-1.4-9.4-3.8-11.3-.9-.7-5.6-3.3-10.3-5.8-6.5-3.3-8.9-4.1-9.8-3.2Z"/>
            <path d="M137.2,224.7c-5.2,1.2-6.3,1.9-6.8,4-.9,3.2.2,12.3,1.6,13.7s6.1,1.2,12.5,1.4l11.3.4.7-8.5c1-12.2.7-12.7-6.8-12.6-3.4.1-9,.8-12.5,1.6h0Z"/>
            <path d="M160.2,233.2l.3,10.3,10.5.3c13.9.4,14.5-.1,14.5-10v-7.3l-6.5-1.7c-3.6-.9-9.3-1.6-12.8-1.7h-6.3c0-.1.3,10.1.3,10.1h0Z"/>
            <path d="M131,249.4c0,9.6,5.2,38,8.7,47.6,3.2,8.7,8.9,15.4,13.8,16.2,1.9.3,2-.5,2.9-31.1.7-28.4.7-31.5-.8-33-1.3-1.2-4.2-1.7-13.1-1.9l-11.5-.4v2.6h0Z"/>
            <path d="M162,248.2c-1.4.7-2.4,2-2.4,3,.1.9.2,14.9.3,30.9.1,16.1.5,29.9,1,30.6.7,1.2,1.3,1.1,3.7-.1,6.7-3.5,11.2-11.2,14.9-25.6,1.9-7.6,5.5-31,5.5-36.4v-3.7h-10.2c-6.3,0-11.3.5-12.8,1.3h0Z"/>
          </g>
        </g>
        <g id="arms">
          <g id="deltoideus">
            <path d="M92.8,105.3c-6.8,2.6-16.7,11.7-19.2,17.9-3.5,8.3-.5,19.6,6.6,25,6,4.6,7.1,4.5,12.1-1.4,6.1-7.2,6.7-8.7,6.7-16s1.3-10.7,9.2-14.7c5.8-2.9,6.6-3.6,5.9-5.4-1.8-4.8-14.2-8-21.3-5.4h0Z"/>
            <path d="M207.9,106c-2.6,1.1-5.1,3.1-5.7,4.3-.9,2.1-.6,2.5,5,5.1,8.2,3.9,9.8,6.2,9.8,14.2s.6,7.8,1.4,9.6c1.6,3.6,9.7,12.7,11.4,12.7s9.7-6.7,11.9-10.9c2.9-5.6,3.1-13.6.4-19-2.5-4.7-12.3-13.8-17.6-16.2-5.2-2.4-10.9-2.3-16.6.2h0Z"/>
          </g>
          <g id="biceps">
            <path d="M94.5,153.7c-2.3,10.1-7.1,23.9-14,39.9-5.9,13.7-6.3,15.5-4,17.4,3.8,3.1,14.4-14.6,21.1-35.3,3-9.4,3.5-12.1,3-16.7-.7-6.8-2.4-13-3.5-13s-1.7,3.5-2.6,7.7h0Z"/>
            <path d="M218.2,147.5c-2.2,4.2-3.4,13.4-2.3,18.2,3.2,15,12.6,36.2,19.1,43.2,2.9,3.1,3.2,3.2,4.8,1.7,2-2.1,1.3-5-5.3-19.7-5.9-13.4-11-28-12.6-36.1-1.5-8.3-2.3-9.9-3.7-7.3h0Z"/>
            <path d="M77.2,158.5c-1.6,1.3-4.6,5.6-6.6,9.5-3.3,6.1-3.8,8.4-4.9,18.5-1,10.3-.9,11.7.5,13.1s2,1.5,6.2-.6c3.9-1.8,5-3.1,7.5-8.3,5.7-12.1,7.6-23.6,5-30.4-1.8-4.9-3.6-5.3-7.7-1.8Z"/>
            <path d="M234.2,156.7c-2.2.8-4.2,6-4.2,10.9,0,9,5.8,25.2,10.6,29.6,2.6,2.3,7.1,3.9,9,3.1,1.5-.5,1.6-1.9,1.1-11-.8-11.8-3-19.2-7.9-26-3.6-5-6.6-7.3-8.6-6.6h0Z"/>
          </g>
          <g id="forearms">
            <path d="M60.4,205.9c-1.6,1.6-4.9,6.4-7.3,10.8-3.3,6-4.5,9.5-5.3,15.3-.6,4.1-3.2,19-5.9,33-4.9,25.7-5.7,32-3.9,32s4.4-6.2,7.9-15.8c1.6-4.2,6.3-16.3,10.4-26.7,5.5-13.8,7.9-21.1,8.6-26.8,1.7-12.3,1.3-24.7-.8-24.7s-2.1,1.3-3.7,2.9h0Z"/>
            <path d="M251,204.9c-.5,1.1-1,5.1-1,8.9,0,13.7,2.3,22.1,14.7,53.1,6.5,16.2,12.4,29.6,13.1,29.9,2.2.7,1.3-7.3-3.7-32.6-2.7-13.6-5.2-27.7-5.5-31.4-.4-5.4-1.4-8.3-4.7-14.5-4.8-8.8-7.1-12.1-9.9-14-1.7-1.2-2-1.1-3,.6h0Z"/>
            <path d="M71,219.5c-.6.8-2,5.2-3,9.8-1,4.5-3.9,13-6.5,18.7-6.7,14.9-17.5,44-17.5,47v2.5l1.9-2.2c1-1.2,3.3-5.9,5.1-10.5,5.2-12.9,12.3-27.7,16.4-34.1,5.2-8.1,8.6-18.5,8.6-26.4s-.2-6.3-1.9-6.3-2.4.7-3.1,1.5h0Z"/>
            <path d="M240,223.9c0,8.1,2.8,16.3,9.4,27.9,5.9,10.4,11.6,22.4,16,33.7,1.5,3.9,3.6,8.1,4.6,9.5l2,2.5v-2.5c0-3.8-10.9-33.3-17.8-48-2.2-4.7-4.7-11.9-5.6-16-2.4-10.9-3.4-13-6.2-13s-2.4.4-2.4,5.9h0Z"/>
            <path d="M77.3,231.2c-1.6,8.3-5.6,17.8-10.4,24.9-4.7,6.9-8.3,14.6-14.5,30.5-8,20.7-3.4,14,7.1-10.2,2.9-6.9,7.2-15.6,9.4-19.4,6.5-11.3,13.5-28.2,12.4-29.9-1.9-3-2.9-2-4,4.1h0Z"/>
            <path d="M235,226.5c-1.6,1.9,1.7,10.2,11.6,29,3.4,6.6,8.7,17.6,11.7,24.5,5.5,12.7,10.5,22,9.2,17-2.9-10.5-13.7-34.9-18.1-40.7-4-5.3-8.3-15.3-10.1-23.6-1-4.2-2.1-7.7-2.4-7.7s-1.2.7-1.9,1.5h0Z"/>
          </g>
        </g>
        <g id="other">
          <path d="M143,1.9c-12,4.2-15.7,15.7-12,36.8.8,4.6,1.8,8.3,2.2,8.3s.8-3.3.8-7.3.5-8,2-10.5c1.1-1.8,2.3-5.3,2.6-7.7.4-2.3.9-4.8,1.3-5.4.9-1.4,21.8-2.4,30-1.4l6.4.8,1.2,5.5c.6,3,1.9,6.9,2.8,8.7,1.1,2,1.7,5.5,1.7,9.5s.4,6.9.8,7.5c1.2,1.9,3.7-14.1,3.6-23.2C186.2,6.5,178.2,0,157.6,0s-10.8.7-14.6,1.9Z"/>
          <path id="sternohyoid-2" d="M147.8,75.7c.6.3,1.2.9,1.2,1.4,0,2.1,8.4,20.9,9.2,20.7.6-.2,2.2-3.5,3.7-7.3,1.5-3.9,3.7-8.8,4.7-11.1l2-4h-11c-6.1,0-10.5,0-9.8.3h0Z"/>
          <path d="M141,77.9c0,4.3.8,8.6,2.5,13.2,3.1,8.7,8.2,18.9,9.5,18.9s2.3-4.6,1.5-8.8c-1-5.7-8.4-23.3-11.1-26.7l-2.4-3v6.4Z"/>
          <path d="M172.3,74.9c-7.8,12.6-13.8,35-9.3,35s4.8-6.3,8.5-15.9c3.1-7.9,3.5-10.2,3.3-15.9l-.3-6.7-2.2,3.5h0Z"/>
          <path d="M175.1,91.9c-.1.7-1.9,5.1-4,9.7-2.2,4.6-3.5,8.4-2.9,8.4s2.3-.9,3.9-2.1c3.7-2.6,5.3-8,4.1-13.4-.6-2.2-1-3.4-1.1-2.6h0Z"/>
          <path d="M140,97.4c0,3.2.5,6.6,1,7.7.9,1.6,5.8,4.9,7.4,4.9s-6.8-16.8-7.8-17.7c-.3-.4-.6,1.9-.6,5.1h0Z"/>
          <path d="M134.5,94c-1.1,1.1-5.2,4.1-9.2,6.6-4.7,3-7,5-6.4,5.6s4.5,1.2,8.7,1.5c9.5.6,10.4-.2,10.4-9.5s-.6-7.5-3.5-4.2h0Z"/>
          <path d="M178,97.4c0,3,.5,6.7,1,8.2,1,2.6,1.1,2.7,9.1,2.2,10.5-.6,11.4-1.7,4.7-5.8-2.9-1.8-7.2-4.8-9.5-6.6-2.3-1.9-4.4-3.4-4.7-3.4s-.6,2.4-.6,5.4h0Z"/>
          <path d="M26.8,305.6c-13.4,8.8-12.4,18.9,2.4,26.3,6.5,3.3,10.2,3.8,14.2,2,3.1-1.5,4.5-5.4,5.6-15.7,1.1-11.6-1.1-14.6-11.7-15.8-4.3-.5-5.4-.2-10.5,3.2Z"/>
          <path d="M273.7,303.4c-2,.8-4.4,1.9-5.2,2.6-1.8,1.5-2,9.5-.4,18.7,1.9,10.6,7.2,12.8,18.4,7.5,7-3.4,12.5-9,12.5-13s-2.3-7.7-6.1-11c-7.2-6.1-12-7.3-19.2-4.8h0Z"/>
          <path d="M11,315.7c-2.3,3.2-5.7,6.6-7.6,7.7-2.3,1.2-3.4,2.5-3.4,4.1s.4,2.2,2.6,1.8c3.5-.6,8.3-4.3,10.1-7.8,2.2-4.1,4.2-11.6,3.2-11.6s-2.7,2.6-4.9,5.8Z"/>
          <path d="M300,311.9c.5,1.1,1,2.8,1,3.8,0,2.4,4.5,9.3,7.5,11.5,1.2.9,3.4,2,4.9,2.4,2.3.5,2.6.3,2.6-2s-.8-3-2.9-4.1c-1.7-.8-5.1-4.2-7.6-7.5-4.4-5.8-7.8-8.2-5.5-4.1h0Z"/>
          <path d="M10.6,339.6c-5.7,10.7-7.3,16-3.9,13.3.9-.8,4.1-4.9,7.2-9.2,3.1-4.4,6.2-8.7,7-9.8,1.1-1.5,1.1-2.2,0-3.4-2.8-3.4-4.7-1.7-10.4,9.1h.1Z"/>
          <path d="M295.6,330.2c-1.7,1.2-1.4,1.8,3.6,8.8,2.9,4.1,6.4,9.1,7.8,11.2,3,4.5,5.2,5,4.1.9-1.4-4.7-11.2-22.2-12.5-22.2s-2,.6-3,1.3h0Z"/>
          <path d="M22.6,335.1c-.2.7-2.2,6.2-4.4,12.3-5.9,16.1-5.8,15.7-3.1,15.3,1.8-.2,3.3-2.7,8-13.6l5.8-13.3-2.5-1c-3.2-1.2-3.4-1.1-3.8.3h0Z"/>
          <path d="M289.3,335l-2.2.9,3.8,8.3c2.1,4.6,4.6,10.4,5.6,13,1.6,4.3,4.7,7,6.2,5.4.4-.3-1.3-5.9-3.7-12.3-2.4-6.5-4.7-12.8-5.2-14.1-.8-2.4-1.2-2.5-4.5-1.2h0Z"/>
          <path d="M40.7,336.6c-1,.9-.8,17.6.2,19.1,1.4,2.3,3.1-4.4,3.1-12.4s-.3-7.4-1.3-7.4-1.7.3-2,.7h0Z"/>
          <path d="M272.4,345.1c.5,8.4,1.7,12.1,3.1,10.6.8-.8.8-17.4,0-18.7-.3-.6-1.3-1.1-2.2-1.1-1.4,0-1.5,1.2-.9,9.2Z"/>
          <path d="M30.5,338.1c-.6,1.9-3.5,21.6-3.5,23.8s2.7,2.6,3.4.2c.9-2.9,4.6-21.6,4.6-23.5s-3.8-2.4-4.5-.5Z"/>
          <path d="M281,338.4c0,1.2,3.1,17.5,4.5,23.3.7,3.1,3.5,3,3.5,0s-.7-6.8-1.5-12.3c-.8-5.4-1.5-10.5-1.5-11.2s-1.1-1.2-2.5-1.2-2.5.6-2.5,1.4h0Z"/>
          <path d="M115,279.2c0,.5,2.1,5.2,4.6,10.5,5.5,11.7,10.5,24.1,17,42.4,2.7,7.6,5.4,13.8,6,13.8,1.5,0,4.1-3,5.3-6.1,2.6-6.9-11.4-39.3-21.8-50.4-4.9-5.3-11.1-10.9-11.1-10.2h0Z"/>
          <path d="M192.9,286.7c-9.1,9.7-16.8,23.2-22.1,38.8-4.1,11.8-4.1,13.7,0,18.6,2.3,2.8,3.9,2.1,5.2-2,3.8-11.7,15-40.3,19.7-50.5,3-6.5,5.3-12,5-12.3s-3.8,3.1-7.8,7.4h0Z"/>
          <path d="M146.4,346.1l-3.8,5.2,1.2,8.1c.7,4.4,1.7,11,2.4,14.6,1,6,1.2,6.3,2,3.5,1.2-4.3,3.8-26.1,3.8-31.7s-.4-4.8-.9-4.8-2.6,2.3-4.7,5.1h0Z"/>
          <path d="M164,344.6c0,9.3,3.7,34.9,4.8,33.8.4-.3,1.6-6.3,2.8-13.3,1.5-9.1,1.8-13.3,1.1-14.7-1.5-3-6.9-9.5-7.9-9.5s-.8,1.7-.8,3.7h0Z"/>
          <path d="M110.7,435.4c-2.1,2.1-2.1,5.5-.2,13.1,3.7,13.9,7.1,18,12.5,14.8,4.8-2.8,7.4-9.4,7.5-18.5,0-4.2-.5-8.2-1.1-8.8s-4.6-1.3-9-1.6c-6.7-.6-8.3-.4-9.7,1Z"/>
          <path d="M190,434.9c-2.9.5-3.5,1.1-4.2,4.1-1.9,8.7,1.6,20,7.5,24.4l2.7,2,2.8-2.1c1.9-1.4,3.5-4.4,5.4-9.9,3.1-9.1,3.5-15.5,1.2-17.8-1.6-1.7-8.4-2-15.4-.7h0Z"/>
          <path d="M135.3,441.1c-.5.7-1.7,4.1-2.6,7.6-1,3.4-4.3,11.7-7.4,18.4-3.6,7.9-5.8,14-6.1,17.2-.5,4.8-.4,5,1.3,3.6,4-3.3,17.5-36,17.5-42.5s-1.3-6.1-2.7-4.3h0Z"/>
          <path d="M178.6,441.5c-.3.9-.6,2.7-.6,4,0,5.7,13.8,39.4,17.3,42.4,4.2,3.5,1.7-7.6-4.8-21.6-2.5-5.3-5.5-12.8-6.6-16.7-2.4-8-4.2-10.8-5.3-8.1h0Z"/>
          <path d="M121,564.8c0,.5,1.3,2.6,3,4.8,1.6,2.1,3,4.4,3,5.1s.5,1.5,1,1.8c2.3,1.4,1-6.4-1.6-9.4-2.4-2.9-5.4-4.1-5.4-2.3h0Z"/>
          <path d="M190.1,566.4c-2,2.2-4.2,10.6-2.8,10.6s1.5-1.7,2.6-3.8c1-2,2.8-4.5,4-5.6,2.1-1.9,2-3.6-.3-3.6s-2.3,1.1-3.5,2.4h0Z"/>
          <path d="M115.7,572.6c-.8,1-1.8,3.6-2.2,5.8s-1.3,6.1-2.1,8.7c-1.8,5.7-1,7.4,5.5,11.5,2.5,1.5,6,4.1,7.8,5.6l3.3,2.9,1.1-2.9c3.1-8.1,1.6-19.1-3.6-27.4-3.7-5.8-7-7.2-9.8-4.2h0Z"/>
          <path d="M193.5,573.4c-5.9,5.9-9.2,17.7-7.5,26.6,1.2,6.3,2.6,8.4,4.1,5.7.6-.9,4.1-3.8,8-6.3,7.4-4.9,8.7-7.1,6.9-11.9-.6-1.7-1.6-5.2-2.1-7.9-1-5.2-3.2-8.6-5.6-8.6s-2.5,1.1-3.8,2.4h0Z"/>
          <path d="M109.5,607.1c-1.6,2.4-4.8,6.8-7.2,9.9-4.8,6.2-5.1,7.4-2.4,8.9,2.8,1.4,16.1,4.1,17.2,3.4.5-.3.9-1.4.9-2.4s.9-4.2,2-6.9c1.1-3,1.9-7,1.8-9.7-.2-3.9-.7-4.8-3-6-4.4-2.3-6.3-1.7-9.3,2.8Z"/>
          <path d="M197.4,604.6c-3,1.4-3.1,1.8-2.9,7.2.1,3.1.9,7.1,1.8,8.9s1.7,4.3,1.7,5.7c0,3.4.8,3.7,8.1,2.4,7.1-1.2,11.9-3.2,11.9-5s-2.4-4.3-5.4-8.2c-2.9-3.9-6.1-8.3-7.1-9.9-2-3.1-3.7-3.3-8.1-1.1h0Z"/>
          <path d="M124.2,611.4c-2.8,10.9-3.9,17-3.5,18.3.3.7,1.7,1.2,3.1,1,2.2-.2,3-1.2,4.5-5.7,1.7-4.8,1.8-5.7.4-9-.8-2-1.9-4.7-2.5-6.1-.9-2.4-1-2.4-2,1.5h0Z"/>
          <path d="M188.3,613.9c-2.2,5.7-2.2,5.9-.5,11.2,1.3,4.3,2.2,5.5,4.1,5.7,3.8.6,4.4-1,2.7-6.9-.9-2.9-1.6-6.6-1.6-8.3-.1-1.7-.6-4.1-1.3-5.3-1.1-2-1.3-1.8-3.4,3.6Z"/>
        </g>
        <g id="legs">
          <g id="quadriceps">
            <path d="M113.5,288.5c1.6,5.2,14.9,56,18.4,70.6,4.7,19.7,9.1,41,9.1,44.7s.5,2,1.3.7c.8-1.4,1.2-7.3,1.2-18.5s-.3-17.7-2.7-27c-4-15.7-9.1-30.4-17.5-49.9-6.9-16.2-11.4-25.6-9.8-20.6h0Z"/>
            <path d="M194,306.1c-9.9,23.2-17.1,44.4-19.9,59.1-2.3,12.1-2.7,27.6-.9,35.9l1.1,5.3,2.4-13c2.4-13.7,16.8-72.3,22.8-93.4,2-6.8,3.4-12.6,3.2-12.8s-4.1,8.3-8.7,18.9h0Z"/>
            <path d="M107.2,291c-4.4,7.2-9,23.3-9.8,35.1-.9,11.4.5,20.5,7.8,49.3,10.8,43.4,15.2,54.5,19.4,48.9,4.5-6.2,6.9-38.3,4.3-59.8-1.3-11.6-5.3-27.4-12.7-50.5-3.2-10.2-6.3-20-6.8-21.8-.9-3.1-1-3.2-2.2-1.2Z"/>
            <path d="M206.5,293.1c-.4,1.8-3.6,12.3-7.2,23.3-8.2,25.5-10.8,36.5-12.4,51.2-2.5,24.4,1.4,58.3,6.7,58.3s5.7-7.8,8.7-18c4-13.3,13.3-50.5,15.2-60.9,3.1-16.8.8-35.6-6.2-51.4-1.4-3.1-2.9-5.7-3.4-5.7s-1.1,1.5-1.4,3.2h0Z"/>
            <path d="M95.8,355.1c0,1.3,0,6.4.4,11.4,2,24.5,4.2,36.3,8.1,44,1.1,2.2,3.2,7.1,4.7,11,3.1,8.5,5.4,9.3,5.8,2.1s-.8-8.2-4.2-18.5c-5-15.3-7.5-24.8-10.6-40.1-2.1-10.7-3.6-14.1-4.2-9.9Z"/>
            <path d="M218.2,355.6c-.6,1.5-1.6,5.9-2.2,9.8-1.9,11.3-5.8,26-10.6,40.3-3.3,9.9-4.4,14.6-4.2,18,.4,6.3,2.6,6.2,5.1-.3,1.1-2.8,3.5-8.4,5.3-12.5,4-9.1,6.9-23.9,8.3-41.9,1-13.8.4-18.8-1.7-13.4h0Z"/>
            <path d="M182.5,380.6c-2.2,5.2-4.3,13.9-5.1,20.8-.7,5.9,1.3,28.4,2.6,29.9,1.4,1.6,4.8-1.2,6-4.9.9-2.8.9-5.8-.1-13.7-.7-5.6-1.3-15.9-1.3-22.9-.1-7.1-.2-12.8-.3-12.8-.2,0-1,1.6-1.8,3.6h0Z"/>
            <path d="M132,387.7c0,5.3-.7,15.5-1.5,22.5-.8,7.1-1.2,13.9-.9,15.2.8,3.3,5.1,7.2,6.5,5.8s2.4-12.4,2.3-25.8c-.1-9-.6-12.5-2.8-19.3-1.5-4.5-2.9-8.2-3.1-8.2-.3,0-.5,4.4-.5,9.8Z"/>
          </g>
          <g id="tibialis">
            <path d="M106.5,446c-.4.6-.8,11.8-.8,24.8-.2,23.4.6,34,3.9,52.2,2.4,13.4,10.4,37,12.5,37s1-21.6-.6-34.3c-1.8-13.2-13.2-79.8-13.9-80.4-.2-.2-.7.1-1.1.7h0Z"/>
            <path d="M208,445.1c-.1.8-5.3,32-8.4,49.8-4.9,28.4-6.6,42.4-6.6,54.6s1.3,14.1,6.8-2.1c6.2-18,9-33.5,10.8-59.1.8-11.9-.4-43.4-1.7-43.4s-.9.1-.9.2h0Z"/>
            <path d="M102.5,464.6c-1.4,5.6-2.2,29-1.4,44.7.7,15.8,1.3,19.1,7.9,48.1,1.2,4.9,2,10.6,2,12.5-.3,5.9-.2,6.4,1.4,5.1,2.3-1.9,3.9-9.7,3.3-15.4-.4-2.8-2.2-11.5-4.1-19.2-7.2-29.5-8.1-36-7.9-58.3,0-11.1,0-20.2-.2-20.2s-.6,1.2-1,2.7h0Z"/>
            <path d="M212.7,479.6c.6,19.3-.5,28.2-7.9,59.4-4.7,19.7-5.3,28.5-2.4,33.8.9,1.9,2,3.1,2.3,2.8s.7-3.4.8-6.8c.1-3.5,1.4-11.3,2.9-17.3,5.1-21,5.6-24.1,6.7-41.4.9-12.8.9-20.9.1-31.4-1.7-20.4-3.3-19.8-2.5.9h0Z"/>
            <path d="M127.6,482.1c-2.7,5.6-5.1,12-5.3,14.2-.2,2.3.5,13.8,1.6,25.5,1.2,11.7,2.1,23.4,2.1,25.9,0,6.9,1.4,4.4,4.5-7.7,1.4-5.8,3.7-14.1,5.1-18.5,2.2-6.8,2.5-9.2,2.1-16.5-.7-10.5-3.8-33-4.6-33s-2.8,4.6-5.5,10.1h0Z"/>
            <path d="M182.6,473.1c-1.4,4.4-4,25.8-4,33.9-.1,7.8.4,11,2.6,17.5,1.5,4.4,3.6,11.8,4.8,16.5,1.1,4.7,2.3,9.2,2.7,10,.6,1.6,5.1-43,5.2-52,.1-4.7-.7-7.1-5.4-16.5s-5.6-10.2-5.9-9.4h0Z"/>
          </g>
        </g>
      </g>
    </g>
  </g>
</svg>