<?xml version="1.0" encoding="UTF-8"?>
<svg id="Layer_2" xmlns="http://www.w3.org/2000/svg" viewBox="0 0 315.92 632.17">
  <defs>
    <style>
      .cls-1 {
        fill: #777;
      }
    </style>
  </defs>
  <g id="both">
    <g id="back">
      <g id="head">
        <path class="cls-1" d="M152.46.35c-10.2.9-17.6,4.7-20.4,10.5-3.8,7.8-3.9,24.9-.2,28.1,7.4,6.2,9.5,8.5,11.5,12.4l2.4,4.5,11.5.3,11.6.3,2.1-3c1.2-1.6,2.1-3.2,2.1-3.7,0-1.8,5.2-7.3,8.3-8.7,3.1-1.5,3.5-2.2,4.6-8.6.9-4.9,1-8.4.2-12.2-2-10.8-5.1-15.1-13.1-17.8-7.2-2.4-11.9-2.9-20.6-2.1h0Z"/>
      </g>
      <g id="trapezius-2">
        <path class="cls-1" d="M146.46,62.25c-.6.4-1.5,4.1-1.9,8.2s-1.7,10.2-2.8,13.5c-2.1,5.6-2.6,6.2-8.4,9.5-3.4,1.9-6.3,3.8-6.3,4.1,0,2.3,25.8,1.8,26.5-.5.2-.6.5-8.2.8-16.9.3-12.8,0-16.2-1-17.3s-5.1-1.8-6.9-.6h0Z"/>
        <path class="cls-1" d="M162.36,62.05c-1,.3-1.3,4.7-1.3,17.1s.4,17.2.8,17.8c1,1.6,15.4,2.6,22.2,1.6l5.5-.8-3.2-1.9c-1.7-1.1-4.5-2.7-6.2-3.7-1.6-.9-3.6-2.7-4.5-4-2.2-3.4-4.6-13.4-4.6-19.5s-.4-5.4-1.9-6.3c-2.1-1-4.7-1.2-6.8-.3h0Z"/>
        <path class="cls-1" d="M121.66,102.45c-2.2.5-4.1,1.1-4.3,1.3-.2,0,1,3.2,2.6,6.8,1.7,3.6,5.3,14.1,8.2,23.4,5.6,18.5,8.4,25.2,15.8,38.3,2.6,4.7,5.7,10.8,6.7,13.6l1.9,5,.6-5c.4-2.8,1.3-16.3,2-30,1.4-26.9.5-42.4-2.6-47.1-2.7-4.1-8.4-6.3-18.1-6.8-4.9-.3-10.7,0-12.8.5h0Z"/>
        <path class="cls-1" d="M174.86,102.35c-6.3,1.1-11.3,4.3-12.9,8.3-1.9,4.8-2.3,35.3-.9,58.9.7,11.5,1.6,20.8,2,20.8s1.2-1.9,1.9-4.3c.7-2.3,3.4-8,6.1-12.7,7.2-12.8,9.5-17.7,12.3-26.5,8.9-28.1,11.1-34.5,13.3-38.4,1.3-2.4,2.3-4.6,2.1-4.7-.2-.2-2.7-.8-5.7-1.4-6-1.1-11.4-1.1-18.2,0h0Z"/>
      </g>
      <g id="deltoid-2">
        <path class="cls-1" d="M85.96,110.75c-5.1,3.1-9.3,6.9-11.5,10.2s-2,5.4-2.4,17.2c-.3,9.2-.1,14.3.5,14.3,2,0,11.1-5.9,14.3-9.2,2.6-2.7,3.5-4.8,4.3-9.9,1.3-8,3.6-11.8,10.1-16.5l5.1-3.6-3.9-2.4c-5.1-3.1-11.6-3.2-16.5,0h0v-.1Z"/>
        <path class="cls-1" d="M214.06,110.25c-4.3,2.3-4.8,3.7-1.8,5.3,7.1,3.6,12.8,12.8,12.8,20.7s1.1,4,2.4,5.7c2.6,3.3,10.4,8.8,14.4,10,1.5.4,2.2-3.6,2.2-11.9,0-14.7-1.5-19.3-8.4-25.2-7.5-6.6-14.9-8.1-21.6-4.6h0Z"/>
      </g>
      <g id="teres_x5F_minor">
        <path class="cls-1" d="M109.86,117.35c-8.1,3.4-13.8,6.9-13.8,8.3s1.6,4.1,3.6,7.8c3.9,7.5,8,11,18.6,16,9.4,4.5,12.7,3.8,10.6-2-.5-1.4-2.5-8.8-4.4-16.5-3.5-13.9-4.6-16.5-6.8-16.5s-4.1,1.3-7.8,2.9h0Z"/>
        <path class="cls-1" d="M195.06,116.65c-1,2.4-7.9,28.4-8.7,33-.5,2.5-.2,2.8,2.3,2.8s17.8-7.1,21.6-10.7c2.4-2.3,9.8-15,9.8-16.8s-20.2-10.5-22.3-10.5-2.2,1-2.7,2.2h0Z"/>
      </g>
      <g id="teres_x5F_major">
        <path class="cls-1" d="M93.76,134.15c-1.4,1.3-.6,10.9,1.2,14.9,1,2.3,3.6,5.4,5.7,7,3.3,2.6,4.6,2.9,10.8,2.9,11.3,0,18.6-4.5,9.9-6.1-8.3-1.5-20.5-10-23.9-16.6-1.5-2.8-2.5-3.4-3.7-2.1h0Z"/>
        <path class="cls-1" d="M217.56,137.15c-2.9,5.3-12.3,12.3-20.1,14.8-3.6,1.2-6.6,2.5-6.6,3.1-.2,2.7,11,5.2,17.7,4,4.5-.9,11.1-6.7,12.4-10.9,1.8-5.9,2.2-10.7,1.1-12.7-1.5-2.8-2.2-2.5-4.5,1.7h0Z"/>
      </g>
      <g id="latissimus_x5F_dorsi">
        <path class="cls-1" d="M129.46,156.45c-1,1.1-2.7,2.9-3.7,3.9-4.2,4.3-16.7,5.1-24.1,1.5-1.6-.8-3.1-1.4-3.4-1.4-1.2,0,1.1,8.7,3.8,13.9,1.9,3.8,3.2,8.7,4,14.2.6,4.6,1.7,10.9,2.5,13.9s2.3,11.1,3.5,18c2.2,12.7,4,17.2,9.6,23.9,1.4,1.7,3,3.1,3.4,3.1s1.6-2.1,2.6-4.8c.9-2.6,4.9-12.6,8.7-22.2,8-20.1,11.7-30.6,11.7-33s-1.1-3.3-2.4-5.2-4.7-8.8-7.6-15.2c-3-6.4-5.6-11.9-6-12.1s-1.6.5-2.6,1.5h0Z"/>
        <path class="cls-1" d="M178.66,164.45c-2.5,5.5-4.6,10.3-4.6,10.8s-1.4,2.7-3,5.2c-4.7,7.1-4.6,7.6,8.3,40,4.7,11.9,8.9,22.8,9.2,24.3.9,3.4,1.8,3.4,5-.1,5.5-5.7,7.5-10.6,10-24.3,1.3-7.4,3-16.3,3.8-19.9.9-3.6,1.8-9.2,2.2-12.5s2.2-9.4,4-13.5c2.9-6.5,4-10.6,3.6-13.2,0-.4-1.6-.1-3.3.7-10.2,4.2-21.3,2.4-26.3-4.1-1.4-1.8-3-3.4-3.4-3.4s-2.9,4.5-5.5,10Z"/>
      </g>
      <g id="triceps_x5F_brachill">
        <path class="cls-1" d="M84.86,147.95c-8.7,7.3-11.8,12.8-11.8,21.1s1.8,12.8,6.2,7.5c1.3-1.6,4.9-4.8,8.1-7.2l5.8-4.3-.7-5.4c-.3-3-1.2-7.7-1.8-10.5l-1.1-5-4.7,3.8h0Z"/>
        <path class="cls-1" d="M225.66,145.45c-1,2.7-3.3,18.4-2.9,19.4s2.7,2.6,5.5,4.5c2.7,1.9,6.4,5.1,8.1,7.2,2.8,3.5,3.2,3.7,4.6,2.3,1.1-1,1.5-3.6,1.5-8.7,0-8.7-2-13.2-8.6-19.4-6.7-6.2-7.7-6.9-8.2-5.3h0Z"/>
        <path class="cls-1" d="M85.56,174.45l-7.3,7.4-.7,7.5c-.4,4.1-1.3,10.4-2.1,14s-1.4,9.4-1.4,12.9v6.5l3.1-3c3.6-3.3,5.9-8.1,5.9-12.2s1.3-4.6,3-6.8c6-8.2,11.4-30.8,7.9-32.9-.6-.4-4.3,2.6-8.4,6.6h0Z"/>
        <path class="cls-1" d="M220.66,169.65c-.3,1.3-.6,3.3-.6,4.4,0,4.2,6.1,22,8.9,25.9,1.6,2.2,3.2,6,3.6,8.5.8,4.8,3.2,9.5,6.4,12.4,2,1.8,2,1.7,2.7-1,.4-1.7-.2-8.9-1.5-17.4-1.3-8-2.5-16.1-2.8-18-.3-2.8-1.9-4.9-7.6-10.3-3.9-3.7-7.4-6.7-7.8-6.7s-.9,1-1.3,2.2h0Z"/>
        <path class="cls-1" d="M66.66,182.15c-2.6,11.2-3.2,28.2-1.3,30.8.9,1.1,1.7,1.8,2,1.5,1.2-1.4,7.7-21.5,7.7-24s-4.8-16-6-16-1.5,3.5-2.4,7.7h0Z"/>
        <path class="cls-1" d="M243.76,179.45c-3.6,8.2-4,11-2.2,16.6,3.4,10.2,6.7,18.4,7.5,18.4s1.4-1.6,2-3.6c1.4-4.2.8-14.5-1.7-26.3-2.2-11.1-2.7-11.6-5.6-5.1h0Z"/>
      </g>
      <g id="thoracolumbar_x5F_fascia">
        <path class="cls-1" d="M146.06,205.15c-8.9,18.7-18.6,44.4-19.2,50.8-.3,2.8.4,3.5,12.2,11.2l12.5,8.2.9-2.7c3-9.7.9-74.2-2.4-74.2s-2.3,3-4,6.7h0Z"/>
        <path class="cls-1" d="M164.66,200.15c-2.6,8.8-4.2,46.4-2.6,62.2.6,6.3,1.3,11.8,1.6,12.2.2.4,6.1-2.8,12.9-7.3,10.1-6.5,12.5-8.5,12.5-10.4,0-4.6-10.2-31.7-19.6-52.1-3.1-6.6-3.9-7.4-4.8-4.6h0Z"/>
      </g>
      <g id="medial_x5F_head">
        <path class="cls-1" d="M61.46,225.65c.5,12,1.1,14.8,3.1,14.8s4.4-5.8,5.1-11.2c.6-4,.3-4.7-3.6-9.6-2.3-2.8-4.4-5.2-4.6-5.2s-.2,5.1,0,11.2h0Z"/>
        <path class="cls-1" d="M249.86,218.95c-3.2,3.8-3.8,5.3-3.8,9.2s2.6,11.3,4.7,12c.7.2,1.7-.7,2.2-2,1-2.6,2-23.8,1.1-23.7-.3,0-2.2,2.1-4.2,4.5Z"/>
      </g>
      <g id="flexor_x5F_carpi_x5F_ulnaris-2">
        <path class="cls-1" d="M52.16,232.15c-3.8,29.9-8.5,58.5-10.7,65.7-.4,1.3-.2,1.6.6,1.1,1.8-1.1,13.4-25.4,16-33.6,2-6.1,2.2-8.4,1.7-17.8-.5-9.8-3.3-22-5.6-24.4-.4-.4-1.3,3.7-2,9h0Z"/>
        <path class="cls-1" d="M259.86,226.65c-2.4,5.9-3.7,12.2-4.4,21.9-.5,7.2-.3,9.3,2,16.3,1.4,4.4,5.5,14,9,21.2,6.5,13.3,9.6,17.2,7.1,9-1.7-5.6-5.9-30.8-8.9-53.6-1.4-10.1-2.6-18.5-2.8-18.6-.2-.2-1.1,1.5-2,3.8h0Z"/>
      </g>
      <g id="extensor_x5F_carpi_x5F_ulnaris-2">
        <path class="cls-1" d="M47.66,230.45c-.3,1.3-1.7,9.4-3.1,17.9-3.5,21.1-5.2,29.9-8.1,40.4-1.4,4.8-2.3,9-2,9.3,1.2,1.2,5.7-8,8-16.2,4-14.3,8.6-50.9,6.7-52.8s-1.2-.2-1.5,1.4h0Z"/>
        <path class="cls-1" d="M266.36,237.65c1,15.5,4.7,38.9,7.3,46.8,2.3,6.9,7.1,15.6,8.1,14.6s-.5-3.2-1.6-6.6c-2.4-7.2-5.8-23.8-9.7-47.3-1.6-9.2-3.2-16.7-3.8-16.7s-.7,3.7-.3,9.2h0Z"/>
      </g>
      <g id="brachioradialis-2">
        <path class="cls-1" d="M74.96,232.15c-3.5.4-5.1,3.5-11.9,23.7-5.7,16.6-12.3,33.8-13.9,36-.5.5-1.1,1.9-1.4,3l-.7,2,1.6-2c3.3-4.2,25.5-49.1,28.9-58.7,1.5-4.1,1.2-4.5-2.6-4h0Z"/>
        <path class="cls-1" d="M237.06,232.65c0,4,29.4,64.7,30.7,63.5.2-.3-1.2-3.9-3.1-8.1-2-4.3-6.8-17-10.7-28.4s-7.8-22-8.6-23.5c-1.8-3.6-8.3-6.3-8.3-3.5h0Z"/>
      </g>
      <g id="external_x5F_oblique-3">
        <path class="cls-1" d="M110.16,241.95c-1.1,1.4-2.3,4.6-2.7,7.1-.6,4.3.1,19.1,1,20.1.3.2,2.1-1.4,4.1-3.7,2-2.2,5.6-5.2,8.1-6.6,2.5-1.5,4.4-3.3,4.4-4.3,0-3.3-9.1-15.2-11.6-15.2s-2.2,1.2-3.3,2.6h0Z"/>
        <path class="cls-1" d="M196.26,244.65c-7.6,10.2-7.6,10.6.3,15.3,2.4,1.4,5.7,4.1,7.3,6.1,2.8,3.3,3,3.5,3.7,1.6.3-1.2.6-6.1.7-11,0-6.9-.4-9.9-1.8-12.8-2.9-5.9-5.4-5.7-10.2.8h0Z"/>
      </g>
      <g id="gluteus_x5F_medius">
        <path class="cls-1" d="M114.66,268.05c-3.3,3.3-8.1,13.1-9.2,18.9l-.7,3.9,4.9-3.6c13-9.4,17.4-12,23.6-13.9,3.7-1.2,6.8-2.4,6.8-2.9,0-1.8-8-4.4-15-4.8-7.2-.4-7.6-.3-10.4,2.4h0Z"/>
        <path class="cls-1" d="M181.56,267.05c-7.1,2.6-7.3,3.8-.8,5.8,7.6,2.4,9.9,3.6,19.8,10.7,4.6,3.2,8.8,5.9,9.4,5.9,2.5,0-4.2-16.5-8.7-21.3-2.3-2.4-3.2-2.7-9.1-2.6-3.6,0-8.4.7-10.6,1.5h0Z"/>
      </g>
      <g id="gluteus_x5F_maximus">
        <path class="cls-1" d="M133.56,276.65c-10.1,4.1-22.7,12.6-26.4,17.8-1.6,2.2-3.2,5.6-3.6,7.7-1.4,8.8,4,22.9,12.6,32.5,4.5,5.1,5.7,5.8,13.3,8.2,16.1,4.9,22.6,2.7,22.6-7.5s.9-9.8,2.1-15.3c1.6-7.8,2-12.9,1.7-21.7-.3-10.3-.6-12-3-16-3.6-6.2-6.5-9-9.1-9s-5.8,1.5-10.2,3.3h0Z"/>
        <path class="cls-1" d="M166.36,277.05c-6.3,8-6.8,9.8-6.7,23.4,0,8.9.7,15.4,2.2,22.7,1.2,5.6,2.2,12.2,2.2,14.7,0,4,.3,4.7,3,6.1,3.6,1.9,9.6,1.9,15.2.1,2.4-.8,5.8-1.7,7.6-2.1,6.2-1.3,16.4-13.9,20.2-24.9,2.4-6.9,2.6-15.5.5-19.5-3.9-7.7-27.1-22.4-37.4-23.8-3.4-.5-4-.2-6.8,3.3h0Z"/>
      </g>
      <g id="vastus_x5F_lateralis-2">
        <path class="cls-1" d="M96.06,339.15c0,24.5,3.3,60.4,6.6,71.9.9,2.9,1.7,5.3,1.8,5.3.2,0,.3-5.7.2-12.8,0-7,.3-19.9.8-28.7.7-13.2.6-17.6-.8-25.2-1.6-9.4-6.1-22.3-7.7-22.3s-.9,5.3-.9,11.8h0Z"/>
        <path class="cls-1" d="M214.26,336.55c-4.3,13.2-5.6,27.4-4.2,44.2.7,7.2,1,17.9.8,23.9,0,5.9,0,10.7.3,10.7,1.2,0,3.9-13,5.4-25.7,1.7-14.8,3.5-51.8,2.8-58.1-.3-2.3-.9-4.2-1.3-4.2s-2.1,4.2-3.8,9.2Z"/>
      </g>
      <g id="biceps_x5F_femoris">
        <path class="cls-1" d="M111.96,338.45c-1,1.9-1.5,11.5-2.1,40.8-.5,29.7-1.2,41.4-2.7,52-2.9,20.4-3.3,24.2-2.7,24.2.9,0,6.4-11.4,9.1-18.8,3.9-10.8,8.2-27.2,8.9-33.7.4-3.3,1.1-15.7,1.6-27.5l.9-21.5-2.4-5.1c-1.4-2.7-4-6.8-5.8-8.9l-3.4-3.9-1.4,2.4h0Z"/>
        <path class="cls-1" d="M197.36,341.65c-3.9,5.2-7.3,12.9-6.7,15.4.2,1,.8,12.4,1.4,25.3,1,24.4,1.9,29.8,8.1,49,4.3,13.1,13.3,30.3,11.5,21.7-.3-1.2-1.3-7.6-2.2-14.2s-1.9-12.4-2.2-12.9c-.3-.6-.9-19.5-1.2-42-.8-49.1-1.4-51.9-8.7-42.3h0Z"/>
      </g>
      <g id="hand-2">
        <path class="cls-1" d="M26.46,306.15c-6.3,4.1-9.4,8.6-9.4,13.8s11.7,14.2,20.5,15.1c6.3.7,9-2,10.5-10.5.6-3.8,1-9.2.8-12.2-.3-4.9-.6-5.6-3.5-7.2-1.7-1-5.3-2.1-8-2.4-4.4-.5-5.3-.2-10.9,3.4h0Z"/>
        <path class="cls-1" d="M274.56,303.35c-4.5,1.1-7.5,3.3-8.2,6.1-.8,3,1.4,18.5,3,22,2.7,5.6,11.6,4.9,21.5-1.6,8.8-5.8,9.8-12.9,2.9-20.2-5.7-6-12-8-19.2-6.3Z"/>
        <path class="cls-1" d="M10.56,316.45c-2.5,3.3-5.9,6.7-7.6,7.5-2.6,1.4-3.8,4.3-2.3,5.7,1.1,1.2,5.4-.8,8.8-3.9,3.2-3.1,8.5-15.3,6.5-15.3s-2.9,2.7-5.4,6h0Z"/>
        <path class="cls-1" d="M299.36,311.55c.3.9,1.1,3.5,1.7,5.7,1.2,4.7,5.1,9.6,9.2,11.7,6.4,3.3,7.9-1.1,1.8-5.2-2.2-1.5-4.9-4.1-5.9-5.8-2.5-3.9-7.7-8.9-6.8-6.4h0Z"/>
        <path class="cls-1" d="M10.76,339.55c-6.3,11.8-7.6,15.3-5.6,14.6,1.4-.5,2.8-2.2,12.3-15.3,4.7-6.4,4.8-6.9,3.1-8.1-1-.8-2.4-1.4-3.1-1.4s-3.7,4.6-6.7,10.2h0Z"/>
        <path class="cls-1" d="M295.36,330.05c-1.5.6-1.7,3.9-.4,4.8.6.3,4,4.8,7.6,10s7,9.5,7.5,9.5c1.6,0,1.1-3.3-1-7-1-1.9-3.6-6.8-5.7-10.8-3.6-6.8-4.8-7.8-8-6.5h0Z"/>
        <path class="cls-1" d="M21.66,337.95c-.9,2.1-1.6,4-1.6,4.4s-1.6,4.8-3.5,9.9c-3.9,10.3-4.1,11.2-2.1,11.2s3.5-2.2,8.7-14.3c5-11.4,5.6-13.7,4-13.7s-1.6-.3-2.5-.6c-1-.4-2,.5-3,3.1Z"/>
        <path class="cls-1" d="M288.76,335.05c-2.2.6-2.2.7,3.2,13.3,5.6,13,6.4,14.4,8.4,14.8,2.6.5,2.2-2-2.4-14.3-5.5-15.1-5.3-14.8-9.2-13.8Z"/>
        <path class="cls-1" d="M40.56,337.45c-1.8,2.9-1.3,19,.5,19s1.8-2.5,2.5-11.8c.5-6.8.3-8.2-.9-8.2s-1.8.4-2.1,1Z"/>
        <path class="cls-1" d="M272.06,345.85c.3,5.2.9,9.8,1.3,10.2,1.5,1.5,2.2-1.1,2.6-9.3.2-6.4,0-8.8-1-9.4-3.1-1.9-3.4-.9-2.9,8.5h0Z"/>
        <path class="cls-1" d="M30.06,338.55c0,.7-.7,5.8-1.5,11.2-1.9,12.5-1.9,14.6,0,14.6s1.5-.2,1.5-.4,1.1-5.8,2.5-12.4,2.5-12.6,2.5-13.1-1.1-1.1-2.5-1.1-2.5.6-2.5,1.2h0Z"/>
        <path class="cls-1" d="M280.86,337.95c-1,1.1,4.5,25.7,5.9,26.2.8.3,1.6.3,1.9,0,.5-.5-1.6-16.2-3.2-24-.5-2.5-3.1-3.7-4.6-2.2h0Z"/>
      </g>
      <g id="adductor_x5F_magnus-2">
        <path class="cls-1" d="M141.06,349.35c-2.5.3-4.5,1-4.5,1.6s1.3,3.4,2.8,6.3c4.2,8,6,16.5,5.4,24.7-.5,5.3-.4,6.4.4,4.5,1.9-4.6,5.8-22,6.5-28.9.6-6.3.5-7-1.4-8-1.1-.6-2.7-1-3.4-.9-.7,0-3.3.4-5.8.7h0Z"/>
        <path class="cls-1" d="M166.46,349.05c-2.9.5-3.3,2.6-2.2,10.4,1,7.8,5.7,27.7,6.6,28.3.4.2.7-4.5.7-10.4,0-10.7,0-10.9,4.2-19,2.6-5.2,3.7-8.2,3-8.5-2.3-.7-10.2-1.2-12.3-.8Z"/>
      </g>
      <g id="semitendinosus">
        <path class="cls-1" d="M129.16,356.05c-3.4,8.3-6.6,79.8-4.1,91.7,1.6,8,2.5,6,4.5-9.5,2.8-22.5,5.7-39.3,7.8-45.9,2.3-7.3,2.6-16.8.8-24-1.4-5.1-6.1-15-7.1-15s-1.3,1.2-1.9,2.7h0Z"/>
        <path class="cls-1" d="M181.76,357.55c-3.1,5.3-5.7,15.4-5.7,22.5s.9,8,1.9,11.5c2.6,8.5,4.6,19.8,7.1,39.9,2.3,18.1,2.8,21,4,21,3.5,0,3.5-42,0-79-1.4-14.2-1.8-16.3-3.4-18.5-1.2-1.7-1.5-1.5-3.9,2.6h0Z"/>
      </g>
      <g id="semimembranosus">
        <path class="cls-1" d="M140.76,391.55c-.3,2.3-1.7,9.2-3.2,15.3-1.8,7.5-2.9,15.9-3.5,26.5-.5,8.5-1.2,18.2-1.6,21.5-.3,3.3-.3,5.7,0,5.4,1.2-1.1,3.7-16.4,4.7-28.9.5-6.9,2.1-17.1,3.4-22.7,2.6-10.5,3.1-17.8,1.6-20.1-.5-.9-1,.1-1.4,3h0Z"/>
        <path class="cls-1" d="M172.66,391.55c-.5,3.5,0,7.2,1.9,15,1.4,5.7,3,15.6,3.5,21.9,2.3,28,5,36.6,4.3,14-.5-16.2-1.9-25.9-7.2-48l-1.7-7.5-.8,4.6Z"/>
      </g>
      <g id="gastrocneus">
        <path class="cls-1" d="M198.36,452.45c.4,4.7,1,24.4,1.3,43.9.7,32.9.9,35.6,2.6,37.3s3,1.8,4.6,1.6c2.3-.3,3-1.1,4.4-5.5,3.2-9.5,4.1-19,3.5-37.3-.7-23.8-2.6-30.2-12.3-42.5l-4.7-6,.6,8.5h0Z"/>
        <path class="cls-1" d="M111.26,452.55c-5.9,8.1-8.5,15.4-10.3,28.5-2.6,18.3.3,45.9,4.7,52,1.8,2.9,5.5,3,8,.2,1.8-2,1.9-4.7,2.6-43.9.3-23.1.9-42.4,1.3-42.9.3-.6.2-1.1-.3-1.1s-3.2,3.2-6,7.2h0Z"/>
        <path class="cls-1" d="M120.96,447.95c0,1.6-.2,21.4-.3,43.9,0,29.3.2,41.3,1,42.5,2.8,3.7,10.5-4.7,14-15.2s1.6-7.4,1.1-18.1c-.8-16-3.4-29-7.7-37.6-1.7-3.6-4.2-9.2-5.5-12.5-2.1-5.2-2.4-5.6-2.6-3h0Z"/>
        <path class="cls-1" d="M193.36,447.05c-.3,1-2.8,6.8-5.4,12.9-2.7,6.1-5.5,14-6.3,17.5-2.2,9.6-3.9,28.3-3.3,34.6,1.1,10.5,9.9,24.3,14.5,22.9,2.7-.9,3-4.6,2-23-.4-8.3-.5-26.7,0-40.9.6-23.6.3-28.7-1.4-24h-.1Z"/>
      </g>
      <g id="soleus">
        <path class="cls-1" d="M106.56,542.75c-1.3,2.1-1.3,2.9.5,8.3,1,3.2,3.1,14.7,4.5,25.4,2.7,20.5,4.4,30.5,5.1,29.7,1.6-1.6,2.2-13.8,1.4-29.4-1.4-27.4-2-32.3-4.1-34.4s-5.5-2.4-7.4.4Z"/>
        <path class="cls-1" d="M202.36,541.55c-2.5,1.2-2.9,3.2-4.3,24.3-1.6,22.2-1.1,39.5,1,39.5s2.1-7.3,5.5-32.1c1.3-10.2,3.2-20.5,4-22.9,2-5.6,1.9-7.7-.4-9-2.3-1.2-2.9-1.2-5.8.2Z"/>
        <path class="cls-1" d="M120.46,548.05c-.7,5.7,0,38,1.3,50.9l.6,7,2.3-15c1.2-8.3,2.7-17.7,3.3-21,.5-3.3,1.3-10,1.7-14.8.7-9.9-.5-12.7-5.7-12.7s-2.8.3-3.5,5.6h0Z"/>
        <path class="cls-1" d="M187.06,543.85c-1.6,2-.7,23,1.4,32,.8,3.3,1.9,10,2.5,15,1.9,14.2,2.4,15,3.2,4.5.9-12.2,1.1-49.4.3-51.4-.8-2.1-5.8-2.1-7.4,0h0v-.1Z"/>
      </g>
      <g id="foot-2">
        <path class="cls-1" d="M109.26,603.85c0,6,.3,12.3.7,14,.6,3,.7,3,7.7,3.3,9.4.4,9.6,0,10.2-14.1.4-11.4-.3-13.5-1.9-5.1-1.1,5.7-3.3,8.4-6.9,8.4s-4.5-1.3-5.9-8.1c-.7-3.1-1.8-6.5-2.6-7.5-1.3-1.7-1.4-.6-1.3,9.1h0Z"/>
        <path class="cls-1" d="M204.26,595.05c-.6,1-1.3,3.8-1.7,6.3-.9,5.8-3,9-5.8,9s-5.8-2.3-6.8-7.5c-.5-2.7-1.4-5.4-2-6-1.4-1.3-.3,19.9,1.2,22.6.8,1.6,2.2,1.9,8.4,1.9h7.4l.5-3.3c1-6.3,1.4-24.7.5-24.7s-1.2.8-1.7,1.7h0Z"/>
        <path class="cls-1" d="M96.66,624.25c-1.7,2.8,12.2,7,24.6,7.5,6.1.2,6.3,0,6.6-2.3.5-5.1-.6-5.5-16.2-5.8-8.5-.2-14.6,0-15,.6h0Z"/>
        <path class="cls-1" d="M190.86,624.05c-1.8.5-3.4,5.6-2.2,7.4,1.4,2.3,23.9-1.4,28.9-4.7,1.4-.9,2.2-2,1.9-2.5-.5-.9-25.3-1.1-28.6-.2h0Z"/>
      </g>
    </g>
  </g>
</svg>