<?xml version="1.0" encoding="UTF-8"?>
<svg xmlns="http://www.w3.org/2000/svg" version="1.1" viewBox="0 0 681.9 632.2">
  <defs>
    <style>
      .cls-1 {
        fill: #777;
      }
    </style>
  </defs>
  <!-- Generator: Adobe Illustrator 28.6.0, SVG Export Plug-In . SVG Version: 1.2.0 Build 709)  -->
  <g>
    <g id="both">
      <g id="front">
        <path class="cls-1" d="M143,2.3c-12,4.2-15.7,15.7-12,36.8.8,4.6,1.8,8.3,2.2,8.3s.8-3.3.8-7.3.5-8,2-10.5c1.1-1.8,2.3-5.3,2.6-7.7.4-2.3.9-4.8,1.3-5.4.9-1.4,21.8-2.4,30-1.4l6.4.8,1.2,5.5c.6,3,1.9,6.9,2.8,8.7,1.1,2,1.7,5.5,1.7,9.5s.4,6.9.8,7.5c1.2,1.9,3.7-14.1,3.6-23.2-.2-17-8.2-23.5-28.8-23.5s-10.8.7-14.6,1.9Z"/>
        <path class="cls-1" d="M147.8,76.1c.6.3,1.2.9,1.2,1.4,0,2.1,8.4,20.9,9.2,20.7.6-.2,2.2-3.5,3.7-7.3,1.5-3.9,3.7-8.8,4.7-11.1l2-4h-11c-6.1,0-10.5,0-9.8.3h0Z"/>
        <g id="sternocleidomastoid">
          <path class="cls-1" d="M141,78.3c0,4.3.8,8.6,2.5,13.2,3.1,8.7,8.2,18.9,9.5,18.9s2.3-4.6,1.5-8.8c-1-5.7-8.4-23.3-11.1-26.7l-2.4-3v6.4Z"/>
          <path class="cls-1" d="M172.3,75.3c-7.8,12.6-13.8,35-9.3,35s4.8-6.3,8.5-15.9c3.1-7.9,3.5-10.2,3.3-15.9l-.3-6.7-2.2,3.5h0Z"/>
          <path class="cls-1" d="M175.1,92.3c-.1.7-1.9,5.1-4,9.7-2.2,4.6-3.5,8.4-2.9,8.4s2.3-.9,3.9-2.1c3.7-2.6,5.3-8,4.1-13.4-.6-2.2-1-3.4-1.1-2.6h0Z"/>
          <path class="cls-1" d="M140,97.8c0,3.2.5,6.6,1,7.7.9,1.6,5.8,4.9,7.4,4.9s-6.8-16.8-7.8-17.7c-.3-.4-.6,1.9-.6,5.1h0Z"/>
        </g>
        <g id="trapezius">
          <path class="cls-1" d="M134.5,94.4c-1.1,1.1-5.2,4.1-9.2,6.6-4.7,3-7,5-6.4,5.6s4.5,1.2,8.7,1.5c9.5.6,10.4-.2,10.4-9.5s-.6-7.5-3.5-4.2h0Z"/>
          <path class="cls-1" d="M178,97.8c0,3,.5,6.7,1,8.2,1,2.6,1.1,2.7,9.1,2.2,10.5-.6,11.4-1.7,4.7-5.8-2.9-1.8-7.2-4.8-9.5-6.6-2.3-1.9-4.4-3.4-4.7-3.4s-.6,2.4-.6,5.4h0Z"/>
        </g>
        <g id="deltoid">
          <path class="cls-1" d="M92.8,105.7c-6.8,2.6-16.7,11.7-19.2,17.9-3.5,8.3-.5,19.6,6.6,25,6,4.6,7.1,4.5,12.1-1.4,6.1-7.2,6.7-8.7,6.7-16s1.3-10.7,9.2-14.7c5.8-2.9,6.6-3.6,5.9-5.4-1.8-4.8-14.2-8-21.3-5.4h0Z"/>
          <path class="cls-1" d="M207.9,106.4c-2.6,1.1-5.1,3.1-5.7,4.3-.9,2.1-.6,2.5,5,5.1,8.2,3.9,9.8,6.2,9.8,14.2s.6,7.8,1.4,9.6c1.6,3.6,9.7,12.7,11.4,12.7s9.7-6.7,11.9-10.9c2.9-5.6,3.1-13.6.4-19-2.5-4.7-12.3-13.8-17.6-16.2-5.2-2.4-10.9-2.3-16.6.2h0Z"/>
        </g>
        <g id="pectoralis_x5F_major">
          <path class="cls-1" d="M124,112.3c-7,1.4-15,6.7-18.3,12.1-1.9,3.1-2.2,4.9-2.2,15.5s.2,12.4,2.8,17.8c1.6,3.1,4.3,6.8,6,8.1,8.8,6.5,24.6,7.5,33.3,2,7.9-4.9,8.9-8,8.9-26.9s-.8-20.5-5.9-25.7c-3.7-3.6-14.6-4.9-24.6-2.9h0Z"/>
          <path class="cls-1" d="M173.6,112.3c-5.2,1.1-9.1,5.5-11.2,12.8-2.4,8.3-1.5,30.3,1.5,35.9,3.5,6.7,11,10.4,21,10.4,18.2,0,28.2-10.8,28.2-30.5.1-14.7-2.6-19.8-13-25.4-5.1-2.7-7.4-3.3-14.3-3.6s-10.1,0-12.2.4Z"/>
        </g>
        <g id="brachialis">
          <path class="cls-1" d="M94.5,154.1c-2.3,10.1-7.1,23.9-14,39.9-5.9,13.7-6.3,15.5-4,17.4,3.8,3.1,14.4-14.6,21.1-35.3,3-9.4,3.5-12.1,3-16.7-.7-6.8-2.4-13-3.5-13s-1.7,3.5-2.6,7.7h0Z"/>
          <path class="cls-1" d="M218.2,147.9c-2.2,4.2-3.4,13.4-2.3,18.2,3.2,15,12.6,36.2,19.1,43.2,2.9,3.1,3.2,3.2,4.8,1.7,2-2.1,1.3-5-5.3-19.7-5.9-13.4-11-28-12.6-36.1-1.5-8.3-2.3-9.9-3.7-7.3h0Z"/>
        </g>
        <g id="biceps_x5F_brachii">
          <path class="cls-1" d="M77.2,158.9c-1.6,1.3-4.6,5.6-6.6,9.5-3.3,6.1-3.8,8.4-4.9,18.5-1,10.3-.9,11.7.5,13.1s2,1.5,6.2-.6c3.9-1.8,5-3.1,7.5-8.3,5.7-12.1,7.6-23.6,5-30.4-1.8-4.9-3.6-5.3-7.7-1.8Z"/>
          <path class="cls-1" d="M234.2,157.1c-2.2.8-4.2,6-4.2,10.9,0,9,5.8,25.2,10.6,29.6,2.6,2.3,7.1,3.9,9,3.1,1.5-.5,1.6-1.9,1.1-11-.8-11.8-3-19.2-7.9-26-3.6-5-6.6-7.3-8.6-6.6h0Z"/>
        </g>
        <g id="serratus_anterior">
          <path class="cls-1" d="M104.9,162.8c-1.1,5.3.8,8.5,6.5,11.2,5.3,2.5,9.6,3.1,9.6,1.4s-2-3-7.9-7.3c-2.4-1.8-5.2-3.8-6.2-4.6-1.1-.7-2-1.1-2-.7h0Z"/>
          <path class="cls-1" d="M207.4,164.9c-1.6,1.4-4.8,3.7-7.1,5.1-4.5,2.6-5.9,6.3-2.5,6.3s11.7-4.4,12.5-5.7c1.1-1.8,1.9-8.3,1-8.3s-2.3,1.2-3.9,2.6h0Z"/>
          <path class="cls-1" d="M103,172.8c0,3.3,3.5,10.8,6.1,13.2,1.8,1.7,2.1,1.6,5.6-1.2,2-1.7,3.8-3.5,4-4.1s-1.9-1.9-4.7-2.8c-2.7-.9-6.4-3-8-4.7l-3-3v2.6h0Z"/>
          <path class="cls-1" d="M209.9,173.3c-1.4,1.4-4.9,3.4-7.7,4.5-2.9,1-5.2,2.1-5.2,2.5.1,1.4,8.2,7.2,9.4,6.8,2.1-.8,6.8-11.2,6.4-14l-.3-2.4-2.6,2.6h0Z"/>
        </g>
        <g id="brachioradialis">
          <path class="cls-1" d="M60.4,206.3c-1.6,1.6-4.9,6.4-7.3,10.8-3.3,6-4.5,9.5-5.3,15.3-.6,4.1-3.2,19-5.9,33-4.9,25.7-5.7,32-3.9,32s4.4-6.2,7.9-15.8c1.6-4.2,6.3-16.3,10.4-26.7,5.5-13.8,7.9-21.1,8.6-26.8,1.7-12.3,1.3-24.7-.8-24.7s-2.1,1.3-3.7,2.9h0Z"/>
          <path class="cls-1" d="M251,205.3c-.5,1.1-1,5.1-1,8.9,0,13.7,2.3,22.1,14.7,53.1,6.5,16.2,12.4,29.6,13.1,29.9,2.2.7,1.3-7.3-3.7-32.6-2.7-13.6-5.2-27.7-5.5-31.4-.4-5.4-1.4-8.3-4.7-14.5-4.8-8.8-7.1-12.1-9.9-14-1.7-1.2-2-1.1-3,.6h0Z"/>
        </g>
        <g id="external_x5F_oblique">
          <path class="cls-1" d="M118.9,184.1c-3.4,3.2-4.8,5.2-4.4,6.3.7,1.8,8.7,7.9,10.4,7.9s1.1-3.3,1.1-9.5-.4-9.5-1.1-9.5-3.3,2.1-6,4.8Z"/>
          <path class="cls-1" d="M190.8,185.4c-.4,11.3-.3,12.3.8,12.7,1.6.5,10.4-6.6,10.4-8.4s-8.6-10.2-10.2-10.3c-.5,0-.9,2.7-1,6Z"/>
          <path class="cls-1" d="M103.6,186.9c.5,5.5,4.2,14.1,5.5,12.8s1.1-2.6,1.4-4.8c.5-3.6.2-4.4-3.4-8.5l-4-4.5.5,5Z"/>
          <path class="cls-1" d="M208.6,186.8c-3.9,4.6-4.2,6.4-2.2,11.1l1.3,3,2.2-4.3c2.1-4.1,4.1-14.2,2.8-14.2s-2.2,2-4.1,4.4Z"/>
          <path class="cls-1" d="M112.7,194.1c-.3.4-.8,2.2-1.1,3.8-.7,3.5.4,4.9,8.6,10.4,5.3,3.6,6.3,3,5.4-3.2-.5-3.3-1.4-4.7-3.9-6.3-1.8-1.1-4.4-2.8-5.9-3.8-1.4-.9-2.8-1.3-3.1-.9Z"/>
          <path class="cls-1" d="M200,194.9c-.7.8-3,2.5-5.1,3.7-2.9,1.6-3.9,2.8-4,4.7,0,1.4-.2,3.3-.4,4.2-.9,4.7,2.7,3.5,12-3.9,2.6-2.1,2.8-2.6,1.9-5.9-1-4.1-2.5-5.1-4.4-2.8h0Z"/>
          <path class="cls-1" d="M110.2,208.9c.5,5.4.8,6.1,5.2,10.1,2.7,2.4,6.1,5.2,7.7,6.4l2.9,2v-12.7l-7.2-5.4c-4-3-7.7-5.7-8.2-5.9s-.7,2.3-.4,5.5h0Z"/>
          <path class="cls-1" d="M197.3,209.1l-7.3,5.7v6.3c0,5.9.1,6.2,1.9,5.2,1.1-.5,4.7-3.6,8-6.8,5.9-5.6,6.1-5.9,6.1-11s-.3-5.2-.7-5.1c-.5,0-4.1,2.6-8,5.7h0Z"/>
          <path class="cls-1" d="M111,224.6c0,4.9,1.4,8.7,4.3,11.4,3.8,3.7,9.6,7.9,9.8,7.2.7-2,.8-12.1.2-13.1-.4-.8-3.8-4-7.5-7.1l-6.8-5.7v7.3h0Z"/>
          <path class="cls-1" d="M201.5,220.1c-1.7,1.5-4.8,4.2-7,6.1-3.8,3.3-3.9,3.6-3.8,9.4.1,3.3.4,6.1.7,6.4.7.8,6.3-2.5,9.9-6,4-3.8,5.4-8.8,4.1-14.7l-.9-3.9-3,2.7Z"/>
        </g>
        <g id="extensor_x5F_carpi_x5F_ulnaris">
          <path class="cls-1" d="M71,219.9c-.6.8-2,5.2-3,9.8-1,4.5-3.9,13-6.5,18.7-6.7,14.9-17.5,44-17.5,47v2.5l1.9-2.2c1-1.2,3.3-5.9,5.1-10.5,5.2-12.9,12.3-27.7,16.4-34.1,5.2-8.1,8.6-18.5,8.6-26.4s-.2-6.3-1.9-6.3-2.4.7-3.1,1.5h0Z"/>
          <path class="cls-1" d="M240,224.3c0,8.1,2.8,16.3,9.4,27.9,5.9,10.4,11.6,22.4,16,33.7,1.5,3.9,3.6,8.1,4.6,9.5l2,2.5v-2.5c0-3.8-10.9-33.3-17.8-48-2.2-4.7-4.7-11.9-5.6-16-2.4-10.9-3.4-13-6.2-13s-2.4.4-2.4,5.9h0Z"/>
        </g>
        <g id="tendinous_x5F_inscriptions">
          <path class="cls-1" d="M140.8,172.6c-10.3,5-10.7,5.3-11.8,10.3-1,4.3.5,18.2,2.1,19.9,1.8,1.9,23.7-11.7,24.6-15.3s-.3-16-1.7-17.7c-1.8-2.2-3.5-1.8-13.2,2.8h0Z"/>
          <path class="cls-1" d="M162.1,169.6c-.6.8-1.4,5.2-1.7,9.9-.6,7.6-.5,8.7,1.2,10.4,3.3,3.3,21.4,13.6,22.9,13.1,2.9-1.2,4.1-21.1,1.4-24.3-1.5-1.8-19.1-10.4-21.3-10.4s-1.9.6-2.5,1.3h0Z"/>
          <path class="cls-1" d="M145,199.9c-12,6.4-13.4,8-13.5,15.1v5.8l10,.3c15.4.4,14.5,1.2,14.5-12.2s-.4-11.7-1.3-12.4c-.9-.8-3.5.1-9.7,3.4h0Z"/>
          <path class="cls-1" d="M161.1,196.6c-1.5,1.5-1.5,21.9.1,23.5s5,1.2,12.5,1.2h11.3v-4.4c0-5.2-1.4-9.4-3.8-11.3-.9-.7-5.6-3.3-10.3-5.8-6.5-3.3-8.9-4.1-9.8-3.2Z"/>
          <path class="cls-1" d="M137.2,225.1c-5.2,1.2-6.3,1.9-6.8,4-.9,3.2.2,12.3,1.6,13.7s6.1,1.2,12.5,1.4l11.3.4.7-8.5c1-12.2.7-12.7-6.8-12.6-3.4.1-9,.8-12.5,1.6h0Z"/>
          <path class="cls-1" d="M160.2,233.6l.3,10.3,10.5.3c13.9.4,14.5-.1,14.5-10v-7.3l-6.5-1.7c-3.6-.9-9.3-1.6-12.8-1.7h-6.3c0-.1.3,10.1.3,10.1h0Z"/>
        </g>
        <g id="flexor_x5F_carpi_x5F_ulnaris">
          <path class="cls-1" d="M77.3,231.6c-1.6,8.3-5.6,17.8-10.4,24.9-4.7,6.9-8.3,14.6-14.5,30.5-8,20.7-3.4,14,7.1-10.2,2.9-6.9,7.2-15.6,9.4-19.4,6.5-11.3,13.5-28.2,12.4-29.9-1.9-3-2.9-2-4,4.1h0Z"/>
          <path class="cls-1" d="M235,226.9c-1.6,1.9,1.7,10.2,11.6,29,3.4,6.6,8.7,17.6,11.7,24.5,5.5,12.7,10.5,22,9.2,17-2.9-10.5-13.7-34.9-18.1-40.7-4-5.3-8.3-15.3-10.1-23.6-1-4.2-2.1-7.7-2.4-7.7s-1.2.7-1.9,1.5h0Z"/>
        </g>
        <g id="external_x5F_oblique-2">
          <path class="cls-1" d="M110.4,236.4c-.3.6-1,7.3-1.4,14.8-.5,10-.3,14.1.6,15.6.6,1.1,4.5,5.5,8.5,9.8,5.9,6.1,8,7.7,10.3,7.7s2.7-.4,2.2-1.7c-1.5-3.7-2.4-10.4-3.1-21.2-.8-13.5-1.1-14.4-5.2-17.3-1.7-1.3-4.9-3.8-7.1-5.6-2.7-2.2-4.3-2.9-4.8-2.1h0Z"/>
          <path class="cls-1" d="M203.1,236.8c-.6.7-3.8,3.3-7.1,5.7-6.7,4.9-6.1,3-8,24.4-.5,6.6-1.3,13.2-1.6,14.7-.6,2.4-.3,2.8,1.7,2.8s4.9-2.6,11.2-9.1l8.7-9.2-.5-9.1c-1.4-21.8-1.7-23.5-4.4-20.2h0Z"/>
        </g>
        <g id="recrus_x5F_abdominis">
          <path class="cls-1" d="M131,249.8c0,9.6,5.2,38,8.7,47.6,3.2,8.7,8.9,15.4,13.8,16.2,1.9.3,2-.5,2.9-31.1.7-28.4.7-31.5-.8-33-1.3-1.2-4.2-1.7-13.1-1.9l-11.5-.4v2.6h0Z"/>
          <path class="cls-1" d="M162,248.6c-1.4.7-2.4,2-2.4,3,.1.9.2,14.9.3,30.9.1,16.1.5,29.9,1,30.6.7,1.2,1.3,1.1,3.7-.1,6.7-3.5,11.2-11.2,14.9-25.6,1.9-7.6,5.5-31,5.5-36.4v-3.7h-10.2c-6.3,0-11.3.5-12.8,1.3h0Z"/>
        </g>
        <g id="adductor_x5F_longus">
          <path class="cls-1" d="M115,279.6c0,.5,2.1,5.2,4.6,10.5,5.5,11.7,10.5,24.1,17,42.4,2.7,7.6,5.4,13.8,6,13.8,1.5,0,4.1-3,5.3-6.1,2.6-6.9-11.4-39.3-21.8-50.4-4.9-5.3-11.1-10.9-11.1-10.2h0Z"/>
          <path class="cls-1" d="M192.9,287.1c-9.1,9.7-16.8,23.2-22.1,38.8-4.1,11.8-4.1,13.7,0,18.6,2.3,2.8,3.9,2.1,5.2-2,3.8-11.7,15-40.3,19.7-50.5,3-6.5,5.3-12,5-12.3s-3.8,3.1-7.8,7.4h0Z"/>
        </g>
        <g id="sarotorius">
          <path class="cls-1" d="M113.5,288.9c1.6,5.2,14.9,56,18.4,70.6,4.7,19.7,9.1,41,9.1,44.7s.5,2,1.3.7c.8-1.4,1.2-7.3,1.2-18.5s-.3-17.7-2.7-27c-4-15.7-9.1-30.4-17.5-49.9-6.9-16.2-11.4-25.6-9.8-20.6h0Z"/>
          <path class="cls-1" d="M194,306.5c-9.9,23.2-17.1,44.4-19.9,59.1-2.3,12.1-2.7,27.6-.9,35.9l1.1,5.3,2.4-13c2.4-13.7,16.8-72.3,22.8-93.4,2-6.8,3.4-12.6,3.2-12.8s-4.1,8.3-8.7,18.9h0Z"/>
        </g>
        <g id="rectus_x5F_femoris">
          <path class="cls-1" d="M107.2,291.4c-4.4,7.2-9,23.3-9.8,35.1-.9,11.4.5,20.5,7.8,49.3,10.8,43.4,15.2,54.5,19.4,48.9,4.5-6.2,6.9-38.3,4.3-59.8-1.3-11.6-5.3-27.4-12.7-50.5-3.2-10.2-6.3-20-6.8-21.8-.9-3.1-1-3.2-2.2-1.2Z"/>
          <path class="cls-1" d="M206.5,293.5c-.4,1.8-3.6,12.3-7.2,23.3-8.2,25.5-10.8,36.5-12.4,51.2-2.5,24.4,1.4,58.3,6.7,58.3s5.7-7.8,8.7-18c4-13.3,13.3-50.5,15.2-60.9,3.1-16.8.8-35.6-6.2-51.4-1.4-3.1-2.9-5.7-3.4-5.7s-1.1,1.5-1.4,3.2h0Z"/>
        </g>
        <g id="hand">
          <path class="cls-1" d="M26.8,306c-13.4,8.8-12.4,18.9,2.4,26.3,6.5,3.3,10.2,3.8,14.2,2,3.1-1.5,4.5-5.4,5.6-15.7,1.1-11.6-1.1-14.6-11.7-15.8-4.3-.5-5.4-.2-10.5,3.2Z"/>
          <path class="cls-1" d="M273.7,303.8c-2,.8-4.4,1.9-5.2,2.6-1.8,1.5-2,9.5-.4,18.7,1.9,10.6,7.2,12.8,18.4,7.5,7-3.4,12.5-9,12.5-13s-2.3-7.7-6.1-11c-7.2-6.1-12-7.3-19.2-4.8h0Z"/>
          <path class="cls-1" d="M11,316.1c-2.3,3.2-5.7,6.6-7.6,7.7-2.3,1.2-3.4,2.5-3.4,4.1s.4,2.2,2.6,1.8c3.5-.6,8.3-4.3,10.1-7.8,2.2-4.1,4.2-11.6,3.2-11.6s-2.7,2.6-4.9,5.8Z"/>
          <path class="cls-1" d="M300,312.3c.5,1.1,1,2.8,1,3.8,0,2.4,4.5,9.3,7.5,11.5,1.2.9,3.4,2,4.9,2.4,2.3.5,2.6.3,2.6-2s-.8-3-2.9-4.1c-1.7-.8-5.1-4.2-7.6-7.5-4.4-5.8-7.8-8.2-5.5-4.1h0Z"/>
          <path class="cls-1" d="M10.6,340c-5.7,10.7-7.3,16-3.9,13.3.9-.8,4.1-4.9,7.2-9.2,3.1-4.4,6.2-8.7,7-9.8,1.1-1.5,1.1-2.2,0-3.4-2.8-3.4-4.7-1.7-10.4,9.1h.1Z"/>
          <path class="cls-1" d="M295.6,330.6c-1.7,1.2-1.4,1.8,3.6,8.8,2.9,4.1,6.4,9.1,7.8,11.2,3,4.5,5.2,5,4.1.9-1.4-4.7-11.2-22.2-12.5-22.2s-2,.6-3,1.3h0Z"/>
          <path class="cls-1" d="M22.6,335.5c-.2.7-2.2,6.2-4.4,12.3-5.9,16.1-5.8,15.7-3.1,15.3,1.8-.2,3.3-2.7,8-13.6l5.8-13.3-2.5-1c-3.2-1.2-3.4-1.1-3.8.3h0Z"/>
          <path class="cls-1" d="M289.3,335.4l-2.2.9,3.8,8.3c2.1,4.6,4.6,10.4,5.6,13,1.6,4.3,4.7,7,6.2,5.4.4-.3-1.3-5.9-3.7-12.3-2.4-6.5-4.7-12.8-5.2-14.1-.8-2.4-1.2-2.5-4.5-1.2h0Z"/>
          <path class="cls-1" d="M40.7,337c-1,.9-.8,17.6.2,19.1,1.4,2.3,3.1-4.4,3.1-12.4s-.3-7.4-1.3-7.4-1.7.3-2,.7h0Z"/>
          <path class="cls-1" d="M272.4,345.5c.5,8.4,1.7,12.1,3.1,10.6.8-.8.8-17.4,0-18.7-.3-.6-1.3-1.1-2.2-1.1-1.4,0-1.5,1.2-.9,9.2Z"/>
          <path class="cls-1" d="M30.5,338.5c-.6,1.9-3.5,21.6-3.5,23.8s2.7,2.6,3.4.2c.9-2.9,4.6-21.6,4.6-23.5s-3.8-2.4-4.5-.5Z"/>
          <path class="cls-1" d="M281,338.8c0,1.2,3.1,17.5,4.5,23.3.7,3.1,3.5,3,3.5,0s-.7-6.8-1.5-12.3c-.8-5.4-1.5-10.5-1.5-11.2s-1.1-1.2-2.5-1.2-2.5.6-2.5,1.4h0Z"/>
        </g>
        <g id="adductor_x5F_magnus">
          <path class="cls-1" d="M146.4,346.5l-3.8,5.2,1.2,8.1c.7,4.4,1.7,11,2.4,14.6,1,6,1.2,6.3,2,3.5,1.2-4.3,3.8-26.1,3.8-31.7s-.4-4.8-.9-4.8-2.6,2.3-4.7,5.1h0Z"/>
          <path class="cls-1" d="M164,345c0,9.3,3.7,34.9,4.8,33.8.4-.3,1.6-6.3,2.8-13.3,1.5-9.1,1.8-13.3,1.1-14.7-1.5-3-6.9-9.5-7.9-9.5s-.8,1.7-.8,3.7h0Z"/>
        </g>
        <g id="vastus_x5F_lateralis">
          <path class="cls-1" d="M95.8,355.5c0,1.3,0,6.4.4,11.4,2,24.5,4.2,36.3,8.1,44,1.1,2.2,3.2,7.1,4.7,11,3.1,8.5,5.4,9.3,5.8,2.1s-.8-8.2-4.2-18.5c-5-15.3-7.5-24.8-10.6-40.1-2.1-10.7-3.6-14.1-4.2-9.9Z"/>
          <path class="cls-1" d="M218.2,356c-.6,1.5-1.6,5.9-2.2,9.8-1.9,11.3-5.8,26-10.6,40.3-3.3,9.9-4.4,14.6-4.2,18,.4,6.3,2.6,6.2,5.1-.3,1.1-2.8,3.5-8.4,5.3-12.5,4-9.1,6.9-23.9,8.3-41.9,1-13.8.4-18.8-1.7-13.4h0Z"/>
        </g>
        <g id="vastus_x5F_medialis">
          <path class="cls-1" d="M182.5,381c-2.2,5.2-4.3,13.9-5.1,20.8-.7,5.9,1.3,28.4,2.6,29.9,1.4,1.6,4.8-1.2,6-4.9.9-2.8.9-5.8-.1-13.7-.7-5.6-1.3-15.9-1.3-22.9-.1-7.1-.2-12.8-.3-12.8-.2,0-1,1.6-1.8,3.6h0Z"/>
          <path class="cls-1" d="M132,388.1c0,5.3-.7,15.5-1.5,22.5-.8,7.1-1.2,13.9-.9,15.2.8,3.3,5.1,7.2,6.5,5.8s2.4-12.4,2.3-25.8c-.1-9-.6-12.5-2.8-19.3-1.5-4.5-2.9-8.2-3.1-8.2-.3,0-.5,4.4-.5,9.8Z"/>
        </g>
        <g id="patella">
          <path class="cls-1" d="M110.7,435.8c-2.1,2.1-2.1,5.5-.2,13.1,3.7,13.9,7.1,18,12.5,14.8,4.8-2.8,7.4-9.4,7.5-18.5,0-4.2-.5-8.2-1.1-8.8s-4.6-1.3-9-1.6c-6.7-.6-8.3-.4-9.7,1Z"/>
          <path class="cls-1" d="M190,435.3c-2.9.5-3.5,1.1-4.2,4.1-1.9,8.7,1.6,20,7.5,24.4l2.7,2,2.8-2.1c1.9-1.4,3.5-4.4,5.4-9.9,3.1-9.1,3.5-15.5,1.2-17.8-1.6-1.7-8.4-2-15.4-.7h0Z"/>
        </g>
        <g id="gracilis">
          <path class="cls-1" d="M135.3,441.5c-.5.7-1.7,4.1-2.6,7.6-1,3.4-4.3,11.7-7.4,18.4-3.6,7.9-5.8,14-6.1,17.2-.5,4.8-.4,5,1.3,3.6,4-3.3,17.5-36,17.5-42.5s-1.3-6.1-2.7-4.3h0Z"/>
          <path class="cls-1" d="M178.6,441.9c-.3.9-.6,2.7-.6,4,0,5.7,13.8,39.4,17.3,42.4,4.2,3.5,1.7-7.6-4.8-21.6-2.5-5.3-5.5-12.8-6.6-16.7-2.4-8-4.2-10.8-5.3-8.1h0Z"/>
        </g>
        <g id="tibialis_x5F_anterior">
          <path class="cls-1" d="M106.5,446.4c-.4.6-.8,11.8-.8,24.8-.2,23.4.6,34,3.9,52.2,2.4,13.4,10.4,37,12.5,37s1-21.6-.6-34.3c-1.8-13.2-13.2-79.8-13.9-80.4-.2-.2-.7.1-1.1.7h0Z"/>
          <path class="cls-1" d="M208,445.5c-.1.8-5.3,32-8.4,49.8-4.9,28.4-6.6,42.4-6.6,54.6s1.3,14.1,6.8-2.1c6.2-18,9-33.5,10.8-59.1.8-11.9-.4-43.4-1.7-43.4s-.9.1-.9.2h0Z"/>
        </g>
        <g id="extensor_x5F_digitorum_x5F_longus">
          <path class="cls-1" d="M102.5,465c-1.4,5.6-2.2,29-1.4,44.7.7,15.8,1.3,19.1,7.9,48.1,1.2,4.9,2,10.6,2,12.5-.3,5.9-.2,6.4,1.4,5.1,2.3-1.9,3.9-9.7,3.3-15.4-.4-2.8-2.2-11.5-4.1-19.2-7.2-29.5-8.1-36-7.9-58.3,0-11.1,0-20.2-.2-20.2s-.6,1.2-1,2.7h0Z"/>
          <path class="cls-1" d="M212.7,480c.6,19.3-.5,28.2-7.9,59.4-4.7,19.7-5.3,28.5-2.4,33.8.9,1.9,2,3.1,2.3,2.8s.7-3.4.8-6.8c.1-3.5,1.4-11.3,2.9-17.3,5.1-21,5.6-24.1,6.7-41.4.9-12.8.9-20.9.1-31.4-1.7-20.4-3.3-19.8-2.5.9h0Z"/>
        </g>
        <g id="foot">
          <path class="cls-1" d="M121,565.2c0,.5,1.3,2.6,3,4.8,1.6,2.1,3,4.4,3,5.1s.5,1.5,1,1.8c2.3,1.4,1-6.4-1.6-9.4-2.4-2.9-5.4-4.1-5.4-2.3h0Z"/>
          <path class="cls-1" d="M190.1,566.8c-2,2.2-4.2,10.6-2.8,10.6s1.5-1.7,2.6-3.8c1-2,2.8-4.5,4-5.6,2.1-1.9,2-3.6-.3-3.6s-2.3,1.1-3.5,2.4h0Z"/>
          <path class="cls-1" d="M115.7,573c-.8,1-1.8,3.6-2.2,5.8s-1.3,6.1-2.1,8.7c-1.8,5.7-1,7.4,5.5,11.5,2.5,1.5,6,4.1,7.8,5.6l3.3,2.9,1.1-2.9c3.1-8.1,1.6-19.1-3.6-27.4-3.7-5.8-7-7.2-9.8-4.2h0Z"/>
          <path class="cls-1" d="M193.5,573.8c-5.9,5.9-9.2,17.7-7.5,26.6,1.2,6.3,2.6,8.4,4.1,5.7.6-.9,4.1-3.8,8-6.3,7.4-4.9,8.7-7.1,6.9-11.9-.6-1.7-1.6-5.2-2.1-7.9-1-5.2-3.2-8.6-5.6-8.6s-2.5,1.1-3.8,2.4h0Z"/>
          <path class="cls-1" d="M109.5,607.5c-1.6,2.4-4.8,6.8-7.2,9.9-4.8,6.2-5.1,7.4-2.4,8.9,2.8,1.4,16.1,4.1,17.2,3.4.5-.3.9-1.4.9-2.4s.9-4.2,2-6.9c1.1-3,1.9-7,1.8-9.7-.2-3.9-.7-4.8-3-6-4.4-2.3-6.3-1.7-9.3,2.8Z"/>
          <path class="cls-1" d="M197.4,605c-3,1.4-3.1,1.8-2.9,7.2.1,3.1.9,7.1,1.8,8.9s1.7,4.3,1.7,5.7c0,3.4.8,3.7,8.1,2.4,7.1-1.2,11.9-3.2,11.9-5s-2.4-4.3-5.4-8.2c-2.9-3.9-6.1-8.3-7.1-9.9-2-3.1-3.7-3.3-8.1-1.1h0Z"/>
          <path class="cls-1" d="M124.2,611.8c-2.8,10.9-3.9,17-3.5,18.3.3.7,1.7,1.2,3.1,1,2.2-.2,3-1.2,4.5-5.7,1.7-4.8,1.8-5.7.4-9-.8-2-1.9-4.7-2.5-6.1-.9-2.4-1-2.4-2,1.5h0Z"/>
          <path class="cls-1" d="M188.3,614.3c-2.2,5.7-2.2,5.9-.5,11.2,1.3,4.3,2.2,5.5,4.1,5.7,3.8.6,4.4-1,2.7-6.9-.9-2.9-1.6-6.6-1.6-8.3-.1-1.7-.6-4.1-1.3-5.3-1.1-2-1.3-1.8-3.4,3.6Z"/>
        </g>
        <g id="gastrocnemius">
          <path class="cls-1" d="M127.6,482.5c-2.7,5.6-5.1,12-5.3,14.2-.2,2.3.5,13.8,1.6,25.5,1.2,11.7,2.1,23.4,2.1,25.9,0,6.9,1.4,4.4,4.5-7.7,1.4-5.8,3.7-14.1,5.1-18.5,2.2-6.8,2.5-9.2,2.1-16.5-.7-10.5-3.8-33-4.6-33s-2.8,4.6-5.5,10.1h0Z"/>
          <path class="cls-1" d="M182.6,473.5c-1.4,4.4-4,25.8-4,33.9-.1,7.8.4,11,2.6,17.5,1.5,4.4,3.6,11.8,4.8,16.5,1.1,4.7,2.3,9.2,2.7,10,.6,1.6,5.1-43,5.2-52,.1-4.7-.7-7.1-5.4-16.5s-5.6-10.2-5.9-9.4h0Z"/>
        </g>
      </g>
      <g id="back">
        <path class="cls-1" d="M518.4.3c-10.2.9-17.6,4.7-20.4,10.5-3.8,7.8-3.9,24.9-.2,28.1,7.4,6.2,9.5,8.5,11.5,12.4l2.4,4.5,11.5.3,11.6.3,2.1-3c1.2-1.6,2.1-3.2,2.1-3.7,0-1.8,5.2-7.3,8.3-8.7,3.1-1.5,3.5-2.2,4.6-8.6.9-4.9,1-8.4.2-12.2-2-10.8-5.1-15.1-13.1-17.8C531.8,0,527.1-.5,518.4.3h0Z"/>
        <g id="trapezius-2">
          <path class="cls-1" d="M512.4,62.2c-.6.4-1.5,4.1-1.9,8.2s-1.7,10.2-2.8,13.5c-2.1,5.6-2.6,6.2-8.4,9.5-3.4,1.9-6.3,3.8-6.3,4.1,0,2.3,25.8,1.8,26.5-.5.2-.6.5-8.2.8-16.9.3-12.8,0-16.2-1-17.3s-5.1-1.8-6.9-.6h0Z"/>
          <path class="cls-1" d="M528.3,62c-1,.3-1.3,4.7-1.3,17.1s.4,17.2.8,17.8c1,1.6,15.4,2.6,22.2,1.6l5.5-.8-3.2-1.9c-1.7-1.1-4.5-2.7-6.2-3.7-1.6-.9-3.6-2.7-4.5-4-2.2-3.4-4.6-13.4-4.6-19.5s-.4-5.4-1.9-6.3c-2.1-1-4.7-1.2-6.8-.3h0Z"/>
          <path class="cls-1" d="M487.6,102.4c-2.2.5-4.1,1.1-4.3,1.3-.2,0,1,3.2,2.6,6.8,1.7,3.6,5.3,14.1,8.2,23.4,5.6,18.5,8.4,25.2,15.8,38.3,2.6,4.7,5.7,10.8,6.7,13.6l1.9,5,.6-5c.4-2.8,1.3-16.3,2-30,1.4-26.9.5-42.4-2.6-47.1-2.7-4.1-8.4-6.3-18.1-6.8-4.9-.3-10.7,0-12.8.5h0Z"/>
          <path class="cls-1" d="M540.8,102.3c-6.3,1.1-11.3,4.3-12.9,8.3-1.9,4.8-2.3,35.3-.9,58.9.7,11.5,1.6,20.8,2,20.8s1.2-1.9,1.9-4.3c.7-2.3,3.4-8,6.1-12.7,7.2-12.8,9.5-17.7,12.3-26.5,8.9-28.1,11.1-34.5,13.3-38.4,1.3-2.4,2.3-4.6,2.1-4.7-.2-.2-2.7-.8-5.7-1.4-6-1.1-11.4-1.1-18.2,0h0Z"/>
        </g>
        <g id="deltoid-2">
          <path class="cls-1" d="M451.9,110.7c-5.1,3.1-9.3,6.9-11.5,10.2s-2,5.4-2.4,17.2c-.3,9.2-.1,14.3.5,14.3,2,0,11.1-5.9,14.3-9.2,2.6-2.7,3.5-4.8,4.3-9.9,1.3-8,3.6-11.8,10.1-16.5l5.1-3.6-3.9-2.4c-5.1-3.1-11.6-3.2-16.5,0h0Z"/>
          <path class="cls-1" d="M580,110.2c-4.3,2.3-4.8,3.7-1.8,5.3,7.1,3.6,12.8,12.8,12.8,20.7s1.1,4,2.4,5.7c2.6,3.3,10.4,8.8,14.4,10,1.5.4,2.2-3.6,2.2-11.9,0-14.7-1.5-19.3-8.4-25.2-7.5-6.6-14.9-8.1-21.6-4.6h0Z"/>
        </g>
        <g id="teres_x5F_minor">
          <path class="cls-1" d="M475.8,117.3c-8.1,3.4-13.8,6.9-13.8,8.3s1.6,4.1,3.6,7.8c3.9,7.5,8,11,18.6,16,9.4,4.5,12.7,3.8,10.6-2-.5-1.4-2.5-8.8-4.4-16.5-3.5-13.9-4.6-16.5-6.8-16.5s-4.1,1.3-7.8,2.9h0Z"/>
          <path class="cls-1" d="M561,116.6c-1,2.4-7.9,28.4-8.7,33-.5,2.5-.2,2.8,2.3,2.8s17.8-7.1,21.6-10.7c2.4-2.3,9.8-15,9.8-16.8s-20.2-10.5-22.3-10.5-2.2,1-2.7,2.2h0Z"/>
        </g>
        <g id="teres_x5F_major">
          <path class="cls-1" d="M459.7,134.1c-1.4,1.3-.6,10.9,1.2,14.9,1,2.3,3.6,5.4,5.7,7,3.3,2.6,4.6,2.9,10.8,2.9,11.3,0,18.6-4.5,9.9-6.1-8.3-1.5-20.5-10-23.9-16.6-1.5-2.8-2.5-3.4-3.7-2.1h0Z"/>
          <path class="cls-1" d="M583.5,137.1c-2.9,5.3-12.3,12.3-20.1,14.8-3.6,1.2-6.6,2.5-6.6,3.1-.2,2.7,11,5.2,17.7,4,4.5-.9,11.1-6.7,12.4-10.9,1.8-5.9,2.2-10.7,1.1-12.7-1.5-2.8-2.2-2.5-4.5,1.7h0Z"/>
        </g>
        <g id="latissimus_x5F_dorsi">
          <path class="cls-1" d="M495.4,156.4c-1,1.1-2.7,2.9-3.7,3.9-4.2,4.3-16.7,5.1-24.1,1.5-1.6-.8-3.1-1.4-3.4-1.4-1.2,0,1.1,8.7,3.8,13.9,1.9,3.8,3.2,8.7,4,14.2.6,4.6,1.7,10.9,2.5,13.9s2.3,11.1,3.5,18c2.2,12.7,4,17.2,9.6,23.9,1.4,1.7,3,3.1,3.4,3.1s1.6-2.1,2.6-4.8c.9-2.6,4.9-12.6,8.7-22.2,8-20.1,11.7-30.6,11.7-33s-1.1-3.3-2.4-5.2-4.7-8.8-7.6-15.2c-3-6.4-5.6-11.9-6-12.1s-1.6.5-2.6,1.5h0Z"/>
          <path class="cls-1" d="M544.6,164.4c-2.5,5.5-4.6,10.3-4.6,10.8s-1.4,2.7-3,5.2c-4.7,7.1-4.6,7.6,8.3,40,4.7,11.9,8.9,22.8,9.2,24.3.9,3.4,1.8,3.4,5-.1,5.5-5.7,7.5-10.6,10-24.3,1.3-7.4,3-16.3,3.8-19.9.9-3.6,1.8-9.2,2.2-12.5s2.2-9.4,4-13.5c2.9-6.5,4-10.6,3.6-13.2,0-.4-1.6-.1-3.3.7-10.2,4.2-21.3,2.4-26.3-4.1-1.4-1.8-3-3.4-3.4-3.4s-2.9,4.5-5.5,10Z"/>
        </g>
        <g id="triceps_x5F_brachill">
          <path class="cls-1" d="M450.8,147.9c-8.7,7.3-11.8,12.8-11.8,21.1s1.8,12.8,6.2,7.5c1.3-1.6,4.9-4.8,8.1-7.2l5.8-4.3-.7-5.4c-.3-3-1.2-7.7-1.8-10.5l-1.1-5-4.7,3.8h0Z"/>
          <path class="cls-1" d="M591.6,145.4c-1,2.7-3.3,18.4-2.9,19.4s2.7,2.6,5.5,4.5c2.7,1.9,6.4,5.1,8.1,7.2,2.8,3.5,3.2,3.7,4.6,2.3,1.1-1,1.5-3.6,1.5-8.7,0-8.7-2-13.2-8.6-19.4-6.7-6.2-7.7-6.9-8.2-5.3h0Z"/>
          <path class="cls-1" d="M451.5,174.4l-7.3,7.4-.7,7.5c-.4,4.1-1.3,10.4-2.1,14s-1.4,9.4-1.4,12.9v6.5l3.1-3c3.6-3.3,5.9-8.1,5.9-12.2s1.3-4.6,3-6.8c6-8.2,11.4-30.8,7.9-32.9-.6-.4-4.3,2.6-8.4,6.6h0Z"/>
          <path class="cls-1" d="M586.6,169.6c-.3,1.3-.6,3.3-.6,4.4,0,4.2,6.1,22,8.9,25.9,1.6,2.2,3.2,6,3.6,8.5.8,4.8,3.2,9.5,6.4,12.4,2,1.8,2,1.7,2.7-1,.4-1.7-.2-8.9-1.5-17.4-1.3-8-2.5-16.1-2.8-18-.3-2.8-1.9-4.9-7.6-10.3-3.9-3.7-7.4-6.7-7.8-6.7s-.9,1-1.3,2.2h0Z"/>
          <path class="cls-1" d="M432.6,182.1c-2.6,11.2-3.2,28.2-1.3,30.8.9,1.1,1.7,1.8,2,1.5,1.2-1.4,7.7-21.5,7.7-24s-4.8-16-6-16-1.5,3.5-2.4,7.7h0Z"/>
          <path class="cls-1" d="M609.7,179.4c-3.6,8.2-4,11-2.2,16.6,3.4,10.2,6.7,18.4,7.5,18.4s1.4-1.6,2-3.6c1.4-4.2.8-14.5-1.7-26.3-2.2-11.1-2.7-11.6-5.6-5.1h0Z"/>
        </g>
        <g id="thoracolumbar_x5F_fascia">
          <path class="cls-1" d="M512,205.1c-8.9,18.7-18.6,44.4-19.2,50.8-.3,2.8.4,3.5,12.2,11.2l12.5,8.2.9-2.7c3-9.7.9-74.2-2.4-74.2s-2.3,3-4,6.7h0Z"/>
          <path class="cls-1" d="M530.6,200.1c-2.6,8.8-4.2,46.4-2.6,62.2.6,6.3,1.3,11.8,1.6,12.2.2.4,6.1-2.8,12.9-7.3,10.1-6.5,12.5-8.5,12.5-10.4,0-4.6-10.2-31.7-19.6-52.1-3.1-6.6-3.9-7.4-4.8-4.6h0Z"/>
        </g>
        <g id="medial_x5F_head">
          <path class="cls-1" d="M427.4,225.6c.5,12,1.1,14.8,3.1,14.8s4.4-5.8,5.1-11.2c.6-4,.3-4.7-3.6-9.6-2.3-2.8-4.4-5.2-4.6-5.2s-.2,5.1,0,11.2h0Z"/>
          <path class="cls-1" d="M615.8,218.9c-3.2,3.8-3.8,5.3-3.8,9.2s2.6,11.3,4.7,12c.7.2,1.7-.7,2.2-2,1-2.6,2-23.8,1.1-23.7-.3,0-2.2,2.1-4.2,4.5Z"/>
        </g>
        <g id="flexor_x5F_carpi_x5F_ulnaris-2">
          <path class="cls-1" d="M418.1,232.1c-3.8,29.9-8.5,58.5-10.7,65.7-.4,1.3-.2,1.6.6,1.1,1.8-1.1,13.4-25.4,16-33.6,2-6.1,2.2-8.4,1.7-17.8-.5-9.8-3.3-22-5.6-24.4-.4-.4-1.3,3.7-2,9h0Z"/>
          <path class="cls-1" d="M625.8,226.6c-2.4,5.9-3.7,12.2-4.4,21.9-.5,7.2-.3,9.3,2,16.3,1.4,4.4,5.5,14,9,21.2,6.5,13.3,9.6,17.2,7.1,9-1.7-5.6-5.9-30.8-8.9-53.6-1.4-10.1-2.6-18.5-2.8-18.6-.2-.2-1.1,1.5-2,3.8h0Z"/>
        </g>
        <g id="extensor_x5F_carpi_x5F_ulnaris-2">
          <path class="cls-1" d="M413.6,230.4c-.3,1.3-1.7,9.4-3.1,17.9-3.5,21.1-5.2,29.9-8.1,40.4-1.4,4.8-2.3,9-2,9.3,1.2,1.2,5.7-8,8-16.2,4-14.3,8.6-50.9,6.7-52.8s-1.2-.2-1.5,1.4h0Z"/>
          <path class="cls-1" d="M632.3,237.6c1,15.5,4.7,38.9,7.3,46.8,2.3,6.9,7.1,15.6,8.1,14.6s-.5-3.2-1.6-6.6c-2.4-7.2-5.8-23.8-9.7-47.3-1.6-9.2-3.2-16.7-3.8-16.7s-.7,3.7-.3,9.2h0Z"/>
        </g>
        <g id="brachioradialis-2">
          <path class="cls-1" d="M440.9,232.1c-3.5.4-5.1,3.5-11.9,23.7-5.7,16.6-12.3,33.8-13.9,36-.5.5-1.1,1.9-1.4,3l-.7,2,1.6-2c3.3-4.2,25.5-49.1,28.9-58.7,1.5-4.1,1.2-4.5-2.6-4h0Z"/>
          <path class="cls-1" d="M603,232.6c0,4,29.4,64.7,30.7,63.5.2-.3-1.2-3.9-3.1-8.1-2-4.3-6.8-17-10.7-28.4s-7.8-22-8.6-23.5c-1.8-3.6-8.3-6.3-8.3-3.5h0Z"/>
        </g>
        <g id="external_x5F_oblique-3">
          <path class="cls-1" d="M476.1,241.9c-1.1,1.4-2.3,4.6-2.7,7.1-.6,4.3.1,19.1,1,20.1.3.2,2.1-1.4,4.1-3.7,2-2.2,5.6-5.2,8.1-6.6,2.5-1.5,4.4-3.3,4.4-4.3,0-3.3-9.1-15.2-11.6-15.2s-2.2,1.2-3.3,2.6h0Z"/>
          <path class="cls-1" d="M562.2,244.6c-7.6,10.2-7.6,10.6.3,15.3,2.4,1.4,5.7,4.1,7.3,6.1,2.8,3.3,3,3.5,3.7,1.6.3-1.2.6-6.1.7-11,0-6.9-.4-9.9-1.8-12.8-2.9-5.9-5.4-5.7-10.2.8h0Z"/>
        </g>
        <g id="gluteus_x5F_medius">
          <path class="cls-1" d="M480.6,268c-3.3,3.3-8.1,13.1-9.2,18.9l-.7,3.9,4.9-3.6c13-9.4,17.4-12,23.6-13.9,3.7-1.2,6.8-2.4,6.8-2.9,0-1.8-8-4.4-15-4.8-7.2-.4-7.6-.3-10.4,2.4h0Z"/>
          <path class="cls-1" d="M547.5,267c-7.1,2.6-7.3,3.8-.8,5.8,7.6,2.4,9.9,3.6,19.8,10.7,4.6,3.2,8.8,5.9,9.4,5.9,2.5,0-4.2-16.5-8.7-21.3-2.3-2.4-3.2-2.7-9.1-2.6-3.6,0-8.4.7-10.6,1.5h0Z"/>
        </g>
        <g id="gluteus_x5F_maximus">
          <path class="cls-1" d="M499.5,276.6c-10.1,4.1-22.7,12.6-26.4,17.8-1.6,2.2-3.2,5.6-3.6,7.7-1.4,8.8,4,22.9,12.6,32.5,4.5,5.1,5.7,5.8,13.3,8.2,16.1,4.9,22.6,2.7,22.6-7.5s.9-9.8,2.1-15.3c1.6-7.8,2-12.9,1.7-21.7-.3-10.3-.6-12-3-16-3.6-6.2-6.5-9-9.1-9s-5.8,1.5-10.2,3.3h0Z"/>
          <path class="cls-1" d="M532.3,277c-6.3,8-6.8,9.8-6.7,23.4,0,8.9.7,15.4,2.2,22.7,1.2,5.6,2.2,12.2,2.2,14.7,0,4,.3,4.7,3,6.1,3.6,1.9,9.6,1.9,15.2.1,2.4-.8,5.8-1.7,7.6-2.1,6.2-1.3,16.4-13.9,20.2-24.9,2.4-6.9,2.6-15.5.5-19.5-3.9-7.7-27.1-22.4-37.4-23.8-3.4-.5-4-.2-6.8,3.3h0Z"/>
        </g>
        <g id="vastus_x5F_lateralis-2">
          <path class="cls-1" d="M462,339.1c0,24.5,3.3,60.4,6.6,71.9.9,2.9,1.7,5.3,1.8,5.3.2,0,.3-5.7.2-12.8,0-7,.3-19.9.8-28.7.7-13.2.6-17.6-.8-25.2-1.6-9.4-6.1-22.3-7.7-22.3s-.9,5.3-.9,11.8h0Z"/>
          <path class="cls-1" d="M580.2,336.5c-4.3,13.2-5.6,27.4-4.2,44.2.7,7.2,1,17.9.8,23.9,0,5.9,0,10.7.3,10.7,1.2,0,3.9-13,5.4-25.7,1.7-14.8,3.5-51.8,2.8-58.1-.3-2.3-.9-4.2-1.3-4.2s-2.1,4.2-3.8,9.2Z"/>
        </g>
        <g id="biceps_x5F_femoris">
          <path class="cls-1" d="M477.9,338.4c-1,1.9-1.5,11.5-2.1,40.8-.5,29.7-1.2,41.4-2.7,52-2.9,20.4-3.3,24.2-2.7,24.2.9,0,6.4-11.4,9.1-18.8,3.9-10.8,8.2-27.2,8.9-33.7.4-3.3,1.1-15.7,1.6-27.5l.9-21.5-2.4-5.1c-1.4-2.7-4-6.8-5.8-8.9l-3.4-3.9-1.4,2.4h0Z"/>
          <path class="cls-1" d="M563.3,341.6c-3.9,5.2-7.3,12.9-6.7,15.4.2,1,.8,12.4,1.4,25.3,1,24.4,1.9,29.8,8.1,49,4.3,13.1,13.3,30.3,11.5,21.7-.3-1.2-1.3-7.6-2.2-14.2s-1.9-12.4-2.2-12.9c-.3-.6-.9-19.5-1.2-42-.8-49.1-1.4-51.9-8.7-42.3h0Z"/>
        </g>
        <g id="hand-2">
          <path class="cls-1" d="M392.4,306.1c-6.3,4.1-9.4,8.6-9.4,13.8s11.7,14.2,20.5,15.1c6.3.7,9-2,10.5-10.5.6-3.8,1-9.2.8-12.2-.3-4.9-.6-5.6-3.5-7.2-1.7-1-5.3-2.1-8-2.4-4.4-.5-5.3-.2-10.9,3.4h0Z"/>
          <path class="cls-1" d="M640.5,303.3c-4.5,1.1-7.5,3.3-8.2,6.1-.8,3,1.4,18.5,3,22,2.7,5.6,11.6,4.9,21.5-1.6,8.8-5.8,9.8-12.9,2.9-20.2-5.7-6-12-8-19.2-6.3Z"/>
          <path class="cls-1" d="M376.5,316.4c-2.5,3.3-5.9,6.7-7.6,7.5-2.6,1.4-3.8,4.3-2.3,5.7,1.1,1.2,5.4-.8,8.8-3.9,3.2-3.1,8.5-15.3,6.5-15.3s-2.9,2.7-5.4,6h0Z"/>
          <path class="cls-1" d="M665.3,311.5c.3.9,1.1,3.5,1.7,5.7,1.2,4.7,5.1,9.6,9.2,11.7,6.4,3.3,7.9-1.1,1.8-5.2-2.2-1.5-4.9-4.1-5.9-5.8-2.5-3.9-7.7-8.9-6.8-6.4h0Z"/>
          <path class="cls-1" d="M376.7,339.5c-6.3,11.8-7.6,15.3-5.6,14.6,1.4-.5,2.8-2.2,12.3-15.3,4.7-6.4,4.8-6.9,3.1-8.1-1-.8-2.4-1.4-3.1-1.4s-3.7,4.6-6.7,10.2h0Z"/>
          <path class="cls-1" d="M661.3,330c-1.5.6-1.7,3.9-.4,4.8.6.3,4,4.8,7.6,10s7,9.5,7.5,9.5c1.6,0,1.1-3.3-1-7-1-1.9-3.6-6.8-5.7-10.8-3.6-6.8-4.8-7.8-8-6.5h0Z"/>
          <path class="cls-1" d="M387.6,337.9c-.9,2.1-1.6,4-1.6,4.4s-1.6,4.8-3.5,9.9c-3.9,10.3-4.1,11.2-2.1,11.2s3.5-2.2,8.7-14.3c5-11.4,5.6-13.7,4-13.7s-1.6-.3-2.5-.6c-1-.4-2,.5-3,3.1Z"/>
          <path class="cls-1" d="M654.7,335c-2.2.6-2.2.7,3.2,13.3,5.6,13,6.4,14.4,8.4,14.8,2.6.5,2.2-2-2.4-14.3-5.5-15.1-5.3-14.8-9.2-13.8Z"/>
          <path class="cls-1" d="M406.5,337.4c-1.8,2.9-1.3,19,.5,19s1.8-2.5,2.5-11.8c.5-6.8.3-8.2-.9-8.2s-1.8.4-2.1,1Z"/>
          <path class="cls-1" d="M638,345.8c.3,5.2.9,9.8,1.3,10.2,1.5,1.5,2.2-1.1,2.6-9.3.2-6.4,0-8.8-1-9.4-3.1-1.9-3.4-.9-2.9,8.5h0Z"/>
          <path class="cls-1" d="M396,338.5c0,.7-.7,5.8-1.5,11.2-1.9,12.5-1.9,14.6,0,14.6s1.5-.2,1.5-.4,1.1-5.8,2.5-12.4,2.5-12.6,2.5-13.1-1.1-1.1-2.5-1.1-2.5.6-2.5,1.2h0Z"/>
          <path class="cls-1" d="M646.8,337.9c-1,1.1,4.5,25.7,5.9,26.2.8.3,1.6.3,1.9,0,.5-.5-1.6-16.2-3.2-24-.5-2.5-3.1-3.7-4.6-2.2h0Z"/>
        </g>
        <g id="adductor_x5F_magnus-2">
          <path class="cls-1" d="M507,349.3c-2.5.3-4.5,1-4.5,1.6s1.3,3.4,2.8,6.3c4.2,8,6,16.5,5.4,24.7-.5,5.3-.4,6.4.4,4.5,1.9-4.6,5.8-22,6.5-28.9.6-6.3.5-7-1.4-8-1.1-.6-2.7-1-3.4-.9-.7,0-3.3.4-5.8.7h0Z"/>
          <path class="cls-1" d="M532.4,349c-2.9.5-3.3,2.6-2.2,10.4,1,7.8,5.7,27.7,6.6,28.3.4.2.7-4.5.7-10.4,0-10.7,0-10.9,4.2-19,2.6-5.2,3.7-8.2,3-8.5-2.3-.7-10.2-1.2-12.3-.8Z"/>
        </g>
        <g id="semitendinosus">
          <path class="cls-1" d="M495.1,356c-3.4,8.3-6.6,79.8-4.1,91.7,1.6,8,2.5,6,4.5-9.5,2.8-22.5,5.7-39.3,7.8-45.9,2.3-7.3,2.6-16.8.8-24-1.4-5.1-6.1-15-7.1-15s-1.3,1.2-1.9,2.7h0Z"/>
          <path class="cls-1" d="M547.7,357.5c-3.1,5.3-5.7,15.4-5.7,22.5s.9,8,1.9,11.5c2.6,8.5,4.6,19.8,7.1,39.9,2.3,18.1,2.8,21,4,21,3.5,0,3.5-42,0-79-1.4-14.2-1.8-16.3-3.4-18.5-1.2-1.7-1.5-1.5-3.9,2.6h0Z"/>
        </g>
        <g id="semimembranosus">
          <path class="cls-1" d="M506.7,391.5c-.3,2.3-1.7,9.2-3.2,15.3-1.8,7.5-2.9,15.9-3.5,26.5-.5,8.5-1.2,18.2-1.6,21.5-.3,3.3-.3,5.7,0,5.4,1.2-1.1,3.7-16.4,4.7-28.9.5-6.9,2.1-17.1,3.4-22.7,2.6-10.5,3.1-17.8,1.6-20.1-.5-.9-1,.1-1.4,3h0Z"/>
          <path class="cls-1" d="M538.6,391.5c-.5,3.5,0,7.2,1.9,15,1.4,5.7,3,15.6,3.5,21.9,2.3,28,5,36.6,4.3,14-.5-16.2-1.9-25.9-7.2-48l-1.7-7.5-.8,4.6Z"/>
        </g>
        <g id="gastrocneus">
          <path class="cls-1" d="M564.3,452.4c.4,4.7,1,24.4,1.3,43.9.7,32.9.9,35.6,2.6,37.3s3,1.8,4.6,1.6c2.3-.3,3-1.1,4.4-5.5,3.2-9.5,4.1-19,3.5-37.3-.7-23.8-2.6-30.2-12.3-42.5l-4.7-6,.6,8.5h0Z"/>
          <path class="cls-1" d="M477.2,452.5c-5.9,8.1-8.5,15.4-10.3,28.5-2.6,18.3.3,45.9,4.7,52,1.8,2.9,5.5,3,8,.2,1.8-2,1.9-4.7,2.6-43.9.3-23.1.9-42.4,1.3-42.9.3-.6.2-1.1-.3-1.1s-3.2,3.2-6,7.2h0Z"/>
          <path class="cls-1" d="M486.9,447.9c0,1.6-.2,21.4-.3,43.9,0,29.3.2,41.3,1,42.5,2.8,3.7,10.5-4.7,14-15.2s1.6-7.4,1.1-18.1c-.8-16-3.4-29-7.7-37.6-1.7-3.6-4.2-9.2-5.5-12.5-2.1-5.2-2.4-5.6-2.6-3h0Z"/>
          <path class="cls-1" d="M559.3,447c-.3,1-2.8,6.8-5.4,12.9-2.7,6.1-5.5,14-6.3,17.5-2.2,9.6-3.9,28.3-3.3,34.6,1.1,10.5,9.9,24.3,14.5,22.9,2.7-.9,3-4.6,2-23-.4-8.3-.5-26.7,0-40.9.6-23.6.3-28.7-1.4-24h0Z"/>
        </g>
        <g id="soleus">
          <path class="cls-1" d="M472.5,542.7c-1.3,2.1-1.3,2.9.5,8.3,1,3.2,3.1,14.7,4.5,25.4,2.7,20.5,4.4,30.5,5.1,29.7,1.6-1.6,2.2-13.8,1.4-29.4-1.4-27.4-2-32.3-4.1-34.4s-5.5-2.4-7.4.4Z"/>
          <path class="cls-1" d="M568.3,541.5c-2.5,1.2-2.9,3.2-4.3,24.3-1.6,22.2-1.1,39.5,1,39.5s2.1-7.3,5.5-32.1c1.3-10.2,3.2-20.5,4-22.9,2-5.6,1.9-7.7-.4-9-2.3-1.2-2.9-1.2-5.8.2Z"/>
          <path class="cls-1" d="M486.4,548c-.7,5.7,0,38,1.3,50.9l.6,7,2.3-15c1.2-8.3,2.7-17.7,3.3-21,.5-3.3,1.3-10,1.7-14.8.7-9.9-.5-12.7-5.7-12.7s-2.8.3-3.5,5.6h0Z"/>
          <path class="cls-1" d="M553,543.8c-1.6,2-.7,23,1.4,32,.8,3.3,1.9,10,2.5,15,1.9,14.2,2.4,15,3.2,4.5.9-12.2,1.1-49.4.3-51.4-.8-2.1-5.8-2.1-7.4,0h0Z"/>
        </g>
        <g id="foot-2">
          <path class="cls-1" d="M475.2,603.8c0,6,.3,12.3.7,14,.6,3,.7,3,7.7,3.3,9.4.4,9.6,0,10.2-14.1.4-11.4-.3-13.5-1.9-5.1-1.1,5.7-3.3,8.4-6.9,8.4s-4.5-1.3-5.9-8.1c-.7-3.1-1.8-6.5-2.6-7.5-1.3-1.7-1.4-.6-1.3,9.1h0Z"/>
          <path class="cls-1" d="M570.2,595c-.6,1-1.3,3.8-1.7,6.3-.9,5.8-3,9-5.8,9s-5.8-2.3-6.8-7.5c-.5-2.7-1.4-5.4-2-6-1.4-1.3-.3,19.9,1.2,22.6.8,1.6,2.2,1.9,8.4,1.9h7.4l.5-3.3c1-6.3,1.4-24.7.5-24.7s-1.2.8-1.7,1.7h0Z"/>
          <path class="cls-1" d="M462.6,624.2c-1.7,2.8,12.2,7,24.6,7.5,6.1.2,6.3,0,6.6-2.3.5-5.1-.6-5.5-16.2-5.8-8.5-.2-14.6,0-15,.6h0Z"/>
          <path class="cls-1" d="M556.8,624c-1.8.5-3.4,5.6-2.2,7.4,1.4,2.3,23.9-1.4,28.9-4.7,1.4-.9,2.2-2,1.9-2.5-.5-.9-25.3-1.1-28.6-.2h0Z"/>
        </g>
      </g>
    </g>
  </g>
</svg>