<?xml version="1.0" standalone="no"?>
<!DOCTYPE svg PUBLIC "-//W3C//DTD SVG 20010904//EN"
 "http://www.w3.org/TR/2001/REC-SVG-20010904/DTD/svg10.dtd">
<svg version="1.0" xmlns="http://www.w3.org/2000/svg"
 width="736.000000pt" height="736.000000pt" viewBox="0 0 736.000000 736.000000"
 preserveAspectRatio="xMidYMid meet">

<g transform="translate(0.000000,736.000000) scale(0.100000,-0.100000)"
fill="#000000" stroke="none">
<path d="M5454 6860 c-102 -9 -176 -47 -204 -105 -38 -78 -39 -249 -2 -281 74
-62 95 -85 115 -124 l24 -45 115 -3 116 -3 21 30 c12 16 21 32 21 37 0 18 52
73 83 87 31 15 35 22 46 86 9 49 10 84 2 122 -20 108 -51 151 -131 178 -72 24
-119 29 -206 21z"/>
<path d="M1700 6841 c-120 -42 -157 -157 -120 -368 8 -46 18 -83 22 -83 4 0 8
33 8 73 0 55 5 80 20 105 11 18 23 53 26 77 4 23 9 48 13 54 9 14 218 24 300
14 l64 -8 12 -55 c6 -30 19 -69 28 -87 11 -20 17 -55 17 -95 0 -35 4 -69 8
-75 12 -19 37 141 36 232 -2 170 -82 235 -288 235 -62 -1 -108 -7 -146 -19z"/>
<path d="M5394 6242 c-6 -4 -15 -41 -19 -82 -4 -41 -17 -102 -28 -135 -21 -56
-26 -62 -84 -95 -34 -19 -63 -38 -63 -41 -1 -23 258 -18 265 5 2 6 5 82 8 169
3 128 1 162 -10 173 -15 15 -51 18 -69 6z"/>
<path d="M5553 6243 c-10 -3 -13 -47 -13 -171 0 -92 4 -172 8 -178 10 -16 154
-26 222 -16 l55 8 -32 19 c-17 11 -45 27 -62 37 -16 9 -36 27 -45 40 -22 34
-46 134 -46 195 0 41 -4 54 -19 63 -21 10 -47 12 -68 3z"/>
<path d="M1680 6081 c0 -43 8 -86 25 -132 31 -87 82 -189 95 -189 15 0 23 46
15 88 -10 57 -84 233 -111 267 l-24 30 0 -64z"/>
<path d="M1993 6110 c-78 -126 -138 -350 -93 -350 14 0 48 63 85 159 31 79 35
102 33 159 l-3 67 -22 -35z"/>
<path d="M1748 6103 c6 -3 12 -9 12 -14 0 -21 84 -209 92 -207 6 2 22 35 37
73 15 39 37 88 47 111 l20 40 -110 1 c-61 0 -105 -2 -98 -4z"/>
<path d="M2021 5941 c-1 -7 -19 -51 -40 -97 -22 -46 -35 -84 -29 -84 5 0 23 9
39 21 37 26 53 80 41 134 -6 22 -10 34 -11 26z"/>
<path d="M1615 5919 c-11 -11 -52 -41 -92 -66 -47 -30 -70 -50 -64 -56 6 -6
45 -12 87 -15 95 -6 104 2 104 95 0 67 -6 75 -35 42z"/>
<path d="M1670 5886 c0 -32 5 -66 10 -77 9 -16 58 -49 74 -49 5 0 -68 168 -78
177 -3 4 -6 -19 -6 -51z"/>
<path d="M2050 5886 c0 -30 5 -67 10 -82 10 -26 11 -27 91 -22 105 6 114 17
47 58 -29 18 -72 48 -95 66 -23 19 -44 34 -47 34 -3 0 -6 -24 -6 -54z"/>
<path d="M5146 5839 c-22 -5 -41 -11 -43 -13 -2 -1 10 -32 26 -68 17 -36 53
-141 82 -234 56 -185 84 -252 158 -383 26 -47 57 -108 67 -136 l19 -50 6 50
c4 28 13 163 20 300 14 269 5 424 -26 471 -27 41 -84 63 -181 68 -49 3 -107 1
-128 -5z"/>
<path d="M5678 5840 c-63 -11 -113 -43 -129 -83 -19 -48 -23 -353 -9 -589 7
-115 16 -208 20 -208 4 0 12 19 19 43 7 23 34 80 61 127 72 128 95 177 123
265 89 281 111 345 133 384 13 24 23 46 21 47 -2 2 -27 8 -57 14 -60 11 -114
11 -182 0z"/>
<path d="M1198 5807 c-68 -26 -167 -117 -192 -179 -35 -83 -5 -196 66 -250 60
-46 71 -45 121 14 61 72 67 87 67 160 0 87 13 107 92 147 58 29 66 36 59 54
-18 48 -142 80 -213 54z"/>
<path d="M2349 5799 c-26 -11 -51 -31 -57 -43 -9 -21 -6 -25 50 -51 82 -39 98
-62 98 -142 0 -35 6 -78 14 -96 16 -36 97 -127 114 -127 23 0 97 67 119 109
29 56 31 136 4 190 -25 47 -123 138 -176 162 -52 24 -109 23 -166 -2z"/>
<path d="M4789 5757 c-51 -31 -93 -69 -115 -102 -16 -24 -20 -54 -24 -172 -3
-92 -1 -143 5 -143 20 0 111 59 143 92 26 27 35 48 43 99 13 80 36 118 101
165 l51 36 -39 24 c-51 31 -116 32 -165 1z"/>
<path d="M6070 5762 c-43 -23 -48 -37 -18 -53 71 -36 128 -128 128 -207 0 -14
11 -40 24 -57 26 -33 104 -88 144 -100 22 -6 22 -6 22 119 0 147 -15 193 -84
252 -75 66 -149 81 -216 46z"/>
<path d="M1510 5741 c-70 -14 -150 -67 -183 -121 -19 -31 -22 -49 -22 -155 0
-111 2 -124 28 -178 16 -31 43 -68 60 -81 88 -65 246 -75 333 -20 79 49 89 80
89 269 0 173 -8 205 -59 257 -37 36 -146 49 -246 29z"/>
<path d="M2006 5741 c-52 -11 -91 -55 -112 -128 -24 -83 -15 -303 15 -359 35
-67 110 -104 210 -104 182 0 282 108 282 305 1 147 -26 198 -130 254 -51 27
-74 33 -143 36 -46 2 -101 0 -122 -4z"/>
<path d="M5028 5691 c-81 -34 -138 -69 -138 -83 0 -5 16 -41 36 -78 39 -75 80
-110 186 -160 94 -45 127 -38 106 20 -5 14 -25 88 -44 165 -35 139 -46 165
-68 165 -6 0 -41 -13 -78 -29z"/>
<path d="M5880 5698 c-10 -24 -79 -284 -87 -330 -5 -25 -2 -28 23 -28 35 0
178 71 216 107 24 23 98 150 98 168 0 9 -202 105 -223 105 -9 0 -22 -10 -27
-22z"/>
<path d="M4867 5523 c-14 -13 -6 -109 12 -149 10 -23 36 -54 57 -70 33 -26 46
-29 108 -29 113 0 186 45 99 61 -83 15 -205 100 -239 166 -15 28 -25 34 -37
21z"/>
<path d="M6105 5493 c-29 -53 -123 -123 -201 -148 -36 -12 -66 -25 -66 -31 -2
-27 110 -52 177 -40 45 9 111 67 124 109 18 59 22 107 11 127 -15 28 -22 25
-45 -17z"/>
<path d="M4778 5384 c-87 -73 -118 -128 -118 -211 0 -106 18 -128 62 -75 13
16 49 48 81 72 l58 43 -7 54 c-3 30 -12 77 -18 105 l-11 50 -47 -38z"/>
<path d="M6186 5409 c-10 -27 -33 -184 -29 -194 2 -5 27 -26 55 -45 27 -19 64
-51 81 -72 28 -35 32 -37 46 -23 11 10 15 36 15 87 1 87 -20 132 -86 194 -67
62 -77 69 -82 53z"/>
<path d="M1215 5323 c-23 -101 -71 -239 -140 -399 -59 -137 -63 -155 -40 -174
38 -31 144 146 211 353 30 94 35 121 30 167 -7 68 -24 130 -35 130 -5 0 -17
-35 -26 -77z"/>
<path d="M2452 5384 c-22 -42 -34 -134 -23 -182 32 -150 126 -362 191 -432 29
-31 32 -32 48 -17 20 21 13 50 -53 197 -59 134 -110 280 -126 361 -15 83 -23
99 -37 73z"/>
<path d="M5224 5300 c-10 -11 -27 -29 -37 -39 -42 -43 -167 -51 -241 -15 -16
8 -31 14 -34 14 -12 0 11 -87 38 -139 19 -38 32 -87 40 -142 6 -46 17 -109 25
-139 8 -30 23 -111 35 -180 22 -127 40 -172 96 -239 14 -17 30 -31 34 -31 5 0
16 21 26 48 9 26 49 126 87 222 80 201 117 306 117 330 0 10 -11 33 -24 52
-13 19 -47 88 -76 152 -30 64 -56 119 -60 121 -4 2 -16 -5 -26 -15z"/>
<path d="M5716 5220 c-25 -55 -46 -103 -46 -108 0 -4 -14 -27 -30 -52 -47 -71
-46 -76 83 -400 47 -119 89 -228 92 -243 9 -34 18 -34 50 1 55 57 75 106 100
243 13 74 30 163 38 199 9 36 18 92 22 125 4 33 22 94 40 135 29 65 40 106 36
132 -1 4 -16 1 -33 -7 -102 -42 -213 -24 -263 41 -14 18 -30 34 -34 34 -4 0
-29 -45 -55 -100z"/>
<path d="M1042 5275 c-16 -13 -46 -56 -66 -95 -33 -61 -38 -84 -49 -185 -10
-103 -9 -117 5 -131 15 -15 20 -15 62 6 39 18 50 31 75 83 57 121 76 236 50
304 -18 49 -36 53 -77 18z"/>
<path d="M2612 5293 c-22 -8 -42 -60 -42 -109 0 -90 58 -252 106 -296 26 -23
71 -39 90 -31 15 5 16 19 11 110 -8 118 -30 192 -79 260 -36 50 -66 73 -86 66z"/>
<path d="M1319 5236 c-11 -53 8 -85 65 -112 53 -25 96 -31 96 -14 0 12 -20 30
-79 73 -24 18 -52 38 -62 46 -11 7 -20 11 -20 7z"/>
<path d="M2344 5214 c-16 -14 -48 -37 -71 -51 -45 -26 -59 -63 -25 -63 20 0
117 44 125 57 11 18 19 83 10 83 -6 0 -23 -12 -39 -26z"/>
<path d="M4785 5119 l-73 -74 -7 -75 c-4 -41 -13 -104 -21 -140 -8 -36 -14
-94 -14 -129 l0 -65 31 30 c36 33 59 81 59 122 0 15 13 46 30 68 60 82 114
308 79 329 -6 4 -43 -26 -84 -66z"/>
<path d="M6136 5168 c-3 -13 -6 -33 -6 -44 0 -42 61 -220 89 -259 16 -22 32
-60 36 -85 8 -48 32 -95 64 -124 20 -18 20 -17 27 10 4 17 -2 89 -15 174 -13
80 -25 161 -28 180 -3 28 -19 49 -76 103 -39 37 -74 67 -78 67 -4 0 -9 -10
-13 -22z"/>
<path d="M1678 5137 c-103 -50 -107 -53 -118 -103 -10 -43 5 -182 21 -199 18
-19 237 117 246 153 9 36 -3 160 -17 177 -18 22 -35 18 -132 -28z"/>
<path d="M1891 5167 c-6 -8 -14 -52 -17 -99 -6 -76 -5 -87 12 -104 33 -33 214
-136 229 -131 29 12 41 211 14 243 -15 18 -191 104 -213 104 -8 0 -19 -6 -25
-13z"/>
<path d="M1300 5136 c0 -33 35 -108 61 -132 18 -17 21 -16 56 12 20 17 38 35
40 41 2 6 -19 19 -47 28 -27 9 -64 30 -80 47 l-30 30 0 -26z"/>
<path d="M2369 5131 c-14 -14 -49 -34 -77 -45 -29 -10 -52 -21 -52 -25 1 -14
82 -72 94 -68 21 8 68 112 64 140 l-3 24 -26 -26z"/>
<path d="M4596 5043 c-26 -112 -32 -282 -13 -308 9 -11 17 -18 20 -15 12 14
77 215 77 240 0 32 -48 160 -60 160 -4 0 -15 -35 -24 -77z"/>
<path d="M6367 5070 c-36 -82 -40 -110 -22 -166 34 -102 67 -184 75 -184 5 0
14 16 20 36 14 42 8 145 -17 263 -22 111 -27 116 -56 51z"/>
<path d="M1459 5022 c-34 -32 -48 -52 -44 -63 7 -18 87 -79 104 -79 7 0 11 33
11 95 0 61 -4 95 -11 95 -6 0 -33 -21 -60 -48z"/>
<path d="M2178 5010 c-4 -113 -3 -123 8 -127 16 -5 104 66 104 84 0 15 -86
102 -102 103 -5 0 -9 -27 -10 -60z"/>
<path d="M1306 4995 c5 -55 42 -141 55 -128 4 4 11 26 14 48 5 36 2 44 -34 85
l-40 45 5 -50z"/>
<path d="M2356 4996 c-39 -46 -42 -64 -22 -111 l13 -30 22 43 c21 41 41 142
28 142 -3 0 -22 -20 -41 -44z"/>
<path d="M1397 4923 c-3 -4 -8 -22 -11 -38 -7 -35 4 -49 86 -104 53 -36 63
-30 54 32 -5 33 -14 47 -39 63 -18 11 -44 28 -59 38 -14 9 -28 13 -31 9z"/>
<path d="M2270 4915 c-7 -8 -30 -25 -51 -37 -29 -16 -39 -28 -40 -47 0 -14 -2
-33 -4 -42 -9 -47 27 -35 120 39 26 21 28 26 19 59 -10 41 -25 51 -44 28z"/>
<path d="M1720 4864 c-120 -64 -134 -80 -135 -151 l0 -58 100 -3 c154 -4 145
-12 145 122 0 80 -4 117 -13 124 -9 8 -35 -1 -97 -34z"/>
<path d="M1881 4897 c-15 -15 -15 -219 1 -235 8 -8 50 -12 125 -12 l113 0 0
44 c0 52 -14 94 -38 113 -9 7 -56 33 -103 58 -65 33 -89 41 -98 32z"/>
<path d="M5390 4813 c-89 -187 -186 -444 -192 -508 -3 -28 4 -35 122 -112
l125 -82 9 27 c30 97 9 742 -24 742 -5 0 -23 -30 -40 -67z"/>
<path d="M5576 4863 c-26 -88 -42 -464 -26 -622 6 -63 13 -118 16 -122 2 -4
61 28 129 73 101 65 125 85 125 104 0 46 -102 317 -196 521 -31 66 -39 74 -48
46z"/>
<path d="M874 4801 c-16 -16 -49 -64 -73 -108 -33 -60 -45 -95 -53 -153 -6
-41 -32 -190 -59 -330 -49 -257 -57 -320 -39 -320 13 0 44 62 79 158 16 42 63
163 104 267 55 138 79 211 86 268 17 123 13 247 -8 247 -4 0 -21 -13 -37 -29z"/>
<path d="M1372 4774 c5 -54 8 -61 52 -101 27 -24 61 -52 77 -64 l29 -20 0 63
0 64 -72 54 c-40 30 -77 57 -82 59 -5 2 -7 -23 -4 -55z"/>
<path d="M2243 4772 l-73 -57 0 -63 c0 -59 1 -62 19 -52 11 5 47 36 80 68 59
56 61 59 61 110 0 28 -3 52 -7 51 -5 0 -41 -26 -80 -57z"/>
<path d="M2780 4811 c-5 -11 -10 -51 -10 -89 0 -137 23 -221 147 -531 65 -162
124 -296 131 -299 22 -7 13 73 -37 326 -27 136 -52 277 -55 314 -4 54 -14 83
-47 145 -48 88 -71 121 -99 140 -17 12 -20 11 -30 -6z"/>
<path d="M4544 4608 c5 -120 11 -148 31 -148 17 0 44 58 51 112 6 40 3 47 -36
96 -23 28 -44 52 -46 52 -2 0 -2 -51 0 -112z"/>
<path d="M6428 4674 c-32 -38 -38 -53 -38 -92 0 -49 26 -113 47 -120 7 -2 17
7 22 20 10 26 20 238 11 237 -3 0 -22 -21 -42 -45z"/>
<path d="M1380 4618 c0 -74 0 -74 43 -114 38 -37 96 -79 98 -72 7 20 8 121 2
131 -4 8 -38 40 -75 71 l-68 57 0 -73z"/>
<path d="M2285 4662 c-17 -15 -48 -42 -70 -61 -38 -33 -39 -36 -38 -94 1 -33
4 -61 7 -64 7 -8 63 25 99 60 40 38 54 88 41 147 l-9 39 -30 -27z"/>
<path d="M980 4665 c-6 -8 -20 -52 -30 -98 -10 -45 -39 -130 -65 -187 -67
-149 -175 -440 -175 -470 l1 -25 18 22 c10 12 33 59 51 105 52 129 123 277
164 341 52 81 86 185 86 264 0 55 -2 63 -19 63 -10 0 -24 -7 -31 -15z"/>
<path d="M2670 4621 c0 -81 28 -163 94 -279 59 -104 116 -224 160 -337 15 -39
36 -81 46 -95 l20 -25 0 25 c0 38 -109 333 -178 480 -22 47 -47 119 -56 160
-24 109 -34 130 -62 130 -23 0 -24 -4 -24 -59z"/>
<path d="M4451 4543 c-38 -299 -85 -585 -107 -657 -4 -13 -2 -16 6 -11 18 11
134 254 160 336 20 61 22 84 17 178 -5 98 -33 220 -56 244 -4 4 -13 -37 -20
-90z"/>
<path d="M6528 4597 c-24 -59 -37 -122 -44 -219 -5 -72 -3 -93 20 -163 14 -44
55 -140 90 -212 65 -133 96 -172 71 -90 -17 56 -59 308 -89 536 -14 101 -26
185 -28 186 -2 2 -11 -15 -20 -38z"/>
<path d="M1642 4613 c-52 -12 -63 -19 -68 -40 -9 -32 2 -123 16 -137 6 -6 61
-12 125 -14 l113 -4 7 85 c10 122 7 127 -68 126 -34 -1 -90 -8 -125 -16z"/>
<path d="M1872 4528 l3 -103 105 -3 c139 -4 145 1 145 100 l0 73 -65 17 c-36
9 -93 16 -128 17 l-63 1 3 -102z"/>
<path d="M1043 4548 c-16 -83 -56 -178 -104 -249 -47 -69 -83 -146 -145 -305
-80 -207 -34 -140 71 102 29 69 72 156 94 194 65 113 135 282 124 299 -19 30
-29 20 -40 -41z"/>
<path d="M2620 4595 c-16 -19 17 -102 116 -290 34 -66 87 -176 117 -245 55
-127 105 -220 92 -170 -29 105 -137 349 -181 407 -40 53 -83 153 -101 236 -10
42 -21 77 -24 77 -4 0 -12 -7 -19 -15z"/>
<path d="M4406 4559 c-3 -13 -17 -94 -31 -179 -35 -211 -52 -299 -81 -404 -14
-48 -23 -90 -20 -93 12 -12 57 80 80 162 40 143 86 509 67 528 -7 7 -12 2 -15
-14z"/>
<path d="M6593 4488 c10 -155 47 -389 73 -468 23 -69 71 -156 81 -146 2 2 -5
32 -16 66 -24 72 -58 238 -97 473 -16 92 -32 167 -38 167 -5 0 -7 -37 -3 -92z"/>
<path d="M4679 4542 c-35 -4 -51 -35 -119 -237 -57 -166 -123 -338 -139 -360
-5 -5 -11 -19 -14 -30 l-7 -20 16 20 c33 42 255 491 289 587 15 41 12 45 -26
40z"/>
<path d="M6300 4538 c1 -40 294 -647 307 -635 2 3 -12 39 -31 81 -20 43 -68
170 -107 284 -39 114 -78 220 -86 235 -18 36 -83 63 -83 35z"/>
<path d="M1374 4499 c-3 -6 -10 -73 -14 -148 -5 -100 -3 -141 6 -156 6 -11 45
-55 85 -98 59 -61 80 -77 103 -77 22 0 27 4 22 17 -15 37 -24 104 -31 212 -8
135 -11 144 -52 173 -17 13 -49 38 -71 56 -27 22 -43 29 -48 21z"/>
<path d="M2301 4496 c-6 -7 -38 -33 -71 -57 -67 -49 -61 -30 -80 -244 -5 -66
-13 -132 -16 -147 -6 -24 -3 -28 17 -28 17 0 49 26 112 91 l87 92 -5 91 c-14
218 -17 235 -44 202z"/>
<path d="M5031 4444 c-11 -14 -23 -46 -27 -71 -6 -43 1 -191 10 -201 3 -2 21
14 41 37 20 22 56 52 81 66 25 15 44 33 44 43 0 33 -91 152 -116 152 -7 0 -22
-12 -33 -26z"/>
<path d="M5892 4418 c-76 -102 -76 -106 3 -153 24 -14 57 -41 73 -61 28 -33
30 -35 37 -16 3 12 6 61 7 110 1 69 -4 99 -18 128 -29 59 -54 57 -102 -8z"/>
<path d="M1580 4366 c0 -96 52 -380 87 -476 32 -87 89 -154 138 -162 19 -3 20
5 29 311 7 284 7 315 -8 330 -13 12 -42 17 -131 19 l-115 4 0 -26z"/>
<path d="M1890 4377 c-14 -7 -24 -20 -24 -30 1 -9 2 -149 3 -309 1 -161 5
-299 10 -306 7 -12 13 -11 37 1 67 35 112 112 149 256 19 76 55 310 55 364 l0
37 -102 0 c-63 0 -113 -5 -128 -13z"/>
<path d="M5076 4184 c-33 -33 -81 -131 -92 -189 l-7 -39 49 36 c130 94 174
120 236 139 37 12 68 24 68 29 0 18 -80 44 -150 48 -72 4 -76 3 -104 -24z"/>
<path d="M5745 4194 c-71 -26 -73 -38 -8 -58 76 -24 99 -36 198 -107 46 -32
88 -59 94 -59 25 0 -42 165 -87 213 -23 24 -32 27 -91 26 -36 0 -84 -7 -106
-15z"/>
<path d="M5265 4097 c-101 -41 -227 -126 -264 -178 -16 -22 -32 -56 -36 -77
-14 -88 40 -229 126 -325 45 -51 57 -58 133 -82 161 -49 226 -27 226 75 0 29
9 98 21 153 16 78 20 129 17 217 -3 103 -6 120 -30 160 -36 62 -65 90 -91 90
-12 0 -58 -15 -102 -33z"/>
<path d="M5593 4094 c-63 -80 -68 -98 -67 -234 0 -89 7 -154 22 -227 12 -56
22 -122 22 -147 0 -40 3 -47 30 -61 36 -19 96 -19 152 -1 24 8 58 17 76 21 62
13 164 139 202 249 24 69 26 155 5 195 -39 77 -271 224 -374 238 -34 5 -40 2
-68 -33z"/>
<path d="M1420 4067 c0 -5 21 -52 46 -105 55 -117 105 -241 170 -424 27 -76
54 -138 60 -138 15 0 41 30 53 61 26 69 -114 393 -218 504 -49 53 -111 109
-111 102z"/>
<path d="M2199 3992 c-91 -97 -168 -232 -221 -388 -41 -118 -41 -137 0 -186
23 -28 39 -21 52 20 38 117 150 403 197 505 30 65 53 120 50 123 -2 2 -38 -31
-78 -74z"/>
<path d="M1405 3975 c16 -52 149 -560 184 -706 47 -197 91 -410 91 -447 1 -26
1 -26 13 -7 8 14 12 73 12 185 0 146 -3 177 -27 270 -40 157 -91 304 -175 499
-69 162 -114 256 -98 206z"/>
<path d="M2210 3798 c-99 -232 -171 -444 -199 -591 -23 -121 -27 -276 -9 -359
l11 -53 24 130 c24 137 168 723 228 934 20 68 34 126 32 128 -2 2 -41 -83 -87
-189z"/>
<path d="M1342 3950 c-44 -72 -90 -233 -98 -351 -9 -114 5 -205 78 -493 108
-434 152 -545 194 -489 45 62 69 383 43 598 -13 116 -53 274 -127 505 -32 102
-63 200 -68 218 -9 31 -10 32 -22 12z"/>
<path d="M2335 3928 c-4 -18 -36 -123 -72 -233 -82 -255 -108 -365 -124 -512
-25 -244 14 -583 67 -583 19 0 57 78 87 180 40 133 133 505 152 609 31 168 8
356 -62 514 -14 31 -29 57 -34 57 -4 0 -11 -15 -14 -32z"/>
<path d="M538 3804 c-134 -88 -124 -189 24 -263 65 -33 102 -38 142 -20 31 15
45 54 56 157 11 116 -11 146 -117 158 -43 5 -54 2 -105 -32z"/>
<path d="M3007 3826 c-20 -8 -44 -19 -52 -26 -18 -15 -20 -95 -4 -187 19 -106
72 -128 184 -75 70 34 125 90 125 130 0 37 -23 77 -61 110 -72 61 -120 73
-192 48z"/>
<path d="M4194 3802 c-63 -41 -94 -86 -94 -138 0 -55 117 -142 205 -151 63 -7
90 20 105 105 6 38 10 92 8 122 -3 49 -6 56 -35 72 -17 10 -53 21 -80 24 -44
5 -53 2 -109 -34z"/>
<path d="M6675 3831 c-45 -11 -75 -33 -82 -61 -8 -30 14 -185 30 -220 27 -56
116 -49 215 16 88 58 98 129 29 202 -57 60 -120 80 -192 63z"/>
<path d="M380 3702 c-23 -32 -57 -66 -76 -77 -23 -12 -34 -25 -34 -41 0 -19 4
-22 26 -18 35 6 83 43 101 78 22 41 42 116 32 116 -4 0 -27 -26 -49 -58z"/>
<path d="M3270 3741 c5 -11 10 -28 10 -38 0 -24 45 -93 75 -115 12 -9 34 -20
49 -24 23 -5 26 -3 26 20 0 18 -8 30 -29 41 -17 8 -51 42 -76 75 -44 58 -78
82 -55 41z"/>
<path d="M4035 3700 c-25 -33 -59 -67 -76 -75 -26 -14 -38 -43 -23 -57 11 -12
54 8 88 39 32 31 85 153 65 153 -4 0 -29 -27 -54 -60z"/>
<path d="M6923 3748 c3 -9 11 -35 17 -57 12 -47 51 -96 92 -117 64 -33 79 11
18 52 -22 15 -49 41 -59 58 -25 39 -77 89 -68 64z"/>
<path d="M4890 3472 c0 -245 33 -604 66 -719 9 -29 17 -53 18 -53 2 0 3 57 2
128 0 70 3 199 8 287 7 132 6 176 -8 252 -16 94 -61 223 -77 223 -5 0 -9 -53
-9 -118z"/>
<path d="M6072 3498 c-43 -132 -56 -274 -42 -442 7 -72 10 -179 8 -239 -1 -59
0 -107 3 -107 12 0 39 130 54 257 17 148 35 518 28 581 -3 23 -9 42 -13 42 -4
0 -21 -42 -38 -92z"/>
<path d="M376 3464 c-57 -107 -73 -160 -39 -133 9 8 41 49 72 92 31 44 62 87
70 98 11 15 11 22 1 34 -28 34 -47 17 -104 -91z"/>
<path d="M3226 3557 c-17 -12 -14 -18 36 -88 29 -41 64 -91 78 -112 30 -45 52
-50 41 -9 -14 47 -112 222 -125 222 -7 0 -20 -6 -30 -13z"/>
<path d="M4037 3468 c-63 -118 -76 -153 -56 -146 14 5 28 22 123 153 47 64 48
69 31 81 -10 8 -24 14 -31 14 -7 0 -37 -46 -67 -102z"/>
<path d="M6883 3563 c-15 -6 -17 -39 -4 -48 6 -3 40 -48 76 -100 36 -52 70
-95 75 -95 16 0 11 33 -10 70 -10 19 -36 68 -57 108 -36 68 -48 78 -80 65z"/>
<path d="M496 3508 c-2 -7 -22 -62 -44 -123 -59 -161 -58 -157 -31 -153 18 2
33 27 80 136 l58 133 -25 10 c-32 12 -34 11 -38 -3z"/>
<path d="M3163 3510 l-22 -9 38 -83 c21 -46 46 -104 56 -130 16 -43 47 -70 62
-54 4 3 -13 59 -37 123 -24 65 -47 128 -52 141 -8 24 -12 25 -45 12z"/>
<path d="M4146 3485 c-9 -21 -16 -40 -16 -44 0 -3 -16 -48 -35 -99 -39 -103
-41 -112 -21 -112 21 0 35 22 87 143 50 114 56 137 40 137 -5 0 -16 3 -25 6
-10 4 -20 -5 -30 -31z"/>
<path d="M6817 3513 c-22 -6 -22 -7 32 -133 56 -130 64 -144 84 -148 26 -5 22
20 -24 143 -55 151 -53 148 -92 138z"/>
<path d="M677 3493 c-10 -9 -8 -176 2 -191 14 -23 31 44 31 124 0 55 -3 74
-13 74 -8 0 -17 -3 -20 -7z"/>
<path d="M2994 3408 c5 -84 17 -121 31 -106 8 8 8 174 0 187 -3 6 -13 11 -22
11 -14 0 -15 -12 -9 -92z"/>
<path d="M4335 3490 c-18 -29 -13 -190 5 -190 13 0 18 25 25 118 5 68 3 82 -9
82 -8 0 -18 -4 -21 -10z"/>
<path d="M5049 3480 c-10 -19 -15 -115 -21 -408 -5 -297 -12 -414 -27 -520
-29 -204 -33 -242 -27 -242 9 0 64 114 91 188 39 108 82 272 89 337 4 33 11
157 16 275 l9 215 -24 51 c-14 27 -40 68 -58 89 l-34 39 -14 -24z"/>
<path d="M6650 3406 c3 -52 9 -98 13 -102 15 -15 22 11 26 93 2 64 0 88 -10
94 -31 19 -34 9 -29 -85z"/>
<path d="M575 3478 c-6 -19 -35 -216 -35 -238 0 -25 27 -26 34 -2 9 29 46 216
46 235 0 20 -38 24 -45 5z"/>
<path d="M3080 3476 c0 -12 31 -175 45 -233 7 -31 35 -30 35 0 0 13 -7 68 -15
123 -8 54 -15 105 -15 112 0 6 -11 12 -25 12 -15 0 -25 -6 -25 -14z"/>
<path d="M4230 3478 c0 -7 -7 -58 -15 -112 -19 -125 -19 -146 0 -146 8 0 15 2
15 4 0 2 11 58 25 124 14 66 25 126 25 131 0 6 -11 11 -25 11 -14 0 -25 -6
-25 -12z"/>
<path d="M5903 3447 c-39 -52 -73 -129 -67 -154 2 -10 8 -124 14 -253 10 -244
19 -298 81 -490 43 -131 133 -303 115 -217 -3 12 -13 76 -22 142 -9 66 -19
124 -22 129 -3 6 -9 195 -12 420 -8 491 -14 519 -87 423z"/>
<path d="M6738 3485 c-10 -11 45 -257 59 -262 8 -3 16 -3 19 0 5 5 -16 162
-32 240 -5 25 -31 37 -46 22z"/>
<path d="M1734 3399 l-38 -52 12 -81 c7 -44 17 -110 24 -146 10 -60 12 -63 20
-35 12 43 38 261 38 317 0 26 -4 48 -9 48 -5 0 -26 -23 -47 -51z"/>
<path d="M1910 3413 c0 -93 37 -349 48 -338 4 3 16 63 28 133 15 91 18 133 11
147 -15 30 -69 95 -79 95 -4 0 -8 -17 -8 -37z"/>
<path d="M5340 3371 c-25 -3 -45 -10 -45 -16 0 -5 13 -34 28 -63 42 -80 60
-165 54 -247 -5 -53 -4 -64 4 -45 19 46 58 220 65 289 6 63 5 70 -14 80 -11 6
-27 10 -34 9 -7 0 -33 -4 -58 -7z"/>
<path d="M5594 3373 c-29 -5 -33 -26 -22 -104 10 -78 57 -277 66 -283 4 -2 7
45 7 104 0 107 0 109 42 190 26 52 37 82 30 85 -23 7 -102 12 -123 8z"/>
<path d="M1228 3309 c-1 -13 0 -64 4 -114 20 -245 42 -363 81 -440 11 -22 32
-71 47 -110 31 -85 54 -93 58 -21 2 36 -8 82 -42 185 -50 153 -75 248 -106
401 -21 107 -36 141 -42 99z"/>
<path d="M2452 3303 c-6 -15 -16 -59 -22 -98 -19 -113 -58 -260 -106 -403 -33
-99 -44 -146 -42 -180 4 -63 26 -62 51 3 11 28 35 84 53 125 40 91 69 239 83
419 10 138 4 188 -17 134z"/>
<path d="M5221 3303 c-34 -83 -66 -798 -41 -917 16 -80 25 -60 45 95 28 225
57 393 78 459 23 73 26 168 8 240 -14 51 -61 150 -71 150 -4 0 -13 -12 -19
-27z"/>
<path d="M5747 3289 c-31 -53 -57 -154 -57 -225 0 -29 9 -80 19 -115 26 -85
46 -198 71 -399 23 -181 28 -210 40 -210 35 0 35 420 0 790 -14 142 -18 163
-34 185 -12 17 -15 15 -39 -26z"/>
<path d="M2095 3054 c-22 -52 -43 -139 -51 -208 -7 -59 13 -284 26 -299 14
-16 48 12 60 49 9 28 9 58 -1 137 -7 56 -13 159 -13 229 -1 71 -2 128 -3 128
-2 0 -10 -16 -18 -36z"/>
<path d="M1590 2982 c0 -53 -7 -155 -15 -225 -8 -71 -12 -139 -9 -152 8 -33
51 -72 65 -58 15 15 24 124 23 258 -1 90 -6 125 -28 193 -15 45 -29 82 -31 82
-3 0 -5 -44 -5 -98z"/>
<path d="M5337 2948 c-3 -23 -17 -92 -32 -153 -18 -75 -29 -159 -35 -265 -5
-85 -12 -182 -16 -215 -3 -33 -3 -57 0 -54 12 11 37 164 47 289 5 69 21 171
34 227 26 105 31 178 16 201 -5 9 -10 -1 -14 -30z"/>
<path d="M5656 2949 c-5 -35 -1 -72 19 -150 14 -57 30 -156 35 -219 23 -280
50 -366 43 -140 -5 162 -19 259 -72 480 l-17 75 -8 -46z"/>
<path d="M1377 2506 c-21 -21 -21 -55 -2 -131 37 -139 71 -180 125 -148 48 28
74 94 75 185 0 42 -5 82 -11 88 -6 6 -46 13 -90 16 -67 6 -83 4 -97 -10z"/>
<path d="M2170 2511 c-29 -5 -35 -11 -42 -41 -19 -87 16 -200 75 -244 l27 -20
28 21 c19 14 35 44 54 99 31 91 35 155 12 178 -16 17 -84 20 -154 7z"/>
<path d="M1623 2448 c-5 -7 -17 -41 -26 -76 -10 -34 -43 -117 -74 -184 -36
-79 -58 -140 -61 -172 -5 -48 -4 -50 13 -36 40 33 175 360 175 425 0 40 -13
61 -27 43z"/>
<path d="M2056 2445 c-3 -9 -6 -27 -6 -40 0 -57 138 -394 173 -424 42 -35 17
76 -48 216 -25 53 -55 128 -66 167 -24 80 -42 108 -53 81z"/>
<path d="M5913 2340 c4 -47 10 -244 13 -439 7 -329 9 -356 26 -373 12 -12 30
-18 46 -16 23 3 30 11 44 55 32 95 41 190 35 373 -7 238 -26 302 -123 425
l-47 60 6 -85z"/>
<path d="M1335 2400 c-4 -6 -8 -118 -8 -248 -2 -234 6 -340 39 -522 24 -134
104 -370 125 -370 14 0 10 216 -6 343 -18 132 -132 798 -139 804 -2 2 -7 -1
-11 -7z"/>
<path d="M2350 2408 c-1 -8 -53 -320 -84 -498 -49 -284 -66 -424 -66 -546 0
-145 13 -141 68 21 62 180 90 335 108 591 8 119 -4 434 -17 434 -5 0 -9 -1 -9
-2z"/>
<path d="M5042 2338 c-59 -81 -85 -154 -103 -285 -22 -164 4 -456 47 -520 18
-29 55 -30 80 -2 18 20 19 47 26 439 3 231 9 424 13 429 3 6 2 11 -3 11 -5 0
-32 -32 -60 -72z"/>
<path d="M5139 2385 c0 -16 -2 -214 -3 -439 -1 -293 2 -413 10 -425 28 -37
105 47 140 152 14 42 16 74 11 181 -8 160 -34 290 -77 376 -17 36 -42 92 -55
125 -21 52 -24 56 -26 30z"/>
<path d="M5863 2393 c-3 -10 -28 -68 -54 -129 -27 -61 -55 -140 -63 -175 -22
-96 -39 -283 -33 -346 11 -105 99 -243 145 -229 27 9 30 46 20 230 -4 83 -5
267 -1 409 6 236 3 287 -14 240z"/>
<path d="M1295 2213 c-14 -56 -22 -290 -14 -447 7 -158 13 -191 79 -481 12
-49 20 -106 20 -125 -3 -59 -2 -64 14 -51 23 19 39 97 33 154 -4 28 -22 115
-41 192 -72 295 -81 360 -79 583 1 111 0 202 -2 202 -1 0 -6 -12 -10 -27z"/>
<path d="M2397 2064 c6 -193 -5 -282 -79 -594 -47 -197 -53 -285 -24 -338 9
-19 20 -31 23 -28 3 3 7 34 8 68 1 35 14 113 29 173 51 210 56 241 67 414 9
128 9 209 1 314 -17 204 -33 198 -25 -9z"/>
<path d="M1546 2039 c-27 -56 -51 -120 -53 -142 -2 -23 5 -138 16 -255 12
-117 21 -234 21 -259 0 -69 14 -44 45 77 14 58 37 141 51 185 22 68 25 92 21
165 -7 105 -38 330 -46 330 -3 -1 -28 -46 -55 -101z"/>
<path d="M2096 2129 c-14 -44 -40 -258 -40 -339 -1 -78 4 -110 26 -175 15 -44
36 -118 48 -165 11 -47 23 -92 27 -100 6 -16 51 430 52 520 1 47 -7 71 -54
165 -30 60 -56 102 -59 94z"/>
<path d="M4995 1437 c-13 -21 -13 -29 5 -83 10 -32 31 -147 45 -254 27 -205
44 -305 51 -297 16 16 22 138 14 294 -14 274 -20 323 -41 344 -26 26 -55 24
-74 -4z"/>
<path d="M5953 1448 c-25 -12 -29 -32 -43 -243 -16 -222 -11 -395 10 -395 9 0
21 73 55 321 13 102 32 205 40 229 20 56 19 77 -4 90 -23 12 -29 12 -58 -2z"/>
<path d="M5134 1384 c-7 -57 1 -380 13 -509 l6 -70 23 150 c12 83 27 177 33
210 5 33 13 100 17 148 7 99 -5 127 -57 127 -26 0 -28 -3 -35 -56z"/>
<path d="M5800 1425 c-16 -20 -7 -230 14 -320 8 -33 19 -100 25 -150 19 -142
24 -150 32 -45 9 122 11 494 3 514 -8 21 -58 21 -74 1z"/>
<path d="M1480 1212 c0 -5 13 -26 30 -48 16 -21 30 -44 30 -51 0 -6 5 -15 10
-18 23 -14 10 64 -16 94 -24 29 -54 41 -54 23z"/>
<path d="M2171 1196 c-20 -22 -42 -106 -28 -106 4 0 15 17 26 38 10 20 28 45
40 56 21 19 20 36 -3 36 -7 0 -23 -11 -35 -24z"/>
<path d="M1427 1133 c-8 -10 -18 -36 -22 -58 -4 -22 -13 -61 -21 -87 -18 -57
-10 -74 55 -115 25 -15 60 -41 78 -56 l33 -29 11 29 c31 81 16 191 -36 274
-37 58 -70 72 -98 42z"/>
<path d="M2205 1126 c-59 -59 -92 -177 -75 -266 12 -63 26 -84 41 -57 6 9 41
38 80 63 74 49 87 71 69 119 -6 17 -16 52 -21 79 -10 52 -32 86 -56 86 -8 0
-25 -11 -38 -24z"/>
<path d="M5022 825 c0 -60 3 -123 7 -140 6 -30 7 -30 77 -33 94 -4 96 0 102
141 4 114 -3 135 -19 51 -11 -57 -33 -84 -69 -84 -36 0 -45 13 -59 81 -7 31
-18 65 -26 75 -13 17 -14 6 -13 -91z"/>
<path d="M5972 913 c-6 -10 -13 -38 -17 -63 -9 -58 -30 -90 -58 -90 -38 0 -58
23 -68 75 -5 27 -14 54 -20 60 -14 13 -3 -199 12 -226 8 -16 22 -19 84 -19
l74 0 5 33 c10 63 14 247 5 247 -4 0 -12 -8 -17 -17z"/>
<path d="M1365 788 c-16 -24 -48 -68 -72 -99 -48 -62 -51 -74 -24 -89 28 -14
161 -41 172 -34 5 3 9 14 9 24 0 11 9 42 20 69 11 30 19 70 18 97 -2 39 -7 48
-30 60 -44 23 -63 17 -93 -28z"/>
<path d="M2244 814 c-30 -14 -31 -18 -29 -72 1 -31 9 -71 18 -89 9 -18 17 -43
17 -57 0 -34 8 -37 81 -24 71 12 119 32 119 50 0 6 -24 43 -54 82 -29 39 -61
83 -71 99 -20 31 -37 33 -81 11z"/>
<path d="M1512 745 c-28 -109 -39 -170 -35 -183 3 -7 17 -12 31 -10 22 2 30
12 45 57 17 48 18 57 4 90 -8 20 -19 47 -25 61 -9 24 -10 24 -20 -15z"/>
<path d="M2153 721 c-22 -57 -22 -59 -5 -112 13 -43 22 -55 41 -57 38 -6 44
10 27 69 -9 29 -16 66 -16 83 -1 17 -6 41 -13 53 -11 20 -13 18 -34 -36z"/>
<path d="M4896 622 c-17 -28 122 -70 246 -75 61 -2 63 -1 66 23 5 51 -6 55
-162 58 -85 2 -146 0 -150 -6z"/>
<path d="M5838 623 c-18 -5 -34 -56 -22 -74 14 -23 239 14 289 47 14 9 22 20
19 25 -5 9 -253 11 -286 2z"/>
</g>
</svg>
