<?xml version="1.0" standalone="no"?>
<!DOCTYPE svg PUBLIC "-//W3C//DTD SVG 20010904//EN"
 "http://www.w3.org/TR/2001/REC-SVG-20010904/DTD/svg10.dtd">
<svg version="1.0" xmlns="http://www.w3.org/2000/svg"
 width="736.000000pt" height="721.000000pt" viewBox="0 0 736.000000 721.000000"
 preserveAspectRatio="xMidYMid meet">

<g transform="translate(0.000000,721.000000) scale(0.100000,-0.100000)"
fill="#000000" stroke="none">
<path d="M1314 7200 c-92 -19 -188 -84 -229 -154 -64 -110 -78 -204 -58 -391
8 -77 13 -185 11 -240 -4 -105 -6 -111 -112 -398 -38 -102 -45 -146 -23 -148
6 -1 98 -2 202 -3 272 -3 295 9 295 154 0 38 -4 72 -10 75 -11 7 -60 109 -60
125 0 6 -13 24 -29 41 -52 54 -68 181 -24 187 24 4 38 34 49 102 8 58 15 65
77 86 64 21 139 57 193 95 60 41 82 43 173 19 92 -25 85 -15 115 -170 20 -108
31 -130 60 -130 22 0 25 -5 28 -42 3 -38 4 -35 16 35 23 147 11 276 -37 382
-41 90 -105 149 -203 184 -17 6 -33 24 -41 44 -43 101 -248 178 -393 147z
m351 -152 c14 -6 25 -14 25 -17 0 -3 -38 -6 -85 -7 -47 0 -85 1 -85 3 0 1 12
9 28 17 33 18 82 20 117 4z"/>
<path d="M5440 7197 c-163 -46 -247 -146 -281 -331 -10 -52 -10 -91 2 -198 29
-278 20 -349 -77 -590 -24 -59 -48 -127 -53 -150 -15 -66 -5 -72 107 -64 87 7
377 -3 340 -12 -35 -7 -17 -20 38 -27 52 -6 114 -22 155 -39 14 -6 17 11 23
146 4 84 8 153 9 154 1 1 22 4 47 5 l45 4 6 -115 c4 -63 7 -134 8 -156 l1 -42
58 18 c31 10 83 21 115 25 61 8 74 19 30 28 -80 16 -137 94 -149 202 l-6 60
38 14 c22 7 67 26 100 41 61 27 62 29 83 91 49 150 66 346 40 471 -26 124
-101 221 -203 262 -48 20 -61 30 -78 66 -12 23 -39 55 -61 71 -81 59 -248 91
-337 66z m415 -326 c-38 -74 -165 -83 -210 -14 -19 29 -3 31 32 3 50 -39 147
-18 173 39 7 14 15 21 17 14 2 -6 -3 -25 -12 -42z m-265 -748 c25 -9 46 -17
47 -18 1 0 -3 -32 -8 -70 -13 -84 -29 -116 -69 -145 l-30 -21 0 135 c0 75 3
136 7 136 4 0 28 -8 53 -17z"/>
<path d="M1950 6302 c0 -7 -9 -21 -20 -32 -26 -26 -54 -93 -37 -88 15 5 72
116 63 125 -3 3 -6 1 -6 -5z"/>
<path d="M1743 5938 c-7 -8 -37 -65 -68 -127 -47 -96 -55 -120 -55 -168 0 -73
8 -65 84 79 54 101 57 110 54 169 -2 51 -5 60 -15 47z"/>
<path d="M1460 5891 c0 -44 10 -70 63 -172 34 -67 67 -122 72 -123 6 0 11 20
13 45 3 39 -6 63 -60 169 -35 69 -69 126 -75 128 -9 3 -13 -11 -13 -47z"/>
<path d="M1560 5880 c0 -30 31 -103 48 -114 11 -7 62 95 62 123 0 19 -6 21
-55 21 -55 0 -55 0 -55 -30z"/>
<path d="M1330 5800 c-100 -53 -129 -77 -111 -89 7 -5 34 -11 58 -15 42 -6 49
-3 94 35 54 45 73 73 65 95 -8 21 -24 17 -106 -26z"/>
<path d="M1790 5817 c0 -14 20 -42 54 -76 52 -52 54 -52 98 -46 67 10 78 21
48 46 -27 23 -173 99 -190 99 -5 0 -10 -10 -10 -23z"/>
<path d="M5226 5791 c-3 -4 11 -13 32 -19 75 -23 133 -100 191 -257 67 -179
119 -258 214 -322 46 -31 52 -33 58 -16 3 10 4 129 1 265 l-5 247 -38 25 c-47
31 -135 62 -220 75 -77 13 -226 14 -233 2z"/>
<path d="M6007 5784 c-90 -19 -165 -48 -200 -77 l-29 -23 -5 -246 c-3 -135 -3
-253 0 -262 6 -15 9 -15 38 -1 46 24 113 90 148 143 16 26 55 110 85 186 31
77 68 157 83 179 30 43 82 82 125 92 104 26 -129 34 -245 9z"/>
<path d="M1023 5772 c-47 -14 -112 -72 -137 -120 -28 -55 -54 -208 -37 -225 6
-6 15 3 25 28 9 21 16 39 16 42 0 18 94 158 139 206 43 46 52 60 40 68 -16 10
-15 10 -46 1z"/>
<path d="M2151 5771 c-11 -7 0 -25 54 -83 48 -52 80 -100 114 -168 25 -52 47
-97 48 -99 1 -1 6 -1 10 2 11 7 0 126 -16 185 -15 54 -77 124 -135 152 -47 22
-55 24 -75 11z"/>
<path d="M5104 5741 c-37 -22 -78 -73 -94 -116 -25 -65 -33 -276 -11 -275 3 0
17 19 31 42 27 44 178 203 250 262 44 36 44 38 25 53 -68 52 -149 66 -201 34z"/>
<path d="M6263 5744 c-17 -9 -39 -24 -48 -34 -17 -18 -13 -24 74 -117 50 -54
115 -130 144 -170 28 -39 55 -72 58 -72 12 -2 19 154 10 215 -10 70 -22 97
-60 137 -52 57 -115 72 -178 41z"/>
<path d="M1144 5718 c-51 -38 -145 -132 -175 -174 -28 -41 -60 -114 -73 -166
-6 -27 -5 -28 31 -28 63 0 113 19 158 61 53 49 81 112 99 225 18 113 14 123
-40 82z"/>
<path d="M1424 5705 c-20 -38 -15 -49 27 -59 39 -9 50 11 32 57 -19 46 -35 47
-59 2z"/>
<path d="M1745 5710 c-28 -54 -16 -76 35 -65 17 4 30 13 30 21 0 21 -29 74
-40 74 -5 0 -16 -13 -25 -30z"/>
<path d="M2030 5713 c1 -46 27 -176 44 -214 36 -86 127 -149 215 -149 l43 0
-7 38 c-18 94 -115 233 -217 308 -33 24 -64 44 -69 44 -5 0 -9 -12 -9 -27z"/>
<path d="M5303 5601 c-48 -35 -97 -103 -119 -162 -8 -23 -13 -43 -12 -44 6 -4
174 -34 226 -41 51 -6 52 -6 52 19 0 42 -38 149 -73 205 l-33 53 -41 -30z"/>
<path d="M6113 5563 c-36 -66 -76 -189 -66 -206 6 -10 71 -3 191 20 94 18 96
21 56 100 -26 53 -87 123 -123 142 -18 10 -24 5 -58 -56z"/>
<path d="M1345 5587 c-123 -48 -188 -134 -240 -314 -30 -104 -39 -91 107 -163
110 -54 227 -86 280 -76 47 9 89 54 99 108 4 24 3 132 -4 241 l-11 197 -35 10
c-48 13 -159 11 -196 -3z"/>
<path d="M1685 5591 c-39 -8 -42 -27 -50 -271 -6 -187 -6 -196 14 -228 22 -34
73 -62 114 -62 82 0 377 127 377 162 0 10 -13 60 -30 111 -65 203 -171 299
-327 296 -37 -1 -81 -4 -98 -8z"/>
<path d="M5102 5397 c-11 -12 -31 -45 -44 -72 -21 -45 -23 -64 -22 -195 1 -80
5 -201 10 -270 l9 -125 38 60 c21 33 45 83 54 110 24 75 28 242 9 353 -9 50
-16 108 -16 127 0 41 -8 44 -38 12z"/>
<path d="M6351 5323 c-28 -217 -30 -247 -21 -322 8 -56 21 -98 53 -160 23 -47
47 -86 52 -88 6 -2 11 22 12 55 1 31 7 117 14 191 13 146 8 244 -16 311 -16
44 -60 110 -73 110 -5 0 -14 -44 -21 -97z"/>
<path d="M5415 5289 c-16 -6 -56 -8 -89 -5 -56 6 -58 5 -53 -17 3 -12 25 -97
50 -189 40 -146 79 -344 104 -531 l8 -58 67 55 c80 66 159 161 196 236 24 49
27 66 27 155 l0 100 -133 130 c-73 72 -136 131 -140 132 -4 0 -20 -3 -37 -8z"/>
<path d="M5905 5167 l-130 -132 0 -100 c0 -94 2 -105 34 -169 24 -49 57 -93
115 -150 82 -83 136 -130 140 -124 2 2 8 50 15 108 17 145 63 368 111 538 22
78 40 144 40 146 0 2 -33 3 -72 2 -40 0 -84 2 -98 6 -22 6 -39 -7 -155 -125z"/>
<path d="M4982 5258 c-46 -77 -64 -157 -69 -308 -3 -80 -2 -142 1 -138 4 3 20
82 36 175 16 92 36 198 43 236 8 37 13 67 12 67 -2 0 -12 -15 -23 -32z"/>
<path d="M6492 5279 c3 -9 23 -109 43 -225 20 -115 40 -216 43 -224 12 -27 13
133 2 220 -11 82 -60 223 -83 237 -6 4 -8 0 -5 -8z"/>
<path d="M920 5269 c-56 -22 -101 -88 -126 -184 -14 -51 -19 -230 -8 -259 13
-34 51 -17 109 46 112 125 145 197 145 324 0 56 -3 73 -16 78 -23 9 -75 6
-104 -5z"/>
<path d="M2192 5268 c-27 -27 -6 -183 35 -263 12 -22 52 -75 89 -117 54 -60
74 -77 94 -75 36 3 45 55 32 185 -9 86 -17 117 -44 171 -27 55 -41 70 -78 89
-48 24 -109 29 -128 10z"/>
<path d="M1130 5112 c0 -5 9 -32 21 -58 11 -27 25 -70 31 -97 5 -27 17 -57 24
-66 8 -9 26 -29 39 -46 20 -24 26 -27 34 -16 14 22 -3 54 -37 71 -29 14 -32
19 -32 67 0 45 -5 60 -36 100 -45 60 -44 59 -44 45z"/>
<path d="M2051 5067 c-23 -29 -41 -61 -41 -69 0 -10 -14 -18 -40 -22 -36 -6
-40 -9 -40 -36 0 -38 21 -39 52 -2 l23 29 11 -36 11 -36 12 45 c6 25 23 74 36
109 14 36 23 66 21 69 -2 2 -23 -21 -45 -51z"/>
<path d="M4981 5039 c-22 -127 -10 -283 18 -239 16 25 23 109 16 188 -11 115
-20 129 -34 51z"/>
<path d="M6494 5085 c-14 -34 -11 -272 4 -287 25 -25 34 12 28 127 -3 61 -10
126 -14 145 -8 31 -10 33 -18 15z"/>
<path d="M1222 5054 c4 -21 66 -66 82 -61 6 2 12 13 14 24 2 15 -6 22 -35 32
-21 7 -44 15 -51 18 -9 3 -13 -1 -10 -13z"/>
<path d="M1950 5053 c-56 -19 -53 -17 -45 -43 8 -26 38 -19 78 18 46 44 38 50
-33 25z"/>
<path d="M1006 4977 c-32 -72 -74 -133 -131 -190 -49 -49 -53 -57 -30 -57 22
0 109 83 145 140 40 63 66 138 52 152 -8 8 -18 -5 -36 -45z"/>
<path d="M2180 4996 c0 -63 147 -266 193 -266 9 0 17 3 17 6 0 3 -26 35 -59
70 -32 35 -75 98 -96 139 -40 78 -55 92 -55 51z"/>
<path d="M1462 4989 c-94 -18 -142 -74 -142 -164 l0 -47 30 25 c35 30 46 34
137 51 l68 12 3 62 c2 49 0 62 -12 62 -8 0 -20 2 -28 4 -7 2 -32 0 -56 -5z"/>
<path d="M1693 4992 c-21 -3 -23 -9 -23 -66 l0 -62 73 -12 c39 -7 92 -24 116
-37 24 -14 46 -23 48 -21 11 11 -10 108 -29 131 -36 46 -124 78 -185 67z"/>
<path d="M1220 4971 c0 -5 14 -23 32 -40 31 -30 33 -31 40 -11 4 11 5 26 2 34
-8 21 -74 36 -74 17z"/>
<path d="M1963 4893 c-15 -10 -23 -26 -23 -44 0 -37 12 -37 44 2 43 50 29 77
-21 42z"/>
<path d="M1206 4818 c8 -41 28 -74 54 -88 18 -10 20 -8 20 22 0 26 -9 40 -40
66 l-40 33 6 -33z"/>
<path d="M1977 4812 c-24 -25 -37 -47 -37 -65 0 -33 14 -34 45 -3 21 21 44 90
33 101 -2 3 -21 -12 -41 -33z"/>
<path d="M1425 4806 c-67 -31 -105 -76 -105 -124 0 -20 4 -42 8 -48 5 -7 44
-9 120 -6 l112 5 0 98 0 99 -42 0 c-24 0 -66 -11 -93 -24z"/>
<path d="M1667 4823 c-9 -8 -9 -86 -1 -146 l6 -45 107 -4 c116 -5 131 0 131
52 0 43 -40 92 -100 122 -52 26 -127 37 -143 21z"/>
<path d="M758 4755 c-77 -52 -158 -192 -232 -400 -26 -71 -64 -170 -86 -220
-21 -49 -46 -108 -55 -129 -15 -39 -15 -39 4 -22 11 10 43 63 73 119 29 56 91
154 138 217 87 118 136 206 170 305 19 54 37 155 29 155 -3 0 -21 -11 -41 -25z"/>
<path d="M2427 4774 c-7 -7 1 -57 19 -124 25 -90 89 -208 178 -329 45 -62 100
-145 121 -185 50 -94 96 -168 102 -162 3 3 -18 57 -47 121 -28 64 -69 169 -91
232 -40 115 -110 267 -151 327 -43 63 -118 132 -131 120z"/>
<path d="M4934 4743 c-32 -33 -66 -154 -46 -167 21 -13 146 143 135 170 -7 20
-68 18 -89 -3z"/>
<path d="M6474 4745 c-8 -19 31 -76 91 -135 l45 -44 0 42 c0 46 -21 105 -47
134 -20 23 -81 24 -89 3z"/>
<path d="M1213 4697 c-11 -17 -16 -421 -6 -492 8 -56 11 -61 45 -80 46 -25 60
-14 61 47 1 99 -25 465 -34 489 -12 32 -54 55 -66 36z"/>
<path d="M1965 4688 c-23 -20 -28 -33 -31 -88 -20 -332 -25 -452 -19 -470 8
-27 33 -25 70 4 l30 24 0 266 c0 182 -4 269 -11 276 -8 8 -19 5 -39 -12z"/>
<path d="M809 4591 c-34 -38 -73 -88 -86 -112 -23 -44 -23 -44 -3 -47 12 -2
42 10 68 26 26 17 57 33 70 37 27 8 42 41 42 95 0 43 -8 70 -20 70 -5 0 -37
-31 -71 -69z"/>
<path d="M2330 4587 l0 -73 81 -42 c74 -39 109 -50 109 -37 0 11 -33 70 -52
95 -33 43 -120 130 -129 130 -5 0 -9 -33 -9 -73z"/>
<path d="M5607 4558 c-48 -53 -103 -106 -122 -119 -19 -13 -35 -28 -35 -33 0
-14 71 -107 154 -200 74 -82 80 -87 88 -66 5 12 7 133 6 268 l-3 245 -88 -95z"/>
<path d="M5791 4498 c-3 -170 7 -380 19 -376 17 7 175 186 208 235 l35 54 -24
16 c-13 8 -70 62 -125 119 -56 57 -103 104 -105 104 -3 0 -6 -69 -8 -152z"/>
<path d="M4777 4544 c-60 -134 -107 -260 -127 -343 -34 -131 -24 -139 41 -39
46 72 96 198 114 288 17 84 26 180 17 180 -4 0 -24 -39 -45 -86z"/>
<path d="M6670 4613 c0 -72 34 -223 70 -314 37 -91 116 -226 127 -215 18 18
-55 251 -133 432 -46 104 -64 131 -64 97z"/>
<path d="M6751 4530 c70 -186 159 -486 159 -540 0 -17 5 -21 28 -18 56 6 45
44 -165 553 -46 112 -64 116 -22 5z"/>
<path d="M4732 4539 c-76 -166 -213 -530 -207 -550 4 -12 15 -19 30 -19 19 0
26 7 31 28 34 155 127 456 178 576 9 22 14 41 11 44 -3 3 -22 -33 -43 -79z"/>
<path d="M1368 4589 c-53 -24 -61 -42 -52 -113 l7 -46 63 0 c35 0 84 -7 110
-16 60 -20 64 -14 64 93 l0 81 -31 11 c-48 17 -109 13 -161 -10z"/>
<path d="M1690 4597 c-24 -13 -25 -16 -22 -102 2 -49 5 -91 7 -93 2 -2 25 3
51 12 26 9 76 16 111 16 71 0 77 7 71 91 -3 41 -6 46 -48 67 -50 25 -130 29
-170 9z"/>
<path d="M6460 4593 c0 -3 21 -45 47 -92 85 -158 280 -427 296 -411 10 10
-140 352 -185 423 -25 40 -35 47 -62 47 -17 0 -46 9 -63 20 -18 11 -33 17 -33
13z"/>
<path d="M4996 4575 c-11 -8 -34 -15 -52 -15 -37 0 -53 -18 -102 -116 -45 -89
-154 -346 -149 -351 2 -2 29 23 59 55 61 66 183 248 246 365 40 74 39 93 -2
62z"/>
<path d="M5360 4444 c-6 -14 -13 -70 -17 -125 l-6 -99 48 26 47 27 -6 55 c-6
53 -38 142 -51 142 -3 0 -10 -12 -15 -26z"/>
<path d="M6099 4425 c-13 -29 -22 -72 -23 -102 -1 -52 0 -54 42 -79 l42 -25 0
43 c0 58 -18 176 -29 197 -8 13 -14 7 -32 -34z"/>
<path d="M780 4375 c-100 -149 -195 -269 -269 -343 -40 -40 -76 -71 -79 -68
-2 3 23 34 57 70 104 107 291 350 291 378 0 5 -18 -1 -40 -13 -59 -33 -207
-222 -292 -374 -27 -48 -32 -63 -22 -72 9 -9 32 7 100 70 148 139 215 218 280
334 56 99 38 112 -26 18z"/>
<path d="M2385 4428 c28 -91 149 -253 288 -383 132 -124 149 -126 32 -3 -86
90 -285 350 -302 394 -9 23 -25 16 -18 -8z"/>
<path d="M2478 4353 c69 -101 177 -235 256 -318 74 -77 76 -78 56 -36 -32 64
-98 165 -178 268 -74 95 -126 143 -156 143 -13 0 -8 -12 22 -57z"/>
<path d="M1325 4324 c8 -89 56 -290 90 -379 49 -131 89 -169 140 -131 17 12
18 27 12 247 -6 204 -9 237 -25 258 -38 51 -69 65 -148 69 l-76 4 7 -68z"/>
<path d="M1724 4358 c-60 -41 -60 -40 -68 -312 -6 -187 -5 -211 10 -227 26
-29 60 -24 88 14 54 70 130 326 142 480 l7 77 -65 0 c-58 0 -72 -4 -114 -32z"/>
<path d="M5262 4146 c-67 -73 -107 -170 -126 -306 l-7 -45 53 57 c87 93 188
150 320 180 26 6 48 14 48 18 0 20 -121 119 -156 129 -69 19 -88 15 -132 -33z"/>
<path d="M6081 4170 c-38 -18 -131 -103 -131 -122 0 -3 22 -11 48 -17 127 -27
273 -112 329 -190 15 -22 31 -41 35 -41 8 0 1 56 -19 135 -21 83 -56 154 -104
209 -35 39 -46 46 -77 46 -21 0 -57 -9 -81 -20z"/>
<path d="M1125 4073 c16 -140 65 -308 178 -613 101 -274 140 -388 179 -525 17
-60 33 -112 36 -115 7 -8 -7 170 -24 300 -22 166 -87 354 -227 655 -40 88 -88
204 -106 258 -18 53 -35 97 -38 97 -2 0 -1 -26 2 -57z"/>
<path d="M2086 4100 c-14 -58 -90 -247 -149 -370 -63 -133 -113 -259 -161
-403 -32 -96 -53 -227 -70 -440 -5 -67 7 -67 23 0 27 107 88 291 172 515 137
366 205 606 197 695 l-3 38 -9 -35z"/>
<path d="M1989 4038 c-29 -40 -95 -116 -147 -169 l-93 -97 20 -51 c24 -63 69
-141 81 -141 5 0 12 17 15 38 10 62 54 191 111 319 60 136 75 173 70 173 -2 0
-27 -33 -57 -72z"/>
<path d="M1180 4097 c0 -4 26 -67 58 -140 60 -133 105 -259 119 -331 4 -22 13
-41 19 -43 14 -5 80 120 89 168 6 34 4 38 -50 84 -31 27 -93 94 -137 149 -93
116 -98 123 -98 113z"/>
<path d="M1067 4064 c-3 -6 -13 -51 -22 -100 -20 -114 -20 -342 0 -482 30
-206 110 -486 201 -704 22 -53 24 -71 24 -227 0 -161 1 -169 20 -174 38 -10
48 26 61 223 12 187 7 415 -12 584 -7 68 -34 164 -109 395 -54 168 -112 349
-128 401 -15 52 -31 90 -35 84z"/>
<path d="M2140 4044 c-6 -14 -10 -28 -10 -32 0 -11 -56 -190 -151 -477 -84
-257 -89 -277 -100 -405 -7 -86 -10 -231 -6 -400 7 -323 17 -377 66 -351 20
11 21 19 21 180 l0 168 49 129 c86 229 134 399 168 599 24 142 24 431 -1 538
-10 42 -20 77 -22 77 -3 0 -9 -12 -14 -26z"/>
<path d="M5590 4013 c-51 -8 -187 -56 -241 -85 -89 -47 -163 -119 -201 -196
-30 -61 -33 -75 -33 -157 1 -77 5 -100 31 -161 17 -39 48 -97 69 -129 35 -52
40 -56 50 -39 28 52 93 101 171 128 144 53 196 87 246 165 28 45 28 46 28 210
0 92 -3 190 -6 219 l-7 52 -41 -1 c-23 -1 -52 -4 -66 -6z"/>
<path d="M5790 3795 l0 -224 43 -53 c51 -63 119 -106 230 -145 81 -28 132 -65
168 -122 l15 -24 31 49 c71 110 113 225 113 305 0 62 -37 163 -79 216 -94 117
-322 223 -480 223 l-41 0 0 -225z"/>
<path d="M4390 3870 c-30 -39 -60 -85 -67 -102 -13 -31 -13 -32 52 -95 37 -36
73 -63 82 -61 21 4 59 79 73 141 12 56 14 164 3 170 -5 3 -26 8 -48 11 -40 6
-40 6 -95 -64z"/>
<path d="M6990 3931 c-25 -7 -25 -9 -24 -104 0 -86 3 -102 30 -154 16 -32 37
-59 46 -61 20 -4 138 111 138 135 0 24 -33 76 -88 141 -44 52 -55 56 -102 43z"/>
<path d="M299 3897 c-34 -32 -120 -169 -117 -187 2 -9 31 -41 66 -73 54 -50
65 -56 83 -47 37 20 61 96 67 206 l4 101 -40 10 c-36 9 -44 8 -63 -10z"/>
<path d="M2860 3906 c-33 -12 -35 -15 -38 -67 -8 -131 49 -275 98 -249 36 19
120 109 120 128 0 29 -121 204 -139 201 -3 0 -22 -6 -41 -13z"/>
<path d="M4268 3842 c-93 -63 -114 -93 -55 -78 37 9 144 84 168 117 19 27 19
29 2 28 -10 0 -62 -30 -115 -67z"/>
<path d="M7100 3901 c0 -28 164 -141 204 -141 33 0 24 20 -21 46 -27 16 -71
45 -100 66 -50 37 -83 48 -83 29z"/>
<path d="M164 3836 c-39 -29 -85 -61 -102 -70 -34 -18 -40 -31 -18 -39 16 -7
160 80 195 116 20 23 22 47 3 47 -4 0 -39 -24 -78 -54z"/>
<path d="M2972 3868 c2 -16 31 -42 97 -86 52 -34 100 -61 105 -59 21 7 10 28
-26 50 -20 12 -64 43 -97 70 -68 53 -84 57 -79 25z"/>
<path d="M1487 3633 c-55 -118 -57 -127 -45 -165 6 -18 14 -60 17 -92 12 -118
43 -64 60 104 21 203 22 230 13 230 -5 0 -25 -35 -45 -77z"/>
<path d="M1690 3653 c0 -74 26 -281 39 -316 17 -43 29 -32 34 31 2 31 10 75
17 97 12 39 11 45 -30 138 -23 53 -46 100 -51 103 -5 3 -9 -21 -9 -53z"/>
<path d="M4276 3678 c-47 -72 -94 -218 -70 -218 23 0 122 210 109 230 -10 16
-24 12 -39 -12z"/>
<path d="M7184 3687 c-11 -30 89 -238 107 -220 15 15 -2 80 -40 155 -36 72
-56 92 -67 65z"/>
<path d="M112 3591 c-45 -99 -56 -146 -32 -146 16 0 90 159 93 202 4 54 -21
31 -61 -56z"/>
<path d="M3052 3667 c-8 -9 0 -38 29 -106 21 -52 44 -100 50 -107 20 -25 32
-15 26 21 -6 38 -78 204 -88 205 -4 0 -11 -6 -17 -13z"/>
<path d="M4321 3621 c-33 -64 -81 -190 -81 -212 0 -14 5 -19 18 -17 18 3 100
193 101 235 1 38 -17 35 -38 -6z"/>
<path d="M7143 3649 c-13 -13 -14 -9 40 -151 31 -83 45 -108 59 -108 10 0 18
6 18 14 0 30 -91 256 -103 256 -2 0 -8 -5 -14 -11z"/>
<path d="M162 3552 c-27 -62 -62 -164 -62 -184 0 -4 6 -8 14 -8 16 0 96 171
103 223 9 62 -20 46 -55 -31z"/>
<path d="M3004 3607 c-10 -26 83 -247 104 -247 18 0 15 28 -12 106 -42 124
-77 178 -92 141z"/>
<path d="M4376 3602 c-3 -6 -22 -47 -41 -92 -36 -85 -44 -124 -22 -118 17 6
87 149 90 183 2 28 -16 45 -27 27z"/>
<path d="M7090 3596 c0 -27 53 -155 76 -184 19 -22 24 -24 29 -11 9 23 -68
203 -88 207 -10 2 -17 -3 -17 -12z"/>
<path d="M4449 3573 c-16 -18 -49 -95 -49 -113 0 -25 19 -5 44 49 30 62 32 96
5 64z"/>
<path d="M7027 3583 c-7 -11 51 -133 64 -133 12 0 12 1 -11 64 -21 54 -44 84
-53 69z"/>
<path d="M200 3481 c-38 -90 -44 -121 -21 -121 11 0 91 176 91 200 0 48 -31
14 -70 -79z"/>
<path d="M2955 3571 c-6 -11 22 -86 61 -162 19 -38 28 -49 37 -40 12 12 3 42
-44 149 -27 59 -41 73 -54 53z"/>
<path d="M297 3520 c-15 -30 -27 -68 -27 -84 l1 -31 14 25 c21 37 47 118 43
132 -3 7 -16 -12 -31 -42z"/>
<path d="M994 3505 c-14 -93 -9 -298 10 -425 21 -140 71 -336 126 -495 82
-237 90 -239 90 -17 0 174 6 145 -104 522 -31 107 -70 258 -85 335 l-28 140
-9 -60z"/>
<path d="M2210 3533 c0 -72 -87 -420 -166 -666 -31 -98 -35 -120 -40 -270 -5
-132 -3 -165 8 -181 13 -17 17 -12 45 65 76 205 126 383 159 564 23 124 27
486 7 507 -10 9 -13 6 -13 -19z"/>
<path d="M2906 3508 c16 -55 42 -103 50 -95 7 7 -15 85 -32 120 -24 45 -34 30
-18 -25z"/>
<path d="M5577 3399 c-32 -22 -62 -50 -66 -62 -13 -38 -1 -156 39 -362 21
-110 43 -243 50 -295 6 -52 12 -96 14 -97 2 -2 6 25 9 60 3 34 20 131 36 216
26 126 31 177 31 290 0 168 -18 292 -43 290 -7 0 -38 -18 -70 -40z"/>
<path d="M5831 3408 c-18 -56 -32 -229 -26 -323 4 -49 19 -155 35 -235 16 -80
32 -174 36 -210 l7 -65 23 155 c13 85 35 211 49 280 15 69 29 170 32 225 5 94
4 101 -17 124 -24 24 -108 81 -121 81 -4 0 -12 -15 -18 -32z"/>
<path d="M5110 3365 c0 -37 31 -248 49 -335 19 -89 19 -89 44 -20 3 8 3 -17 0
-56 -8 -97 9 -196 67 -414 28 -102 56 -222 62 -268 8 -54 15 -77 19 -65 16 39
8 208 -17 375 -36 236 -26 394 32 562 40 111 39 106 15 106 -30 0 -102 -75
-134 -140 l-27 -54 2 65 c1 56 -3 74 -35 139 -20 41 -46 86 -57 100 -18 23
-20 24 -20 5z"/>
<path d="M6361 3352 c-11 -16 -37 -63 -56 -103 -32 -66 -36 -80 -31 -129 3
-30 8 -66 12 -80 3 -14 -6 1 -20 33 -44 104 -108 177 -155 177 -18 0 -17 -4 9
-72 60 -154 79 -396 46 -583 -24 -137 -35 -265 -29 -333 6 -65 23 -86 23 -29
0 37 29 164 90 392 36 139 42 175 43 272 2 98 4 108 13 80 8 -22 14 -27 17
-17 19 48 74 407 64 416 -3 3 -14 -8 -26 -24z"/>
<path d="M5437 3254 c-95 -293 -115 -587 -56 -804 20 -73 85 -210 115 -240 13
-13 15 -10 13 30 0 25 5 147 12 271 15 259 4 492 -32 663 -27 132 -33 141 -52
80z"/>
<path d="M6036 3289 c-12 -34 -36 -140 -48 -214 -9 -57 -12 -166 -10 -385 5
-436 6 -490 13 -490 12 0 86 133 109 195 74 200 67 482 -20 790 -33 117 -37
125 -44 104z"/>
<path d="M1400 3035 c0 -33 5 -107 11 -165 9 -87 8 -128 -5 -229 -16 -126 -20
-239 -10 -278 5 -17 14 -23 36 -23 25 0 32 7 51 48 20 43 22 62 21 222 0 157
-3 185 -27 270 -14 52 -37 122 -51 155 l-25 60 -1 -60z"/>
<path d="M1811 3065 c-102 -234 -131 -551 -65 -690 13 -28 22 -35 44 -35 47 0
56 62 36 238 -19 158 -20 241 -5 366 6 50 9 105 7 121 l-4 30 -13 -30z"/>
<path d="M5545 2684 c-11 -137 -1 -592 12 -605 32 -32 56 182 42 365 -9 124
-36 326 -43 334 -2 2 -7 -40 -11 -94z"/>
<path d="M5938 2760 c-13 -45 -37 -253 -44 -370 -6 -116 5 -240 27 -296 l11
-29 10 25 c13 34 21 450 11 585 -5 70 -11 101 -15 85z"/>
<path d="M1283 2278 c-13 -6 -23 -17 -23 -25 0 -27 51 -168 66 -183 14 -13 17
-13 30 5 32 43 56 191 33 206 -19 12 -79 10 -106 -3z"/>
<path d="M1834 2280 c-24 -24 23 -226 50 -217 19 6 56 82 68 142 10 53 10 59
-7 71 -22 16 -96 19 -111 4z"/>
<path d="M1441 2239 c0 -14 -17 -89 -36 -168 -19 -78 -35 -166 -34 -194 0 -37
3 -46 9 -32 67 163 80 204 79 255 -1 64 -16 177 -18 139z"/>
<path d="M1771 2142 c-1 -104 1 -119 28 -180 16 -37 33 -79 36 -95 4 -15 12
-30 18 -34 16 -10 2 94 -34 247 -44 188 -48 192 -48 62z"/>
<path d="M5381 2133 c-7 -60 -25 -189 -41 -288 -48 -301 -62 -428 -50 -481 13
-55 47 -124 99 -198 35 -50 40 -54 52 -39 11 12 14 54 12 182 -1 91 -3 332 -5
534 -3 351 -4 369 -22 383 -11 8 -23 14 -27 14 -3 0 -12 -48 -18 -107z"/>
<path d="M6069 2222 c-22 -19 -22 -22 -18 -188 2 -93 2 -245 -1 -339 -8 -310
-6 -549 6 -568 10 -17 16 -11 59 49 27 38 60 95 73 129 23 55 24 69 19 165 -3
58 -24 220 -46 360 -23 140 -44 290 -47 333 -4 42 -10 77 -14 77 -4 0 -18 -8
-31 -18z"/>
<path d="M1211 2209 c-2 -56 21 -234 31 -247 15 -17 88 -55 95 -48 8 8 -17 75
-60 161 -22 44 -45 98 -52 120 -11 34 -13 36 -14 14z"/>
<path d="M2000 2204 c0 -9 -25 -69 -55 -133 -47 -100 -66 -161 -51 -161 2 0
24 11 48 25 38 21 46 31 52 63 10 61 20 222 13 222 -4 0 -7 -7 -7 -16z"/>
<path d="M5477 2174 c-17 -18 -3 -484 23 -774 10 -99 15 -120 38 -153 15 -21
42 -48 60 -59 l32 -20 17 38 c50 118 1 494 -108 826 -42 130 -52 152 -62 142z"/>
<path d="M5992 2133 c-33 -77 -91 -286 -123 -445 -46 -231 -51 -448 -11 -498
l17 -21 34 25 c72 53 78 71 96 302 21 273 31 645 18 668 -8 15 -13 11 -31 -31z"/>
<path d="M1416 1820 c-14 -47 -30 -105 -35 -130 -13 -57 -14 -548 -1 -660 13
-117 32 -220 40 -220 17 0 110 471 110 555 0 124 -54 478 -80 525 -6 9 -16
-13 -34 -70z"/>
<path d="M1752 1803 c-37 -167 -65 -391 -59 -468 5 -64 71 -394 98 -490 10
-36 12 -38 20 -18 4 12 16 71 25 130 14 86 17 169 15 411 -1 303 -1 303 -31
409 -16 59 -33 110 -38 115 -5 5 -18 -33 -30 -89z"/>
<path d="M1196 1844 c-10 -76 -7 -146 10 -209 41 -160 87 -382 123 -600 47
-285 60 -345 72 -345 14 0 11 47 -10 135 -23 100 -28 134 -41 315 -14 184 -43
388 -74 510 -27 109 -65 240 -70 240 -2 0 -6 -21 -10 -46z"/>
<path d="M1982 1778 c-55 -180 -89 -392 -112 -690 -11 -140 -17 -181 -45 -302
-16 -68 -14 -109 5 -90 10 10 37 152 75 394 13 85 47 254 74 375 43 184 51
236 51 317 0 54 -4 98 -8 98 -5 0 -23 -46 -40 -102z"/>
<path d="M1150 1609 c-20 -166 -9 -255 63 -469 14 -41 42 -129 62 -195 35
-111 81 -222 90 -213 2 2 -5 37 -15 77 -11 41 -31 158 -45 260 -14 102 -37
238 -51 301 -41 185 -76 324 -84 333 -4 5 -13 -38 -20 -94z"/>
<path d="M2041 1673 c-41 -149 -95 -416 -117 -578 -14 -104 -34 -224 -45 -267
-23 -92 -24 -113 -2 -73 29 54 63 148 98 270 19 66 49 161 67 210 32 89 33 92
32 255 0 91 -5 179 -11 195 l-10 30 -12 -42z"/>
<path d="M5592 1135 c-18 -40 -32 -174 -32 -320 0 -66 -5 -177 -11 -246 -11
-123 -8 -179 10 -179 12 0 20 65 31 260 5 91 15 224 21 296 9 86 10 145 3 174
l-9 44 -13 -29z"/>
<path d="M5887 1154 c-10 -10 -9 -152 3 -259 6 -49 14 -168 20 -264 11 -188
17 -241 31 -241 17 0 20 51 9 157 -6 59 -15 207 -19 328 -5 152 -12 230 -22
253 -8 19 -17 30 -22 26z"/>
<path d="M5355 1118 c-5 -19 6 -71 34 -165 60 -205 91 -382 91 -519 0 -42 5
-65 15 -74 25 -21 27 7 16 172 -20 279 -71 515 -126 584 l-23 29 -7 -27z"/>
<path d="M6098 1093 c-49 -90 -87 -274 -107 -508 -15 -169 -14 -225 3 -225 18
0 26 31 26 105 1 127 31 284 107 555 18 63 20 120 4 120 -4 0 -19 -21 -33 -47z"/>
<path d="M1352 668 c-17 -17 -16 -21 27 -87 21 -34 42 -72 45 -86 12 -48 26
-25 26 43 0 73 -9 92 -61 125 -19 13 -28 14 -37 5z"/>
<path d="M1813 644 c-41 -34 -43 -38 -42 -87 0 -29 4 -60 8 -71 6 -15 10 -11
26 24 10 23 34 63 51 88 26 35 31 49 23 64 -13 24 -17 23 -66 -18z"/>
<path d="M1316 538 c-3 -13 -6 -36 -6 -52 0 -16 -7 -55 -16 -86 l-16 -56 91
-92 c49 -51 92 -92 95 -92 3 0 6 33 6 73 0 113 -40 229 -103 295 -37 38 -43
39 -51 10z"/>
<path d="M1855 525 c-67 -70 -118 -246 -100 -341 l7 -38 36 44 c20 25 61 68
90 96 51 48 54 53 48 85 -4 19 -12 69 -18 112 -7 42 -16 77 -21 77 -5 0 -24
-16 -42 -35z"/>
<path d="M6047 253 c6 -106 -10 -173 -42 -173 -21 0 -31 26 -59 150 l-23 105
-12 -55 c-7 -30 -17 -90 -24 -134 -11 -75 -11 -79 10 -96 30 -24 97 -31 167
-17 88 18 89 24 37 177 -24 72 -48 133 -52 136 -5 2 -6 -39 -2 -93z"/>
<path d="M5412 258 c-56 -157 -64 -201 -34 -213 72 -28 205 -22 233 11 13 16
0 135 -26 231 l-12 48 -8 -40 c-4 -22 -17 -78 -28 -125 -18 -71 -25 -85 -42
-85 -34 0 -46 41 -43 153 2 56 0 102 -4 102 -3 0 -20 -37 -36 -82z"/>
<path d="M1220 163 c-36 -47 -68 -92 -73 -99 -9 -15 36 -29 129 -39 75 -8 86
1 104 84 12 60 12 62 -11 87 -20 22 -69 54 -81 54 -2 0 -33 -39 -68 -87z"/>
<path d="M1887 225 c-20 -14 -40 -37 -43 -51 -8 -31 0 -84 18 -121 13 -27 16
-28 83 -25 67 2 135 17 135 29 0 10 -141 193 -148 193 -4 0 -24 -11 -45 -25z"/>
<path d="M1776 130 c-17 -21 -26 -43 -26 -66 0 -35 1 -35 38 -32 l37 3 -1 53
c-2 71 -14 81 -48 42z"/>
<path d="M1406 134 c-3 -9 -6 -36 -6 -60 0 -43 0 -44 34 -44 30 0 34 3 38 30
8 55 -49 118 -66 74z"/>
</g>
</svg>
